<?xml version="1.0" encoding="iso-8859-1" standalone="no"?> 
<?xml-stylesheet href="main.css" type="text/css"?> 
<svg xmlns="http://www.w3.org/2000/svg" xmlns:xlink="http://www.w3.org/1999/xlink" width="256.37071pt" height="77.16962pt" viewBox="-57.4975 -67.01205 256.37071 77.16962 "> 
<g transform="translate(0, 10.15756 ) scale(1,-1) translate(0,67.01205 )"> 
                       </p>
                            <g stroke="#000" fill="#000">
 <g stroke-width="0.4">
 <path d=" M -57.2975 -9.95757 h 114.595 v 19.91513 h -114.595 Z  " fill="none"/>
 <g transform="translate(-53.29793,-2.958)">
 <g fill="#000">
 <text style="stroke:none" transform="scale(1,-1) translate(53.29793,0)" text-anchor="middle"  font-size="12"> 
<g fill="#000">
 <g stroke="none"> Python Package: json</g> </g>
 </text> 
</g>
 </g>
 <path d=" M 85.85422 -9.95757 h 112.819 v 19.91513 h -112.819 Z  " fill="none"/>
 <g transform="translate(89.85379,-2.958)">
 <g fill="#000">
 <text style="stroke:none" transform="scale(1,-1) translate(52.40993,0)" text-anchor="middle"  font-size="12"> 
<g fill="#000">
 <g stroke="none"> Python Package: xml </g> </g>
 </text> 
</g>
 </g>
 <path d=" M 1.53435 -66.81206 h 139.195 v 19.81314 h -139.195 Z  " fill="none"/>
 <g transform="translate(5.53392,-59.91449)">
 <g fill="#000">
 <text style="stroke:none" transform="scale(1,-1) translate(65.59793,0)" text-anchor="middle"  font-size="12"> 
<g fill="#000">
 <g stroke="none"> Python Class: JSONtoXML</g> </g>
 </text> 
</g>
 </g>
 <path d=" M 58.50528 -46.79892 L 13.0487 -10.44484  " fill="none"/>
 <g transform="matrix(-0.78093,0.62454,-0.62454,-0.78093,13.04872,-10.44484)">
 <g stroke-width="0.31999">
 <g stroke-dasharray="none" stroke-dashoffset="0.0">
 <g stroke-linecap="round">
 <g stroke-linejoin="round">
 <path d=" M -1.19998 1.59998 C -1.09998 0.99998 0.0 0.09999 0.29999 0.0 C 0.0 -0.09999 -1.09998 -0.99998 -1.19998 -1.59998  " fill="none"/>
 </g>
 </g>
 </g>
 </g>
  </g>
 <g transform="translate(35.5974,-28.47824)">
 <g fill="#000">
 <text style="stroke:none" transform="scale(1,-1) translate(0.0,0)" text-anchor="middle"  font-size="12"> 
<g fill="#000">
 <g stroke="none"> </g> </g>
 </text> 
</g>
 </g>
 <path d=" M 83.75842 -46.79892 L 129.21501 -10.44484  " fill="none"/>
 <g transform="matrix(0.78093,0.62454,-0.62454,0.78093,129.215,-10.44484)">
 <g stroke-width="0.31999">
 <g stroke-dasharray="none" stroke-dashoffset="0.0">
 <g stroke-linecap="round">
 <g stroke-linejoin="round">
 <path d=" M -1.19998 1.59998 C -1.09998 0.99998 0.0 0.09999 0.29999 0.0 C 0.0 -0.09999 -1.09998 -0.99998 -1.19998 -1.59998  " fill="none"/>
 </g>
 </g>
 </g>
 </g>
  </g>
 <g transform="translate(106.66632,-28.47824)">
 <g fill="#000">
 <text style="stroke:none" transform="scale(1,-1) translate(0.0,0)" text-anchor="middle"  font-size="12"> 
<g fill="#000">
 <g stroke="none"> </g> </g>
 </text> 
</g>
 </g>
 </g>
 </g>
 
                                                                                               </g> 
</svg> 
