<?xml version="1.0" encoding="iso-8859-1" standalone="no"?> 
<?xml-stylesheet href="main.css" type="text/css"?> 
<svg xmlns="http://www.w3.org/2000/svg" xmlns:xlink="http://www.w3.org/1999/xlink" width="260.16254pt" height="75.73346pt" viewBox="-59.29204 -66.31947 260.16254 75.73346 "> 
<g transform="translate(0, 9.41399 ) scale(1,-1) translate(0,66.31947 )"> 
                </p>
                     <g stroke="#000" fill="#000">
 <g stroke-width="0.4">
 <path d=" M -59.09204 -9.21399 h 118.18408 v 18.42798 h -118.18408 Z  " fill="none"/>
 <g transform="translate(-55.17676,-2.96594)">
 <g fill="#000">
 <text style="stroke:none" transform="scale(1,-1) translate(55.17676,0)" text-anchor="middle"  font-size="12"> 
<g fill="#000">
 <g stroke="none"> Python Package: json</g> </g>
 </text> 
</g>
 </g>
 <path d=" M 83.85693 -9.21399 h 116.81357 v 18.42798 h -116.81357 Z  " fill="none"/>
 <g transform="translate(87.77222,-2.96594)">
 <g fill="#000">
 <text style="stroke:none" transform="scale(1,-1) translate(54.4915,0)" text-anchor="middle"  font-size="12"> 
<g fill="#000">
 <g stroke="none"> Python Package: xml </g> </g>
 </text> 
</g>
 </g>
 <path d=" M -4.54572 -66.11948 h 151.35513 v 18.42798 h -151.35513 Z  " fill="none"/>
 <g transform="translate(-0.63043,-59.87143)">
 <g fill="#000">
 <text style="stroke:none" transform="scale(1,-1) translate(71.76228,0)" text-anchor="middle"  font-size="12"> 
<g fill="#000">
 <g stroke="none"> Python Class: JSONtoXML</g> </g>
 </text> 
</g>
 </g>
 <path d=" M 59.37128 -47.4915 L 12.11977 -9.70126  " fill="none"/>
 <g transform="matrix(-0.7809,0.62454,-0.62454,-0.7809,12.11978,-9.70126)">
 <g stroke-width="0.31999">
 <g stroke-dasharray="none" stroke-dashoffset="0.0">
 <g stroke-linecap="round">
 <g stroke-linejoin="round">
 <path d=" M -1.19998 1.59998 C -1.09998 0.99998 0.0 0.09999 0.29999 0.0 C 0.0 -0.09999 -1.09998 -0.99998 -1.19998 -1.59998  " fill="none"/>
 </g>
 </g>
 </g>
 </g>
  </g>
 <g transform="translate(35.56593,-28.45274)">
 <g fill="#000">
 <text style="stroke:none" transform="scale(1,-1) translate(0.0,0)" text-anchor="middle"  font-size="12"> 
<g fill="#000">
 <g stroke="none"> </g> </g>
 </text> 
</g>
 </g>
 <path d=" M 82.89258 -47.4915 L 130.14395 -9.70126  " fill="none"/>
 <g transform="matrix(0.7809,0.62454,-0.62454,0.7809,130.14394,-9.70126)">
 <g stroke-width="0.31999">
 <g stroke-dasharray="none" stroke-dashoffset="0.0">
 <g stroke-linecap="round">
 <g stroke-linejoin="round">
 <path d=" M -1.19998 1.59998 C -1.09998 0.99998 0.0 0.09999 0.29999 0.0 C 0.0 -0.09999 -1.09998 -0.99998 -1.19998 -1.59998  " fill="none"/>
 </g>
 </g>
 </g>
 </g>
  </g>
 <g transform="translate(106.69786,-28.45274)">
 <g fill="#000">
 <text style="stroke:none" transform="scale(1,-1) translate(0.0,0)" text-anchor="middle"  font-size="12"> 
<g fill="#000">
 <g stroke="none"> </g> </g>
 </text> 
</g>
 </g>
 </g>
 </g>
 
                                                                  </g> 
</svg> 
