<?xml version="1.0" encoding="iso-8859-1" standalone="no"?> 
<?xml-stylesheet href="main.css" type="text/css"?> 
<svg xmlns="http://www.w3.org/2000/svg" xmlns:xlink="http://www.w3.org/1999/xlink" width="256.47467pt" height="124.79852pt" viewBox="-0.2 -0.2 256.47467 124.79852 "> 
<g transform="translate(0, 124.59853 ) scale(1,-1) translate(0,0.2 )"> 
</p>    <g stroke="#000" fill="#000">
 <g stroke-width="0.4">
 <path d=" M 49.20587 103.22342 h 157.66293 v 21.17511 h -157.66293 Z  " fill="none"/>
 <g transform="translate(53.20544,110.12097)">
 <g fill="#000">
 <text style="stroke:none" transform="scale(1,-1) translate(74.8319,0)" text-anchor="middle"  font-size="12"> 
<g fill="#000">
 <g stroke="none"> $ echo "1234" » passwords.txt</g> </g>
 </text> 
</g>
 </g>
 <path d=" M 0.0 28.45274 h 85.35822 v 28.45273 h -85.35822 Z  " fill="none"/>
 <g transform="translate(0.0,42.67912)">
 <g fill="#000">
 <text style="stroke:none" transform="scale(1,-1) translate(42.67911,0)" text-anchor="middle"  font-size="12"> 
<g fill="#000">
 <g stroke="none">  </g> </g>
 </text> 
</g>
 </g>
 <g transform="translate(22.01512,39.6701)">
 <g fill="#000">
 <text style="stroke:none" transform="scale(1,-1) translate(20.66399,0)" text-anchor="middle"  font-size="12"> 
<g fill="#000">
 <g stroke="none"> help.me </g> </g>
 </text> 
</g>
 </g>
 <g stroke-dasharray="0.4,2.0" stroke-dashoffset="0.0">
 <g stroke-dasharray="0.4,2.0" stroke-dashoffset="0.0">
 <path d=" M 0.0 56.90549 h 85.35822 v 28.45273 h -85.35822 Z  " fill="none"/>
 </g>
 <g transform="translate(0.0,71.13187)">
 <g fill="#000">
 <text style="stroke:none" transform="scale(1,-1) translate(42.67911,0)" text-anchor="middle"  font-size="12"> 
<g fill="#000">
 <g stroke="none">  </g> </g>
 </text> 
</g>
 </g>
 </g>
 <g transform="translate(8.20317,68.12285)">
 <g fill="#000">
 <text style="stroke:none" transform="scale(1,-1) translate(34.47594,0)" text-anchor="middle"  font-size="12"> 
<g fill="#000">
 <g stroke="none"> passwords.txt </g> </g>
 </text> 
</g>
 </g>
 <g stroke-dasharray="0.4,2.0" stroke-dashoffset="0.0">
 <path d=" M 85.35823 0.0 L 85.35823 85.35823  " fill="none"/>
 </g>
 <path d=" M 85.35823 28.45274 h 85.35822 v 28.45273 h -85.35822 Z  " fill="none"/>
 <g transform="translate(85.35823,42.67912)">
 <g fill="#000">
 <text style="stroke:none" transform="scale(1,-1) translate(42.67911,0)" text-anchor="middle"  font-size="12"> 
<g fill="#000">
 <g stroke="none">  </g> </g>
 </text> 
</g>
 </g>
 <g transform="translate(107.37335,39.6701)">
 <g fill="#000">
 <text style="stroke:none" transform="scale(1,-1) translate(20.66399,0)" text-anchor="middle"  font-size="12"> 
<g fill="#000">
 <g stroke="none"> help.me </g> </g>
 </text> 
</g>
 </g>
 <path d=" M 85.35823 0.0 h 85.35822 v 28.45273 h -85.35822 Z  " fill="none"/>
 <g transform="translate(85.35823,14.22638)">
 <g fill="#000">
 <text style="stroke:none" transform="scale(1,-1) translate(42.67911,0)" text-anchor="middle"  font-size="12"> 
<g fill="#000">
 <g stroke="none">  </g> </g>
 </text> 
</g>
 </g>
 <g transform="translate(105.97536,11.21736)">
 <g fill="#000">
 <text style="stroke:none" transform="scale(1,-1) translate(22.06198,0)" text-anchor="middle"  font-size="12"> 
<g fill="#000">
 <g stroke="none"> diary.md </g> </g>
 </text> 
</g>
 </g>
 <g stroke-dasharray="0.4,2.0" stroke-dashoffset="0.0">
 <path d=" M 170.71646 0.0 L 170.71646 85.35823  " fill="none"/>
 </g>
 <path d=" M 170.71646 56.90549 h 85.35822 v 28.45273 h -85.35822 Z  " fill="none"/>
 <g transform="translate(170.71646,71.13187)">
 <g fill="#000">
 <text style="stroke:none" transform="scale(1,-1) translate(42.67911,0)" text-anchor="middle"  font-size="12"> 
<g fill="#000">
 <g stroke="none">  </g> </g>
 </text> 
</g>
 </g>
 <g transform="translate(178.91963,68.12285)">
 <g fill="#000">
 <text style="stroke:none" transform="scale(1,-1) translate(34.47594,0)" text-anchor="middle"  font-size="12"> 
<g fill="#000">
 <g stroke="none"> passwords.txt </g> </g>
 </text> 
</g>
 </g>
 <g stroke-dasharray="0.4,2.0" stroke-dashoffset="0.0">
 <path d=" M 87.3582 71.13185 L 170.71646 71.13185  " fill="none"/>
 <g transform="matrix(-1.0,0.0,0.0,-1.0,87.3582,71.13185)">
 <path d=" M 1.99997 0.0 L -1.19998 1.59998 L 0.0 0.0 L -1.19998 -1.59998  " stroke="none"/>
  </g>
 </g>
 </g>
 </g>
                                    </g> 
</svg> 
