<?xml version="1.0" encoding="iso-8859-1" standalone="no"?> 
<?xml-stylesheet href="main.css" type="text/css"?> 
<svg xmlns="http://www.w3.org/2000/svg" xmlns:xlink="http://www.w3.org/1999/xlink" width="0.0pt" height="1.0pt" viewBox="0.0 0.0 0.0 1.0 "> 
<g transform="translate(0,0.0 ) scale(1,-1) translate(0,0.0 )"> 
<g stroke="#000" fill="#000">
 <g stroke-width="0.4">
 <g stroke="#56bd83" fill="#56bd83">
 <g stroke="#56bd83" fill="#56bd83">
 </g>
 <g transform="translate(4.19957,-30.6313)">
 <g fill="#56bd83">
 <text style="stroke:none" transform="scale(1,-1) translate(22.41815,0)" text-anchor="middle"  font-size="12"> 
<g fill="#56bd83">
 <g stroke="none"> <tspan font-family="\cmmi" font-size="\12">Protocol</tspan></g> </g>
 </text> 
</g>
 </g>
 </g>
 <g stroke="#56bd83" fill="#56bd83">
 <path d=" M 0.0 -5.09796 L 0.0 -31.8313 L 51.47144 -31.8313  " fill="none"/>
 <g transform="matrix(0.0,1.0,-1.0,0.0,0.0,-5.09796)">
 <path d=" M 1.99997 0.0 L -1.19998 1.59998 L 0.0 0.0 L -1.19998 -1.59998  " stroke="none"/>
  </g>
 </g>
 <g stroke="#217ab2" fill="#217ab2">
 <g stroke="#217ab2" fill="#217ab2">
 </g>
 <g transform="translate(-59.19347,34.316)">
 <g fill="#217ab2">
 <text style="stroke:none" transform="scale(1,-1) translate(27.49695,0)" text-anchor="middle"  font-size="12"> 
<g fill="#217ab2">
 <g stroke="none"> <tspan font-family="\cmmi" font-size="\12">Hostname</tspan></g> </g>
 </text> 
</g>
 </g>
 </g>
 <g stroke="#217ab2" fill="#217ab2">
 <path d=" M 0.0 11.11597 L 0.0 33.116 L -65.15704 33.116  " fill="none"/>
 <g transform="matrix(0.0,-1.0,1.0,0.0,0.0,11.11597)">
 <path d=" M 1.99997 0.0 L -1.19998 1.59998 L 0.0 0.0 L -1.19998 -1.59998  " stroke="none"/>
  </g>
 </g>
 <g stroke="#ff5878" fill="#ff5878">
 <g stroke="#ff5878" fill="#ff5878">
 </g>
 <g transform="translate(4.19957,-27.8773)">
 <g fill="#ff5878">
 <text style="stroke:none" transform="scale(1,-1) translate(13.19016,0)" text-anchor="middle"  font-size="12"> 
<g fill="#ff5878">
 <g stroke="none"> <tspan font-family="\cmmi" font-size="\12">P ath</tspan></g> </g>
 </text> 
</g>
 </g>
 </g>
 <g stroke="#ff5878" fill="#ff5878">
 <path d=" M 0.0 -2.34396 L 0.0 -29.0773 L 33.01544 -29.0773  " fill="none"/>
 <g transform="matrix(0.0,1.0,-1.0,0.0,0.0,-2.34396)">
 <path d=" M 1.99997 0.0 L -1.19998 1.59998 L 0.0 0.0 L -1.19998 -1.59998  " stroke="none"/>
  </g>
 </g>
 </g>
 </g>
 </g> 
</svg> 
