<?xml version="1.0" encoding="iso-8859-1" standalone="no"?> 
<?xml-stylesheet href="main.css" type="text/css"?> 
<svg xmlns="http://www.w3.org/2000/svg" xmlns:xlink="http://www.w3.org/1999/xlink" width="299.457pt" height="193.256pt" viewBox="-85.95822 -192.656 299.457 193.256 "> 
<g transform="translate(0, 0.59999 ) scale(1,-1) translate(0,192.656 )"> 
                                </p>
                                    <g stroke="#000" fill="#000">
 <g stroke-width="0.4">
 <g stroke-width="1.2">
 <g stroke="#0066a6">
 <clipPath id="pgfcp9"><path d=" M -42.67911 0.0 M -42.67911 0.0 L -42.67911 -21.33955 L 42.67911 -21.33955 L 42.67911 0.0 Z M 42.67911 -21.33955  "/> </clipPath>
 <g clip-path="url(#pgfcp9)">
 <g transform="matrix(1,0,0,1,0.0,-10.66977)">
 <g transform="matrix(1.701,0,0,0.42525,0.0,0.0)">
  <linearGradient id="pgfsh2" gradientTransform="rotate(90)">
 <stop offset="0.0" stop-color=" #fff "/>
 <stop offset="0.25" stop-color=" #fff "/>
 <stop offset="0.5" stop-color=" #fff "/>
 <stop offset="0.75" stop-color=" #fff "/>
 <stop offset="1.0" stop-color=" #fff "/>
 </linearGradient>
 <g transform="translate(-50.1875,-50.1875)"> 
 <rect width="100.375" height="100.375" style="fill:url(#pgfsh2); stroke:none"/>
 </g> 
 </g>
 </g>
 </g>
 <path d=" M -42.67911 0.0 M -42.67911 0.0 L -42.67911 -21.33955 L 42.67911 -21.33955 L 42.67911 0.0 Z M 42.67911 -21.33955  " fill="none"/>
 </g>
 </g>
 <g stroke-width="1.2">
 <g stroke="#e6e6e6">
 <clipPath id="pgfcp10"><path d=" M -49.7923 -28.45274 M -49.7923 -28.45274 L -49.7923 -49.7923 L 49.7923 -49.7923 L 49.7923 -28.45274 Z M 49.7923 -49.7923  "/> </clipPath>
 <g clip-path="url(#pgfcp10)">
 <g transform="matrix(1,0,0,1,0.0,-39.12251)">
 <g transform="matrix(1.98451,0,0,0.42525,0.0,0.0)">
  <linearGradient id="pgfsh2" gradientTransform="rotate(90)">
 <stop offset="0.0" stop-color=" #fff "/>
 <stop offset="0.25" stop-color=" #fff "/>
 <stop offset="0.5" stop-color=" #fff "/>
 <stop offset="0.75" stop-color=" #fff "/>
 <stop offset="1.0" stop-color=" #fff "/>
 </linearGradient>
 <g transform="translate(-50.1875,-50.1875)"> 
 <rect width="100.375" height="100.375" style="fill:url(#pgfsh2); stroke:none"/>
 </g> 
 </g>
 </g>
 </g>
 <path d=" M -49.7923 -28.45274 M -49.7923 -28.45274 L -49.7923 -49.7923 L 49.7923 -49.7923 L 49.7923 -28.45274 Z M 49.7923 -49.7923  " fill="none"/>
 </g>
 </g>
 <g stroke-width="1.2">
 <g stroke="#e6e6e6">
 <clipPath id="pgfcp11"><path d=" M -56.90549 -56.90549 M -56.90549 -56.90549 L -56.90549 -78.24504 L 56.90549 -78.24504 L 56.90549 -56.90549 Z M 56.90549 -78.24504  "/> </clipPath>
 <g clip-path="url(#pgfcp11)">
 <g transform="matrix(1,0,0,1,0.0,-67.57526)">
 <g transform="matrix(2.26802,0,0,0.42525,0.0,0.0)">
  <linearGradient id="pgfsh2" gradientTransform="rotate(90)">
 <stop offset="0.0" stop-color=" #fff "/>
 <stop offset="0.25" stop-color=" #fff "/>
 <stop offset="0.5" stop-color=" #fff "/>
 <stop offset="0.75" stop-color=" #fff "/>
 <stop offset="1.0" stop-color=" #fff "/>
 </linearGradient>
 <g transform="translate(-50.1875,-50.1875)"> 
 <rect width="100.375" height="100.375" style="fill:url(#pgfsh2); stroke:none"/>
 </g> 
 </g>
 </g>
 </g>
 <path d=" M -56.90549 -56.90549 M -56.90549 -56.90549 L -56.90549 -78.24504 L 56.90549 -78.24504 L 56.90549 -56.90549 Z M 56.90549 -78.24504  " fill="none"/>
 </g>
 </g>
 <g stroke-width="1.2">
 <g stroke="#0066a6">
 <clipPath id="pgfcp12"><path d=" M -64.01866 -85.35823 M -64.01866 -85.35823 L -64.01866 -106.69778 L 64.01866 -106.69778 L 64.01866 -85.35823 Z M 64.01866 -106.69778  "/> </clipPath>
 <g clip-path="url(#pgfcp12)">
 <g transform="matrix(1,0,0,1,0.0,-96.028)">
 <g transform="matrix(2.55151,0,0,0.42525,0.0,0.0)">
  <linearGradient id="pgfsh2" gradientTransform="rotate(90)">
 <stop offset="0.0" stop-color=" #fff "/>
 <stop offset="0.25" stop-color=" #fff "/>
 <stop offset="0.5" stop-color=" #fff "/>
 <stop offset="0.75" stop-color=" #fff "/>
 <stop offset="1.0" stop-color=" #fff "/>
 </linearGradient>
 <g transform="translate(-50.1875,-50.1875)"> 
 <rect width="100.375" height="100.375" style="fill:url(#pgfsh2); stroke:none"/>
 </g> 
 </g>
 </g>
 </g>
 <path d=" M -64.01866 -85.35823 M -64.01866 -85.35823 L -64.01866 -106.69778 L 64.01866 -106.69778 L 64.01866 -85.35823 Z M 64.01866 -106.69778  " fill="none"/>
 </g>
 </g>
 <g stroke-width="1.2">
 <g stroke="#e6e6e6">
 <clipPath id="pgfcp13"><path d=" M -71.13185 -113.81097 M -71.13185 -113.81097 L -71.13185 -135.15053 L 71.13185 -135.15053 L 71.13185 -113.81097 Z M 71.13185 -135.15053  "/> </clipPath>
 <g clip-path="url(#pgfcp13)">
 <g transform="matrix(1,0,0,1,0.0,-124.48074)">
 <g transform="matrix(2.83502,0,0,0.42525,0.0,0.0)">
  <linearGradient id="pgfsh2" gradientTransform="rotate(90)">
 <stop offset="0.0" stop-color=" #fff "/>
 <stop offset="0.25" stop-color=" #fff "/>
 <stop offset="0.5" stop-color=" #fff "/>
 <stop offset="0.75" stop-color=" #fff "/>
 <stop offset="1.0" stop-color=" #fff "/>
 </linearGradient>
 <g transform="translate(-50.1875,-50.1875)"> 
 <rect width="100.375" height="100.375" style="fill:url(#pgfsh2); stroke:none"/>
 </g> 
 </g>
 </g>
 </g>
 <path d=" M -71.13185 -113.81097 M -71.13185 -113.81097 L -71.13185 -135.15053 L 71.13185 -135.15053 L 71.13185 -113.81097 Z M 71.13185 -135.15053  " fill="none"/>
 </g>
 </g>
 <g stroke-width="1.2">
 <g stroke="#e6e6e6">
 <clipPath id="pgfcp14"><path d=" M -78.24504 -142.26372 M -78.24504 -142.26372 L -78.24504 -163.60327 L 78.24504 -163.60327 L 78.24504 -142.26372 Z M 78.24504 -163.60327  "/> </clipPath>
 <g clip-path="url(#pgfcp14)">
 <g transform="matrix(1,0,0,1,0.0,-152.93349)">
 <g transform="matrix(3.11853,0,0,0.42525,0.0,0.0)">
  <linearGradient id="pgfsh2" gradientTransform="rotate(90)">
 <stop offset="0.0" stop-color=" #fff "/>
 <stop offset="0.25" stop-color=" #fff "/>
 <stop offset="0.5" stop-color=" #fff "/>
 <stop offset="0.75" stop-color=" #fff "/>
 <stop offset="1.0" stop-color=" #fff "/>
 </linearGradient>
 <g transform="translate(-50.1875,-50.1875)"> 
 <rect width="100.375" height="100.375" style="fill:url(#pgfsh2); stroke:none"/>
 </g> 
 </g>
 </g>
 </g>
 <path d=" M -78.24504 -142.26372 M -78.24504 -142.26372 L -78.24504 -163.60327 L 78.24504 -163.60327 L 78.24504 -142.26372 Z M 78.24504 -163.60327  " fill="none"/>
 </g>
 </g>
 <g stroke-width="1.2">
 <g stroke="#e6e6e6">
 <clipPath id="pgfcp15"><path d=" M -85.35823 -170.71646 M -85.35823 -170.71646 L -85.35823 -192.05602 L 85.35823 -192.05602 L 85.35823 -170.71646 Z M 85.35823 -192.05602  "/> </clipPath>
 <g clip-path="url(#pgfcp15)">
 <g transform="matrix(1,0,0,1,0.0,-181.38623)">
 <g transform="matrix(3.40202,0,0,0.42525,0.0,0.0)">
  <linearGradient id="pgfsh2" gradientTransform="rotate(90)">
 <stop offset="0.0" stop-color=" #fff "/>
 <stop offset="0.25" stop-color=" #fff "/>
 <stop offset="0.5" stop-color=" #fff "/>
 <stop offset="0.75" stop-color=" #fff "/>
 <stop offset="1.0" stop-color=" #fff "/>
 </linearGradient>
 <g transform="translate(-50.1875,-50.1875)"> 
 <rect width="100.375" height="100.375" style="fill:url(#pgfsh2); stroke:none"/>
 </g> 
 </g>
 </g>
 </g>
 <path d=" M -85.35823 -170.71646 M -85.35823 -170.71646 L -85.35823 -192.05602 L 85.35823 -192.05602 L 85.35823 -170.71646 Z M 85.35823 -192.05602  " fill="none"/>
 </g>
 </g>
 <g transform="translate(-43.61394,-13.67877)">
 <g fill="#000">
 <text style="stroke:none" transform="scale(1,-1) translate(43.61394,0)" text-anchor="middle"  font-size="12"> 
<g fill="#000">
 <g stroke="none"> Application Layer</g> </g>
 </text> 
</g>
 </g>
 <g stroke="#b3b3b3" fill="#b3b3b3">
 <g stroke="#b3b3b3" fill="#b3b3b3">
 </g>
 <g transform="translate(-46.9799,-41.89151)">
 <g fill="#b3b3b3">
 <text style="stroke:none" transform="scale(1,-1) translate(46.9799,0)" text-anchor="middle"  font-size="12"> 
<g fill="#b3b3b3">
 <g stroke="none"> Presentation Layer</g> </g>
 </text> 
</g>
 </g>
 </g>
 <g stroke="#b3b3b3" fill="#b3b3b3">
 <g stroke="#b3b3b3" fill="#b3b3b3">
 </g>
 <g transform="translate(-34.52394,-70.34425)">
 <g fill="#b3b3b3">
 <text style="stroke:none" transform="scale(1,-1) translate(34.52394,0)" text-anchor="middle"  font-size="12"> 
<g fill="#b3b3b3">
 <g stroke="none"> Session Layer </g> </g>
 </text> 
</g>
 </g>
 </g>
 <g transform="translate(-38.85593,-98.797)">
 <g fill="#000">
 <text style="stroke:none" transform="scale(1,-1) translate(38.85593,0)" text-anchor="middle"  font-size="12"> 
<g fill="#000">
 <g stroke="none"> Transport Layer </g> </g>
 </text> 
</g>
 </g>
 <g stroke="#b3b3b3" fill="#b3b3b3">
 <g stroke="#b3b3b3" fill="#b3b3b3">
 </g>
 <g transform="translate(-36.49194,-127.48975)">
 <g fill="#b3b3b3">
 <text style="stroke:none" transform="scale(1,-1) translate(36.49194,0)" text-anchor="middle"  font-size="12"> 
<g fill="#b3b3b3">
 <g stroke="none"> Network Layer </g> </g>
 </text> 
</g>
 </g>
 </g>
 <g stroke="#b3b3b3" fill="#b3b3b3">
 <g stroke="#b3b3b3" fill="#b3b3b3">
 </g>
 <g transform="translate(-38.75993,-155.94249)">
 <g fill="#b3b3b3">
 <text style="stroke:none" transform="scale(1,-1) translate(38.75993,0)" text-anchor="middle"  font-size="12"> 
<g fill="#b3b3b3">
 <g stroke="none"> Data Link Layer </g> </g>
 </text> 
</g>
 </g>
 </g>
 <g stroke="#b3b3b3" fill="#b3b3b3">
 <g stroke="#b3b3b3" fill="#b3b3b3">
 </g>
 <g transform="translate(-35.40594,-184.39523)">
 <g fill="#b3b3b3">
 <text style="stroke:none" transform="scale(1,-1) translate(35.40594,0)" text-anchor="middle"  font-size="12"> 
<g fill="#b3b3b3">
 <g stroke="none"> Physical Layer </g> </g>
 </text> 
</g>
 </g>
 </g>
 <g transform="translate(75.70781,-99.673)">
 <g fill="#000">
 <text style="stroke:none" transform="scale(1,-1) translate(55.33194,0)" text-anchor="middle"  font-size="12"> 
<g fill="#000">
 <g stroke="none"> TCP/UDP (CSSE2310)</g> </g>
 </text> 
</g>
 </g>
 <g transform="translate(74.77536,-14.31477)">
 <g fill="#000">
 <text style="stroke:none" transform="scale(1,-1) translate(67.36192,0)" text-anchor="middle"  font-size="12"> 
<g fill="#000">
 <g stroke="none"> HTTP/HTTPS (CSSE6400)</g> </g>
 </text> 
</g>
 </g>
 </g>
 </g>
 
                                                                                                               </g> 
</svg> 
