<?xml version="1.0" encoding="UTF-8"?>
<svg xmlns="http://www.w3.org/2000/svg" xmlns:xlink="http://www.w3.org/1999/xlink" width="1190.25pt" height="1683.749945pt" viewBox="0 0 1190.25 1683.749945" version="1.2">
<defs>
<clipPath id="clip1">
  <path d="M 509 392 L 850.949219 392 L 850.949219 874 L 509 874 Z M 509 392 "/>
</clipPath>
</defs>
<g id="surface1">
<path style=" stroke:none;fill-rule:nonzero;fill:rgb(82.348633%,83.139038%,81.959534%);fill-opacity:1;" d="M 524.441406 793.550781 C 524.441406 793.550781 693.789062 399.1875 726.011719 363.019531 C 726.011719 363.019531 741.078125 352.046875 754.949219 362.847656 C 754.949219 362.847656 766.773438 345.746094 778.609375 339.234375 C 778.609375 339.234375 770.09375 363.070312 775.816406 389.964844 C 775.816406 389.964844 777.855469 407.097656 771.070312 413.632812 C 771.070312 413.632812 614.488281 683.140625 540.351562 802.226562 C 540.351562 802.226562 536.210938 804.742188 524.441406 793.550781 "/>
<path style=" stroke:none;fill-rule:nonzero;fill:rgb(52.938843%,59.609985%,61.178589%);fill-opacity:1;" d="M 777.167969 340.089844 C 765.851562 347.105469 754.949219 362.847656 754.949219 362.847656 C 741.078125 352.046875 726.011719 363.019531 726.011719 363.019531 C 693.789062 399.1875 524.441406 793.550781 524.441406 793.550781 C 525.816406 794.859375 527.074219 795.960938 528.242188 796.921875 C 546.515625 751.609375 722.613281 382.054688 722.613281 382.054688 C 739.976562 416.847656 766.046875 408.289062 766.046875 408.289062 C 768.964844 379.929688 745.089844 369.890625 745.089844 369.890625 C 762.894531 381.9375 761.816406 399.304688 761.816406 399.304688 C 722.484375 391.640625 730.359375 362.5 730.359375 362.5 C 764.96875 358.363281 768.355469 388.617188 768.65625 392.960938 C 766.253906 365.054688 772.691406 348.195312 777.167969 340.089844 "/>
<path style=" stroke:none;fill-rule:nonzero;fill:rgb(7.839966%,8.239746%,8.628845%);fill-opacity:1;" d="M 669.277344 726.117188 L 644.894531 692.253906 L 592.464844 726.117188 C 567.824219 603.359375 511.582031 571.042969 511.582031 571.042969 L 545.386719 775.042969 C 545.386719 775.042969 544.347656 811.382812 562.503906 809.980469 C 562.503906 809.980469 583.667969 815 669.277344 726.117188 "/>
<g clip-path="url(#clip1)" clip-rule="nonzero">
<path style=" stroke:none;fill-rule:nonzero;fill:rgb(82.348633%,83.139038%,81.959534%);fill-opacity:1;" d="M 509.933594 861.53125 C 509.933594 861.53125 749.304688 447.351562 789.742188 411.558594 C 789.742188 411.558594 807.859375 401.402344 821.769531 415.175781 C 821.769531 415.175781 837.121094 397.8125 851.058594 392.171875 C 851.058594 392.171875 838.523438 417.417969 841.3125 447.933594 C 841.3125 447.933594 841.3125 467.164062 832.941406 473.507812 C 832.941406 473.507812 624.128906 751.171875 526.414062 873.214844 C 526.414062 873.214844 521.484375 875.457031 509.933594 861.53125 "/>
</g>
<path style=" stroke:none;fill-rule:nonzero;fill:rgb(52.938843%,59.609985%,61.178589%);fill-opacity:1;" d="M 849.382812 392.921875 C 835.914062 399.199219 821.769531 415.175781 821.769531 415.175781 C 807.859375 401.402344 789.742188 411.558594 789.742188 411.558594 C 749.304688 447.351562 509.933594 861.53125 509.933594 861.53125 C 511.28125 863.152344 512.527344 864.539062 513.710938 865.757812 C 539.898438 818.019531 783.460938 432.175781 783.460938 432.175781 C 798.085938 472.976562 828.078125 466.945312 828.078125 466.945312 C 835.03125 435.925781 809.949219 421.6875 809.949219 421.6875 C 828.078125 437.351562 824.585938 456.429688 824.585938 456.429688 C 782.074219 442.785156 794.609375 411.558594 794.609375 411.558594 C 833.460938 411.53125 833.203125 445.46875 832.96875 450.308594 C 834.03125 419.105469 843.335938 401.300781 849.382812 392.921875 "/>
<path style=" stroke:none;fill-rule:nonzero;fill:rgb(82.348633%,83.139038%,81.959534%);fill-opacity:1;" d="M 490.46875 851.648438 C 490.46875 851.648438 670.703125 462.121094 703.925781 426.859375 C 703.925781 426.859375 719.289062 416.316406 732.851562 427.496094 C 732.851562 427.496094 745.167969 410.726562 757.15625 404.554688 C 757.15625 404.554688 747.996094 428.144531 752.964844 455.183594 C 752.964844 455.183594 754.535156 472.367188 747.566406 478.707031 C 747.566406 478.707031 583.539062 743.765625 506.132812 860.738281 C 506.132812 860.738281 501.925781 863.152344 490.46875 851.648438 "/>
<path style=" stroke:none;fill-rule:nonzero;fill:rgb(52.938843%,59.609985%,61.178589%);fill-opacity:1;" d="M 755.703125 405.371094 C 744.191406 412.078125 732.851562 427.496094 732.851562 427.496094 C 719.289062 416.316406 703.925781 426.859375 703.925781 426.859375 C 670.703125 462.121094 490.46875 851.648438 490.46875 851.648438 C 491.816406 852.984375 493.023438 854.125 494.179688 855.109375 C 513.710938 810.332031 699.992188 445.792969 699.992188 445.792969 C 716.382812 481.054688 742.675781 473.234375 742.675781 473.234375 C 746.386719 444.964844 722.808594 434.265625 722.808594 434.265625 C 740.273438 446.804688 738.703125 464.132812 738.703125 464.132812 C 699.605469 455.378906 708.285156 426.472656 708.285156 426.472656 C 742.988281 423.292969 745.53125 453.640625 745.722656 457.984375 C 744.117188 430.011719 750.980469 413.347656 755.703125 405.371094 "/>
<path style=" stroke:none;fill-rule:nonzero;fill:rgb(7.839966%,7.449341%,7.449341%);fill-opacity:1;" d="M 387.808594 397.164062 C 387.808594 397.164062 343.207031 396.839844 348.773438 433.304688 C 353.910156 466.867188 397.996094 496.460938 413.800781 448.039062 L 416.617188 401.402344 L 387.808594 397.164062 "/>
<path style=" stroke:none;fill-rule:nonzero;fill:rgb(93.328857%,54.899597%,42.749023%);fill-opacity:1;" d="M 480.253906 990.925781 C 484.433594 1007.695312 484.902344 1044.539062 487.5625 1053.679688 C 487.5625 1053.679688 483.8125 1142.007812 488.882812 1238.957031 C 488.882812 1238.957031 493.335938 1369.171875 487.25 1397.933594 L 510.492188 1400.917969 C 510.492188 1400.917969 543.777344 1139.167969 541.011719 1052.511719 C 541.011719 1052.511719 541.765625 1008.628906 536.003906 975.324219 L 480.253906 990.925781 "/>
<path style=" stroke:none;fill-rule:nonzero;fill:rgb(93.328857%,54.899597%,42.749023%);fill-opacity:1;" d="M 402.691406 1258.695312 C 402.691406 1258.695312 405.105469 1347.824219 402.628906 1395.730469 C 410.878906 1396.234375 419.015625 1397.351562 426.945312 1399.035156 C 434.808594 1334.597656 457.089844 1143.785156 454.808594 1072.25 C 454.808594 1072.25 455.558594 1028.351562 449.796875 995.050781 L 394.050781 1010.652344 C 398.226562 1027.417969 398.695312 1064.261719 401.34375 1073.429688 C 401.34375 1073.429688 397.59375 1161.730469 402.691406 1258.695312 "/>
<path style=" stroke:none;fill-rule:nonzero;fill:rgb(7.839966%,8.239746%,8.628845%);fill-opacity:1;" d="M 388.792969 873.847656 C 388.792969 873.847656 340.6875 915.492188 374.441406 1024.851562 C 374.441406 1024.851562 402.445312 1135.640625 393.0625 1208.78125 C 393.0625 1208.78125 459.542969 1247.28125 543.828125 1212.308594 C 543.828125 1212.308594 570.289062 942.167969 545.179688 873.214844 L 388.792969 873.847656 "/>
<path style=" stroke:none;fill-rule:nonzero;fill:rgb(5.488586%,5.099487%,5.488586%);fill-opacity:1;" d="M 402.925781 1389.15625 C 402.925781 1389.15625 412.984375 1396.519531 427.917969 1391.035156 C 427.917969 1391.035156 459.738281 1430.886719 485.601562 1442.519531 C 485.601562 1442.519531 490.261719 1447.34375 485.757812 1451.15625 C 485.757812 1451.15625 463.074219 1453.839844 436.898438 1444.621094 C 436.898438 1444.621094 418.171875 1438.875 412.96875 1423.691406 C 412.96875 1423.691406 401.394531 1410.878906 393.167969 1409.722656 C 393.167969 1409.722656 392.671875 1401.953125 402.925781 1389.15625 "/>
<path style=" stroke:none;fill-rule:nonzero;fill:rgb(5.488586%,5.099487%,5.488586%);fill-opacity:1;" d="M 394.242188 1404.339844 C 394.242188 1404.339844 392.324219 1409.605469 394.53125 1419.761719 C 394.53125 1419.761719 400.070312 1440.640625 400.121094 1444.089844 L 406.144531 1445.789062 C 406.144531 1445.789062 404.742188 1429.058594 409.023438 1410.214844 L 394.242188 1404.339844 "/>
<path style=" stroke:none;fill-rule:nonzero;fill:rgb(5.488586%,5.099487%,5.488586%);fill-opacity:1;" d="M 489.054688 1382.773438 C 489.054688 1382.773438 499.097656 1390.140625 514.046875 1384.65625 C 514.046875 1384.65625 545.855469 1424.507812 571.730469 1436.152344 C 571.730469 1436.152344 576.386719 1440.964844 571.871094 1444.777344 C 571.871094 1444.777344 549.1875 1447.460938 523.015625 1438.238281 C 523.015625 1438.238281 504.289062 1432.496094 499.085938 1417.308594 C 499.085938 1417.308594 487.523438 1404.496094 479.292969 1403.355469 C 479.292969 1403.355469 478.816406 1395.574219 489.054688 1382.773438 "/>
<path style=" stroke:none;fill-rule:nonzero;fill:rgb(5.488586%,5.099487%,5.488586%);fill-opacity:1;" d="M 480.371094 1397.949219 C 480.371094 1397.949219 478.453125 1403.226562 480.644531 1413.378906 C 480.644531 1413.378906 486.183594 1434.257812 486.25 1437.707031 L 492.257812 1439.40625 C 492.257812 1439.40625 490.882812 1422.664062 495.140625 1403.835938 L 480.371094 1397.949219 "/>
<path style=" stroke:none;fill-rule:nonzero;fill:rgb(9.799194%,10.5896%,10.978699%);fill-opacity:1;" d="M 551.769531 712.65625 L 560.179688 613.382812 C 547.113281 579.757812 517.628906 555.855469 492.609375 548.269531 L 406 548.621094 C 401.019531 549.191406 396.566406 550.578125 392.558594 552.613281 L 392.503906 552.585938 C 392.503906 552.585938 389.820312 553.300781 384.886719 557.800781 C 383.355469 559.148438 381.929688 560.601562 380.578125 562.195312 C 378.476562 564.53125 376.113281 567.4375 373.519531 571.015625 C 377.644531 595.953125 380.671875 621.113281 383.371094 646.660156 C 384.902344 661.25 385.757812 676.085938 384.34375 689.855469 C 386.796875 695.34375 388.480469 698.3125 388.480469 698.3125 C 408.425781 752.855469 389.558594 831.25 380.34375 863.902344 C 378.488281 870.335938 376.246094 877.015625 373.816406 884.082031 C 373.816406 884.082031 482.835938 923.671875 560.828125 884.105469 C 557.300781 874.535156 554.457031 867.480469 553.976562 863.941406 C 549.070312 830.171875 545.386719 775.042969 551.769531 712.65625 "/>
<path style=" stroke:none;fill-rule:nonzero;fill:rgb(100%,100%,100%);fill-opacity:1;" d="M 519.328125 750.40625 C 519.328125 750.40625 558.621094 585.019531 487.523438 548.449219 L 485.496094 548.308594 L 416.617188 548.582031 C 437.652344 571.40625 514.890625 660.976562 519.328125 750.40625 "/>
<path style=" stroke:none;fill-rule:nonzero;fill:rgb(31.369019%,74.119568%,78.039551%);fill-opacity:1;" d="M 389.507812 387.59375 C 389.507812 387.59375 369.730469 400.484375 393.945312 415.226562 L 405.3125 412.117188 L 389.507812 387.59375 "/>
<path style=" stroke:none;fill-rule:nonzero;fill:rgb(7.839966%,7.449341%,7.449341%);fill-opacity:1;" d="M 560.023438 411.480469 C 560.023438 411.480469 606.496094 293.558594 512.582031 296.839844 L 511.582031 319.042969 C 511.582031 319.042969 560.257812 375.195312 560.023438 411.480469 "/>
<path style=" stroke:none;fill-rule:nonzero;fill:rgb(93.328857%,54.899597%,42.749023%);fill-opacity:1;" d="M 487.523438 548.449219 C 471.160156 537.503906 472.078125 486.980469 472.078125 486.980469 L 445.257812 444.339844 L 424.882812 451.605469 C 436.484375 519.984375 422.792969 554.519531 422.792969 554.519531 C 480.789062 591.347656 498.734375 591.648438 498.734375 591.648438 C 512.074219 575.527344 501.746094 559.433594 501.746094 559.433594 C 501.746094 559.433594 499.292969 556.425781 487.523438 548.449219 "/>
<path style=" stroke:none;fill-rule:nonzero;fill:rgb(93.328857%,59.21936%,43.139648%);fill-opacity:1;" d="M 562.503906 394.195312 C 562.503906 394.195312 549.1875 310.316406 496.722656 318.953125 C 431.589844 329.691406 418.394531 393.597656 418.394531 393.597656 C 418.835938 401.339844 419.378906 408.316406 419.976562 414.695312 C 419.601562 413.761719 419.238281 412.765625 418.71875 411.726562 C 418.71875 411.726562 386.328125 393.816406 390.519531 429.167969 C 393.035156 449.996094 418.976562 465.089844 426.710938 451.605469 C 427.648438 454.613281 429.695312 462.070312 430.773438 464.765625 C 438.625 484.464844 474.792969 512.179688 488.546875 519.402344 C 488.546875 519.402344 497.671875 524.746094 508.335938 520.648438 C 520.871094 515.824219 540.273438 498.457031 555.882812 468.683594 C 564.996094 451.214844 555.910156 430.15625 555.910156 430.15625 C 558.960938 417.667969 559 420.078125 562.503906 394.195312 "/>
<path style=" stroke:none;fill-rule:nonzero;fill:rgb(23.529053%,11.759949%,10.978699%);fill-opacity:1;" d="M 560.140625 410.78125 C 560.570312 408.03125 561.074219 404.582031 561.710938 400.015625 C 561.761719 400.46875 561.789062 400.714844 561.789062 400.714844 L 560.140625 410.78125 "/>
<path style=" stroke:none;fill-rule:nonzero;fill:rgb(86.268616%,48.629761%,36.468506%);fill-opacity:1;" d="M 560.023438 411.480469 C 554.390625 375.222656 525.117188 324.308594 525.117188 324.308594 C 554.808594 355.925781 560.945312 394.386719 561.710938 400.015625 C 561.074219 404.582031 560.570312 408.03125 560.140625 410.78125 L 560.023438 411.480469 "/>
<path style=" stroke:none;fill-rule:nonzero;fill:rgb(7.839966%,7.449341%,7.449341%);fill-opacity:1;" d="M 470.457031 397.164062 C 470.457031 397.164062 493.945312 388.992188 508.855469 396.203125 C 508.855469 396.203125 492.867188 375.261719 470.457031 397.164062 "/>
<path style=" stroke:none;fill-rule:nonzero;fill:rgb(74.899292%,34.118652%,27.839661%);fill-opacity:1;" d="M 418.496094 449.179688 C 418.496094 449.179688 413.96875 448.917969 409.648438 445.820312 C 409.648438 445.820312 415.1875 445.792969 414.589844 441.398438 C 414.589844 441.398438 406.222656 436.09375 409.347656 429.714844 C 409.347656 429.714844 409.375 428.882812 408.867188 428.882812 C 408.3125 428.882812 407.105469 429.90625 404.507812 434.214844 C 404.507812 434.214844 403.847656 423.269531 409.207031 421.738281 C 409.207031 421.738281 409.089844 421.726562 408.882812 421.726562 C 407.144531 421.726562 398.835938 422.140625 398.085938 430.039062 C 398.085938 430.039062 396.4375 415.175781 405.792969 415.175781 C 407.660156 415.175781 409.957031 415.757812 412.800781 417.1875 C 412.800781 417.1875 418.210938 426.277344 418.148438 429.960938 C 418.148438 429.960938 411.164062 438.816406 418.328125 439.828125 C 418.328125 439.828125 423.910156 447.078125 418.496094 449.179688 "/>
<path style=" stroke:none;fill-rule:nonzero;fill:rgb(7.839966%,7.449341%,7.449341%);fill-opacity:1;" d="M 532.8125 396.617188 C 532.8125 396.617188 549.488281 389.472656 561.738281 396.773438 C 561.738281 396.773438 551.058594 374.726562 532.8125 396.617188 "/>
<path style=" stroke:none;fill-rule:nonzero;fill:rgb(92.549133%,48.239136%,39.608765%);fill-opacity:1;" d="M 481.125 446.132812 C 478.761719 446.132812 476.117188 445.859375 473.351562 445.261719 C 464.761719 443.316406 458.21875 438.960938 459 435.601562 C 459.480469 433.253906 463.191406 431.96875 468.238281 431.96875 C 470.613281 431.96875 473.273438 432.242188 476.050781 432.839844 C 484.730469 434.835938 491.167969 439.140625 490.417969 442.511719 C 489.9375 444.835938 486.210938 446.132812 481.125 446.132812 "/>
<path style=" stroke:none;fill-rule:nonzero;fill:rgb(92.549133%,48.239136%,39.608765%);fill-opacity:1;" d="M 543.621094 439.515625 C 540.53125 439.515625 538.25 438.765625 537.964844 437.441406 C 537.574219 435.417969 541.441406 433.035156 546.59375 432.074219 C 548.1875 431.738281 549.707031 431.582031 551.070312 431.582031 C 554.171875 431.582031 556.417969 432.398438 556.742188 433.734375 C 557.167969 435.71875 553.238281 438.089844 548.058594 439.0625 C 546.503906 439.375 544.984375 439.515625 543.621094 439.515625 "/>
<path style=" stroke:none;fill-rule:nonzero;fill:rgb(100%,100%,100%);fill-opacity:1;" d="M 533.863281 468.863281 C 533.863281 468.863281 524.972656 474.375 497.4375 466.945312 C 497.4375 466.945312 519.265625 501.503906 533.863281 468.863281 "/>
<path style=" stroke:none;fill-rule:nonzero;fill:rgb(10.978699%,5.488586%,6.269836%);fill-opacity:1;" d="M 501.25 421.75 C 501.355469 427.289062 498.941406 431.789062 495.867188 431.8125 C 492.789062 431.828125 490.195312 427.339844 490.117188 421.789062 C 490.015625 416.253906 492.414062 411.753906 495.503906 411.738281 C 498.578125 411.726562 501.148438 416.214844 501.25 421.75 "/>
<path style=" stroke:none;fill-rule:nonzero;fill:rgb(10.978699%,5.488586%,6.269836%);fill-opacity:1;" d="M 545.386719 420.078125 C 545.464844 424.796875 543.804688 428.625 541.660156 428.636719 C 539.519531 428.648438 537.71875 424.835938 537.640625 420.105469 C 537.546875 415.398438 539.210938 411.558594 541.351562 411.558594 C 543.492188 411.546875 545.296875 415.371094 545.386719 420.078125 "/>
<path style=" stroke:none;fill-rule:nonzero;fill:rgb(80.778503%,42.349243%,27.059937%);fill-opacity:1;" d="M 527.167969 461.316406 C 527.167969 461.316406 538.535156 458.464844 540.117188 450.917969 C 540.117188 450.917969 529.527344 454.042969 523.261719 452.992188 C 516.980469 451.941406 514.632812 456.402344 515.707031 457.777344 C 516.796875 459.164062 521.457031 463.585938 527.167969 461.316406 "/>
<path style=" stroke:none;fill-rule:nonzero;fill:rgb(7.839966%,7.449341%,7.449341%);fill-opacity:1;" d="M 457.753906 370.136719 C 457.753906 370.136719 565.488281 357.960938 511.050781 289.125 C 511.050781 289.125 437.015625 249.015625 392.195312 318.769531 C 392.195312 318.769531 371.015625 358.996094 383.785156 392.960938 C 386.082031 399.03125 389.441406 404.917969 394.21875 410.3125 C 394.21875 410.3125 408.21875 403.21875 419.976562 414.695312 L 424.414062 425.511719 C 424.414062 425.511719 421.484375 470.421875 436.769531 486.242188 C 436.769531 486.242188 422.78125 464.132812 433.199219 404.683594 C 433.199219 404.683594 453.652344 387.410156 457.753906 370.136719 "/>
<path style=" stroke:none;fill-rule:nonzero;fill:rgb(7.839966%,7.449341%,7.449341%);fill-opacity:1;" d="M 511.050781 289.125 C 511.050781 289.125 507.53125 287.21875 501.589844 284.960938 C 507.390625 293.78125 513.996094 308.785156 502.601562 320.921875 C 485.355469 339.285156 447.449219 351.347656 434.34375 350.554688 C 414.992188 349.363281 390.648438 355.417969 379.734375 368.4375 C 379.683594 376.558594 380.761719 384.921875 383.785156 392.960938 C 386.082031 399.03125 389.441406 404.917969 394.21875 410.3125 C 394.21875 410.3125 408.21875 403.21875 419.976562 414.695312 L 424.414062 425.511719 C 424.414062 425.511719 421.484375 470.421875 436.769531 486.242188 C 436.769531 486.242188 422.78125 464.132812 433.199219 404.683594 C 433.199219 404.683594 453.652344 387.410156 457.753906 370.136719 C 457.753906 370.136719 565.488281 357.960938 511.050781 289.125 "/>
<path style=" stroke:none;fill-rule:nonzero;fill:rgb(12.939453%,14.118958%,14.898682%);fill-opacity:1;" d="M 408.828125 548.621094 L 447.421875 647.800781 L 478.554688 653.429688 L 468.109375 669.121094 C 468.109375 669.121094 513.28125 739.835938 519.820312 777.558594 C 519.820312 777.558594 545.816406 677.886719 424.414062 548.554688 L 408.828125 548.621094 "/>
<path style=" stroke:none;fill-rule:nonzero;fill:rgb(12.939453%,14.118958%,14.898682%);fill-opacity:1;" d="M 512.8125 754.074219 C 512.8125 754.074219 557.261719 586.550781 485.171875 548.308594 L 481.839844 542.121094 C 481.839844 542.121094 512.203125 553.675781 529.851562 568.410156 L 551.679688 642.601562 L 537.355469 649.199219 L 548.8125 660.277344 C 548.8125 660.277344 526.117188 744.816406 512.8125 754.074219 "/>
<path style=" stroke:none;fill-rule:nonzero;fill:rgb(90.979004%,85.099792%,76.858521%);fill-opacity:1;" d="M 574.871094 351.449219 C 574.871094 351.449219 434.175781 362.914062 378.164062 353.773438 C 378.164062 353.773438 372.960938 245.941406 465.734375 243.269531 C 465.734375 243.269531 579.761719 237.214844 574.871094 351.449219 "/>
<path style=" stroke:none;fill-rule:nonzero;fill:rgb(66.268921%,62.348938%,55.288696%);fill-opacity:1;" d="M 436.679688 248.3125 C 436.679688 248.3125 494.503906 247.40625 496.203125 352.046875 L 507.507812 352.332031 L 504.160156 270.621094 L 462.140625 246.070312 C 462.140625 246.070312 445.890625 244.460938 436.679688 248.3125 "/>
<path style=" stroke:none;fill-rule:nonzero;fill:rgb(92.939758%,88.62915%,78.819275%);fill-opacity:1;" d="M 502.9375 351.191406 C 502.9375 351.191406 500.863281 234.957031 436.679688 248.3125 C 436.679688 248.3125 436.261719 244.96875 442.597656 240.324219 C 442.597656 240.324219 477.945312 230.484375 497.878906 245.824219 C 497.878906 245.824219 543 286.675781 543.804688 349.386719 L 502.9375 351.191406 "/>
<path style=" stroke:none;fill-rule:nonzero;fill:rgb(90.979004%,85.099792%,76.858521%);fill-opacity:1;" d="M 575.648438 340.984375 C 575.648438 340.984375 530.164062 313.6875 450.03125 345.730469 C 450.03125 345.730469 404.910156 350.53125 378.125 348.375 C 378.125 348.375 373.351562 357.46875 376.414062 360.203125 C 376.414062 360.203125 423.351562 361.992188 451.914062 359.320312 C 451.914062 359.320312 462.957031 366.183594 484.886719 372.875 C 524.625 385 561.089844 381.550781 581.632812 365.535156 C 590.273438 358.804688 580.890625 347.234375 575.648438 340.984375 "/>
<path style=" stroke:none;fill-rule:nonzero;fill:rgb(96.859741%,93.728638%,89.7995%);fill-opacity:1;" d="M 484.886719 372.875 C 462.957031 366.183594 451.914062 359.320312 451.914062 359.320312 C 423.351562 361.992188 376.414062 360.203125 376.414062 360.203125 C 375.324219 359.230469 375.234375 357.46875 375.558594 355.585938 C 383.121094 357.726562 453.496094 353.472656 453.496094 353.472656 C 486.820312 370.214844 526.867188 373.367188 526.867188 373.367188 C 597.644531 369.410156 579.789062 346.222656 579.789062 346.222656 C 584.332031 352.476562 588.210938 360.398438 581.632812 365.535156 C 561.089844 381.550781 524.625 385 484.886719 372.875 "/>
<path style=" stroke:none;fill-rule:nonzero;fill:rgb(59.21936%,66.668701%,72.549438%);fill-opacity:1;" d="M 617.773438 608.960938 L 666.539062 607.3125 L 657.144531 580.597656 C 657.144531 580.597656 647.941406 572.609375 632.511719 577.019531 C 617.082031 581.441406 618.941406 592.207031 617.773438 608.960938 "/>
<path style=" stroke:none;fill-rule:nonzero;fill:rgb(76.858521%,45.878601%,27.059937%);fill-opacity:1;" d="M 689.042969 760.648438 L 589.132812 764.398438 L 583.488281 760.765625 L 608.648438 595.886719 L 714.203125 595.773438 L 719.847656 599.402344 L 689.042969 760.648438 "/>
<path style=" stroke:none;fill-rule:nonzero;fill:rgb(60.778809%,35.289001%,18.429565%);fill-opacity:1;" d="M 694.671875 764.28125 L 589.132812 764.398438 L 614.308594 599.53125 L 719.847656 599.402344 L 694.671875 764.28125 "/>
<path style=" stroke:none;fill-rule:nonzero;fill:rgb(33.329773%,35.688782%,39.219666%);fill-opacity:1;" d="M 641.480469 603.359375 L 695.800781 603.292969 C 695.800781 603.292969 699.074219 591.324219 690.636719 586.941406 C 690.636719 586.941406 645.035156 572.636719 641.480469 603.359375 "/>
<path style=" stroke:none;fill-rule:nonzero;fill:rgb(82.749939%,86.669922%,89.408875%);fill-opacity:1;" d="M 619.820312 595.863281 C 619.820312 595.863281 625.46875 567.863281 644.804688 579.015625 C 644.804688 579.015625 656.742188 582.996094 650.070312 616.105469 C 650.070312 616.105469 647.867188 622.484375 655.09375 625.675781 L 749.929688 625.574219 C 749.929688 625.574219 743.453125 620.398438 746.4375 612.8125 C 749.421875 605.226562 749.304688 584.488281 738.832031 578.914062 L 629.984375 573.441406 C 629.984375 573.441406 618.617188 578.796875 617.433594 595.863281 L 619.820312 595.863281 "/>
<path style=" stroke:none;fill-rule:nonzero;fill:rgb(93.328857%,59.21936%,43.139648%);fill-opacity:1;" d="M 545.890625 746.136719 L 575.324219 728.5 C 575.324219 728.5 595.074219 734.53125 621.09375 717.972656 C 621.09375 717.972656 629.230469 711.085938 621.457031 713.042969 C 621.457031 713.042969 631.308594 708.078125 630.851562 701.101562 C 630.851562 701.101562 631.085938 699.011719 625.273438 702.5 C 625.273438 702.5 630.851562 697.390625 628.296875 695.070312 C 628.296875 695.070312 621.792969 697.15625 619.707031 697.390625 C 619.707031 697.390625 627.246094 693.929688 623.921875 692.410156 C 623.921875 692.410156 622.445312 691.566406 612.699219 693.902344 C 612.699219 693.902344 595.503906 698.546875 592.882812 699.296875 L 593.921875 692.371094 C 593.921875 692.371094 579.710938 692.371094 571.121094 707.597656 C 571.121094 707.597656 537.183594 716.46875 535.328125 716.933594 L 545.890625 746.136719 "/>
<path style=" stroke:none;fill-rule:nonzero;fill:rgb(100%,100%,100%);fill-opacity:1;" d="M 539.988281 752.648438 L 573.234375 737.617188 C 573.234375 737.617188 575.492188 726.441406 562.191406 700.464844 L 527.671875 713.859375 L 539.988281 752.648438 "/>
<path style=" stroke:none;fill-rule:nonzero;fill:rgb(7.839966%,8.239746%,8.628845%);fill-opacity:1;" d="M 384.886719 557.800781 C 384.886719 557.800781 436.03125 681.828125 453.054688 740.339844 C 453.054688 740.339844 527.347656 712.941406 546.945312 704.589844 C 546.945312 704.589844 561.671875 724.46875 559.273438 747.304688 C 559.273438 747.304688 470.457031 810.914062 425.023438 788.027344 C 385.742188 768.234375 339.480469 572.546875 373.519531 563.429688 C 373.519531 563.429688 377.28125 563.015625 384.886719 557.800781 "/>
<path style=" stroke:none;fill-rule:nonzero;fill:rgb(61.178589%,63.529968%,57.249451%);fill-opacity:1;" d="M 832.96875 450.308594 L 832.941406 450.917969 C 832.941406 450.917969 832.957031 450.683594 832.96875 450.308594 "/>
</g>
</svg>
