<?xml version="1.0" encoding="UTF-8"?>
<svg xmlns="http://www.w3.org/2000/svg" xmlns:xlink="http://www.w3.org/1999/xlink" width="1190.25pt" height="1683.749945pt" viewBox="0 0 1190.25 1683.749945" version="1.2">
<defs>
<clipPath id="clip1">
  <path d="M 149 828 L 713 828 L 713 1683.09375 L 149 1683.09375 Z M 149 828 "/>
</clipPath>
<clipPath id="clip2">
  <path d="M 784 893 L 1129.9375 893 L 1129.9375 1030 L 784 1030 Z M 784 893 "/>
</clipPath>
</defs>
<g id="surface1">
<path style=" stroke:none;fill-rule:nonzero;fill:rgb(5.488586%,5.488586%,5.879211%);fill-opacity:1;" d="M 919.796875 1291.625 L 856.3125 1203.417969 L 719.742188 1291.625 C 655.546875 971.855469 509.101562 887.664062 509.101562 887.664062 L 597.132812 1419.03125 C 597.132812 1419.03125 594.464844 1513.710938 641.707031 1510.066406 C 641.707031 1510.066406 696.832031 1523.117188 919.796875 1291.625 "/>
<path style=" stroke:none;fill-rule:nonzero;fill:rgb(7.839966%,7.449341%,7.449341%);fill-opacity:1;" d="M 186.71875 434.761719 C 186.71875 434.761719 70.53125 433.925781 85.046875 528.925781 C 98.421875 616.316406 213.222656 693.398438 254.402344 567.269531 L 261.765625 445.800781 L 186.71875 434.761719 "/>
<g clip-path="url(#clip1)" clip-rule="nonzero">
<path style=" stroke:none;fill-rule:nonzero;fill:rgb(9.799194%,10.5896%,10.978699%);fill-opacity:1;" d="M 711.984375 1156.824219 C 703.804688 1097.714844 656.773438 1009.0625 619.613281 963.980469 C 581.050781 894.402344 516.054688 845.480469 459.667969 828.378906 L 234.070312 829.285156 C 221.101562 830.761719 209.507812 834.386719 199.066406 839.667969 L 198.941406 839.59375 C 198.941406 839.59375 191.933594 841.460938 179.125 853.195312 C 175.140625 856.695312 171.386719 860.484375 167.902344 864.644531 C 162.421875 870.703125 156.25 878.277344 149.492188 887.609375 C 160.234375 952.585938 168.097656 1018.109375 175.140625 1084.613281 C 179.160156 1122.65625 181.367188 1161.285156 177.703125 1197.140625 C 184.050781 1211.453125 188.464844 1219.203125 188.464844 1219.203125 C 240.4375 1361.257812 191.257812 1565.460938 167.277344 1650.503906 C 164.183594 1661.242188 160.574219 1672.40625 156.765625 1683.785156 L 630.144531 1683.785156 C 624.507812 1668.65625 620.414062 1657.242188 619.492188 1650.59375 C 607.074219 1565.140625 586.015625 1385.738281 652.414062 1259.804688 C 682.726562 1235.84375 717.765625 1198.511719 711.984375 1156.824219 "/>
</g>
<path style=" stroke:none;fill-rule:nonzero;fill:rgb(100%,100%,100%);fill-opacity:1;" d="M 529.273438 1354.859375 C 529.273438 1354.859375 631.605469 924.089844 446.398438 828.824219 L 441.136719 828.429688 L 261.765625 829.179688 C 316.550781 888.625 517.710938 1121.945312 529.273438 1354.859375 "/>
<path style=" stroke:none;fill-rule:nonzero;fill:rgb(31.369019%,74.119568%,78.039551%);fill-opacity:1;" d="M 191.132812 409.820312 C 191.132812 409.820312 139.617188 443.4375 202.695312 481.800781 L 232.292969 473.710938 L 191.132812 409.820312 "/>
<path style=" stroke:none;fill-rule:nonzero;fill:rgb(7.839966%,7.449341%,7.449341%);fill-opacity:1;" d="M 635.285156 472.058594 C 635.285156 472.058594 756.328125 164.925781 511.679688 173.460938 L 509.101562 231.289062 C 509.101562 231.289062 635.855469 377.554688 635.285156 472.058594 "/>
<path style=" stroke:none;fill-rule:nonzero;fill:rgb(93.328857%,54.899597%,42.749023%);fill-opacity:1;" d="M 446.398438 828.824219 C 403.816406 800.34375 406.199219 668.722656 406.199219 668.722656 L 336.347656 557.671875 L 283.289062 576.585938 C 313.472656 754.691406 277.828125 844.644531 277.828125 844.644531 C 428.878906 940.566406 475.625 941.351562 475.625 941.351562 C 510.398438 899.378906 483.46875 857.460938 483.46875 857.460938 C 483.46875 857.460938 477.066406 849.601562 446.398438 828.824219 "/>
<path style=" stroke:none;fill-rule:nonzero;fill:rgb(93.328857%,59.21936%,43.139648%);fill-opacity:1;" d="M 641.707031 427.027344 C 641.707031 427.027344 607.039062 208.570312 470.394531 231.039062 C 300.738281 259.019531 266.355469 425.484375 266.355469 425.484375 C 267.546875 445.640625 268.933594 463.828125 270.480469 480.449219 C 269.503906 477.976562 268.578125 475.398438 267.207031 472.699219 C 267.207031 472.699219 182.824219 426.070312 193.78125 518.152344 C 200.328125 572.371094 267.882812 611.695312 288.039062 576.566406 C 290.492188 584.40625 295.792969 603.839844 298.605469 610.84375 C 319.058594 662.183594 413.28125 734.355469 449.105469 753.144531 C 449.105469 753.144531 472.886719 767.082031 500.617188 756.398438 C 533.257812 743.832031 583.789062 698.605469 624.488281 621.0625 C 648.21875 575.574219 624.542969 520.695312 624.542969 520.695312 C 632.457031 488.179688 632.601562 494.476562 641.707031 427.027344 "/>
<path style=" stroke:none;fill-rule:nonzero;fill:rgb(7.839966%,7.449341%,7.449341%);fill-opacity:1;" d="M 402.003906 434.761719 C 402.003906 434.761719 463.15625 413.484375 501.984375 432.253906 C 501.984375 432.253906 460.34375 377.699219 402.003906 434.761719 "/>
<path style=" stroke:none;fill-rule:nonzero;fill:rgb(74.899292%,34.118652%,27.839661%);fill-opacity:1;" d="M 266.640625 570.257812 C 266.640625 570.257812 254.863281 569.582031 243.570312 561.492188 C 243.570312 561.492188 258.046875 561.421875 256.445312 549.992188 C 256.445312 549.992188 234.65625 536.179688 242.820312 519.558594 C 242.820312 519.558594 242.875 517.40625 241.578125 517.40625 C 240.117188 517.40625 236.96875 520.054688 230.191406 531.273438 C 230.191406 531.273438 228.503906 502.742188 242.429688 498.757812 C 242.429688 498.757812 242.144531 498.742188 241.59375 498.742188 C 237.058594 498.742188 215.429688 499.824219 213.472656 520.410156 C 213.472656 520.410156 209.167969 481.691406 233.535156 481.691406 C 238.410156 481.691406 244.40625 483.222656 251.804688 486.917969 C 251.804688 486.917969 265.890625 510.597656 265.730469 520.199219 C 265.730469 520.199219 247.570312 543.273438 266.195312 545.902344 C 266.195312 545.902344 280.746094 564.78125 266.640625 570.257812 "/>
<path style=" stroke:none;fill-rule:nonzero;fill:rgb(7.839966%,7.449341%,7.449341%);fill-opacity:1;" d="M 564.367188 433.359375 C 564.367188 433.359375 607.804688 414.726562 639.695312 433.765625 C 639.695312 433.765625 611.859375 376.328125 564.367188 433.359375 "/>
<path style=" stroke:none;fill-rule:nonzero;fill:rgb(92.549133%,48.239136%,39.608765%);fill-opacity:1;" d="M 429.769531 562.328125 C 423.613281 562.328125 416.710938 561.601562 409.507812 560.070312 C 387.132812 555.003906 370.089844 543.628906 372.136719 534.882812 C 373.398438 528.765625 383.058594 525.40625 396.222656 525.40625 C 402.375 525.40625 409.3125 526.152344 416.515625 527.683594 C 439.160156 532.890625 455.933594 544.125 453.941406 552.871094 C 452.695312 558.933594 443.019531 562.328125 429.769531 562.328125 "/>
<path style=" stroke:none;fill-rule:nonzero;fill:rgb(92.549133%,48.239136%,39.608765%);fill-opacity:1;" d="M 592.507812 545.085938 C 584.449219 545.085938 578.527344 543.113281 577.8125 539.699219 C 576.765625 534.4375 586.851562 528.234375 600.296875 525.707031 C 604.441406 524.835938 608.410156 524.429688 611.949219 524.429688 C 620.007812 524.429688 625.875 526.542969 626.730469 530.046875 C 627.816406 535.203125 617.585938 541.386719 604.105469 543.914062 C 600.011719 544.710938 596.046875 545.085938 592.507812 545.085938 "/>
<path style=" stroke:none;fill-rule:nonzero;fill:rgb(100%,100%,100%);fill-opacity:1;" d="M 567.125 621.542969 C 567.125 621.542969 543.964844 635.90625 472.246094 616.53125 C 472.246094 616.53125 529.058594 706.570312 567.125 621.542969 "/>
<path style=" stroke:none;fill-rule:nonzero;fill:rgb(10.978699%,5.488586%,6.269836%);fill-opacity:1;" d="M 482.1875 498.8125 C 482.457031 513.246094 476.160156 524.980469 468.152344 525.015625 C 460.148438 525.050781 453.410156 513.355469 453.175781 498.9375 C 452.910156 484.484375 459.1875 472.785156 467.210938 472.75 C 475.214844 472.714844 481.921875 484.394531 482.1875 498.8125 "/>
<path style=" stroke:none;fill-rule:nonzero;fill:rgb(10.978699%,5.488586%,6.269836%);fill-opacity:1;" d="M 597.132812 494.476562 C 597.34375 506.742188 593.003906 516.695312 587.4375 516.75 C 581.851562 516.765625 577.15625 506.828125 576.925781 494.527344 C 576.710938 482.261719 581.050781 472.289062 586.617188 472.269531 C 592.203125 472.234375 596.882812 482.171875 597.132812 494.476562 "/>
<path style=" stroke:none;fill-rule:nonzero;fill:rgb(80.778503%,42.349243%,27.059937%);fill-opacity:1;" d="M 549.675781 601.847656 C 549.675781 601.847656 579.308594 594.433594 583.417969 574.789062 C 583.417969 574.789062 555.847656 582.914062 539.5 580.175781 C 523.152344 577.4375 517.035156 589.082031 519.84375 592.675781 C 522.671875 596.265625 534.804688 607.785156 549.675781 601.847656 "/>
<path style=" stroke:none;fill-rule:nonzero;fill:rgb(7.839966%,7.449341%,7.449341%);fill-opacity:1;" d="M 368.882812 364.367188 C 368.882812 364.367188 649.480469 332.632812 507.679688 153.335938 C 507.679688 153.335938 314.863281 48.898438 198.15625 230.59375 C 198.15625 230.59375 142.980469 335.355469 176.242188 423.828125 C 182.21875 439.632812 190.953125 454.957031 203.40625 469.035156 C 203.40625 469.035156 239.871094 450.546875 270.480469 480.449219 L 282.0625 508.605469 C 282.0625 508.605469 274.429688 625.578125 314.257812 666.785156 C 314.257812 666.785156 277.792969 609.207031 304.9375 454.351562 C 304.9375 454.351562 358.191406 409.375 368.882812 364.367188 "/>
<path style=" stroke:none;fill-rule:nonzero;fill:rgb(7.839966%,7.449341%,7.449341%);fill-opacity:1;" d="M 507.679688 153.335938 C 507.679688 153.335938 498.535156 148.394531 483.058594 142.527344 C 498.179688 165.476562 515.363281 204.570312 485.691406 236.160156 C 440.777344 284.015625 342.058594 315.445312 307.90625 313.363281 C 257.515625 310.269531 194.085938 326.039062 165.695312 359.9375 C 165.554688 381.074219 168.382812 402.886719 176.242188 423.828125 C 182.21875 439.632812 190.953125 454.957031 203.40625 469.035156 C 203.40625 469.035156 239.871094 450.546875 270.480469 480.449219 L 282.0625 508.605469 C 282.0625 508.605469 274.429688 625.578125 314.257812 666.785156 C 314.257812 666.785156 277.792969 609.207031 304.9375 454.351562 C 304.9375 454.351562 358.191406 409.375 368.882812 364.367188 C 368.882812 364.367188 649.480469 332.632812 507.679688 153.335938 "/>
<path style=" stroke:none;fill-rule:nonzero;fill:rgb(12.939453%,14.118958%,14.898682%);fill-opacity:1;" d="M 241.453125 829.265625 L 341.988281 1087.617188 L 423.0625 1102.25 L 395.867188 1143.136719 C 395.867188 1143.136719 513.511719 1327.339844 530.554688 1425.609375 C 530.554688 1425.609375 598.253906 1165.980469 282.0625 829.105469 L 241.453125 829.265625 "/>
<path style=" stroke:none;fill-rule:nonzero;fill:rgb(12.939453%,14.118958%,14.898682%);fill-opacity:1;" d="M 512.320312 1364.421875 C 512.320312 1364.421875 628.0625 928.089844 440.300781 828.429688 L 431.617188 812.359375 C 431.617188 812.359375 510.667969 842.4375 556.648438 880.835938 L 613.53125 1074.089844 L 576.195312 1091.28125 L 606.0625 1120.113281 C 606.0625 1120.113281 546.933594 1340.316406 512.320312 1364.421875 "/>
<path style=" stroke:none;fill-rule:nonzero;fill:rgb(90.979004%,85.099792%,76.858521%);fill-opacity:1;" d="M 673.9375 315.691406 C 673.9375 315.691406 307.480469 345.558594 161.585938 321.753906 C 161.585938 321.753906 148.050781 40.878906 389.675781 33.910156 C 389.675781 33.910156 686.65625 18.144531 673.9375 315.691406 "/>
<path style=" stroke:none;fill-rule:nonzero;fill:rgb(92.939758%,88.62915%,78.819275%);fill-opacity:1;" d="M 486.5625 315.015625 C 486.5625 315.015625 481.191406 12.277344 313.988281 47.046875 C 313.988281 47.046875 312.921875 38.320312 329.429688 26.25 C 329.429688 26.25 421.460938 0.597656 473.402344 40.558594 C 473.402344 40.558594 590.941406 146.988281 593.023438 310.324219 L 486.5625 315.015625 "/>
<path style=" stroke:none;fill-rule:nonzero;fill:rgb(79.219055%,75.689697%,68.629456%);fill-opacity:1;" d="M 675.949219 288.441406 C 675.949219 288.441406 557.484375 217.332031 348.765625 300.832031 C 348.765625 300.832031 231.242188 313.308594 161.496094 307.675781 C 161.496094 307.675781 149.027344 331.371094 157.03125 338.5 C 157.03125 338.5 279.304688 343.175781 353.671875 336.1875 C 353.671875 336.1875 382.4375 354.054688 439.550781 371.492188 C 543.039062 403.101562 638.023438 394.105469 691.511719 352.382812 C 714.03125 334.855469 689.625 304.722656 675.949219 288.441406 "/>
<path style=" stroke:none;fill-rule:nonzero;fill:rgb(96.859741%,93.728638%,89.7995%);fill-opacity:1;" d="M 439.550781 371.492188 C 382.4375 354.054688 353.671875 336.1875 353.671875 336.1875 C 279.304688 343.175781 157.03125 338.5 157.03125 338.5 C 154.1875 335.976562 153.957031 331.355469 154.808594 326.484375 L 154.808594 326.464844 C 174.5 332.066406 357.78125 320.988281 357.78125 320.988281 C 444.605469 364.578125 548.875 372.773438 548.875 372.773438 C 733.242188 362.5 686.746094 302.074219 686.746094 302.074219 C 698.574219 318.359375 708.695312 339.015625 691.511719 352.382812 C 638.023438 394.105469 543.039062 403.101562 439.550781 371.492188 "/>
<path style=" stroke:none;fill-rule:nonzero;fill:rgb(59.21936%,66.668701%,72.549438%);fill-opacity:1;" d="M 785.660156 986.449219 L 912.683594 982.148438 L 888.207031 912.570312 C 888.207031 912.570312 864.246094 891.769531 824.066406 903.253906 C 783.882812 914.773438 788.722656 942.808594 785.660156 986.449219 "/>
<path style=" stroke:none;fill-rule:nonzero;fill:rgb(76.858521%,45.878601%,27.059937%);fill-opacity:1;" d="M 971.292969 1381.542969 L 711.078125 1391.320312 L 696.367188 1381.859375 L 761.898438 952.390625 L 1036.820312 952.070312 L 1051.53125 961.5625 L 971.292969 1381.542969 "/>
<path style=" stroke:none;fill-rule:nonzero;fill:rgb(60.778809%,35.289001%,18.429565%);fill-opacity:1;" d="M 985.964844 1391.015625 L 711.078125 1391.320312 L 776.644531 961.863281 L 1051.53125 961.5625 L 985.964844 1391.015625 "/>
<path style=" stroke:none;fill-rule:nonzero;fill:rgb(33.329773%,35.688782%,39.219666%);fill-opacity:1;" d="M 847.402344 971.855469 L 988.902344 971.675781 C 988.902344 971.675781 997.421875 940.496094 975.417969 929.101562 C 975.417969 929.101562 856.667969 891.824219 847.402344 971.855469 "/>
<g clip-path="url(#clip2)" clip-rule="nonzero">
<path style=" stroke:none;fill-rule:nonzero;fill:rgb(82.749939%,86.669922%,89.408875%);fill-opacity:1;" d="M 791.03125 952.335938 C 791.03125 952.335938 805.707031 879.398438 856.0625 908.445312 C 856.0625 908.445312 887.15625 918.808594 869.777344 1005.0625 C 869.777344 1005.0625 864.070312 1021.683594 882.886719 1029.984375 L 1129.886719 1029.71875 C 1129.886719 1029.71875 1113.003906 1016.226562 1120.796875 996.476562 C 1128.550781 976.707031 1128.25 922.703125 1100.980469 908.179688 L 817.464844 893.9375 C 817.464844 893.9375 787.847656 907.875 784.808594 952.355469 L 791.03125 952.335938 "/>
</g>
<path style=" stroke:none;fill-rule:nonzero;fill:rgb(93.328857%,59.21936%,43.139648%);fill-opacity:1;" d="M 598.449219 1343.765625 L 675.113281 1297.8125 C 675.113281 1297.8125 726.554688 1313.527344 794.304688 1270.382812 C 794.304688 1270.382812 815.507812 1252.464844 795.265625 1257.566406 C 795.265625 1257.566406 820.933594 1244.605469 819.722656 1226.4375 C 819.722656 1226.4375 820.328125 1221 805.191406 1230.082031 C 805.191406 1230.082031 819.722656 1216.785156 813.070312 1210.722656 C 813.070312 1210.722656 796.136719 1216.179688 790.695312 1216.785156 C 790.695312 1216.785156 810.332031 1207.773438 801.707031 1203.808594 C 801.707031 1203.808594 797.863281 1201.605469 772.445312 1207.699219 C 772.445312 1207.699219 727.65625 1219.808594 720.808594 1221.761719 L 723.546875 1203.71875 C 723.546875 1203.71875 686.53125 1203.71875 664.136719 1243.378906 C 664.136719 1243.378906 575.769531 1266.488281 570.949219 1267.699219 L 598.449219 1343.765625 "/>
<path style=" stroke:none;fill-rule:nonzero;fill:rgb(100%,100%,100%);fill-opacity:1;" d="M 583.0625 1360.6875 L 669.652344 1321.5625 C 669.652344 1321.5625 675.558594 1292.460938 640.890625 1224.800781 L 550.992188 1259.699219 L 583.0625 1360.6875 "/>
<path style=" stroke:none;fill-rule:nonzero;fill:rgb(5.488586%,5.488586%,5.879211%);fill-opacity:1;" d="M 179.125 853.195312 C 179.125 853.195312 312.300781 1176.253906 356.644531 1328.65625 C 356.644531 1328.65625 550.136719 1257.28125 601.1875 1235.539062 C 601.1875 1235.539062 639.554688 1287.304688 633.277344 1346.804688 C 633.277344 1346.804688 402.003906 1512.503906 283.644531 1452.863281 C 181.332031 1401.308594 60.855469 891.59375 149.492188 867.824219 C 149.492188 867.824219 159.308594 866.757812 179.125 853.195312 "/>
</g>
</svg>
