<?xml version="1.0" encoding="UTF-8"?>
<svg xmlns="http://www.w3.org/2000/svg" xmlns:xlink="http://www.w3.org/1999/xlink" width="1190.25pt" height="1683.749945pt" viewBox="0 0 1190.25 1683.749945" version="1.2">
<defs>
<clipPath id="clip1">
  <path d="M 357.292969 718.609375 L 833.074219 718.609375 L 833.074219 1006.203125 L 357.292969 1006.203125 Z M 357.292969 718.609375 "/>
</clipPath>
<clipPath id="clip2">
  <path d="M 752 677.855469 L 793 677.855469 L 793 966 L 752 966 Z M 752 677.855469 "/>
</clipPath>
<clipPath id="clip3">
  <path d="M 792 677.855469 L 833.238281 677.855469 L 833.238281 966 L 792 966 Z M 792 677.855469 "/>
</clipPath>
</defs>
<g id="surface1">
<g clip-path="url(#clip1)" clip-rule="nonzero">
<path style=" stroke:none;fill-rule:nonzero;fill:rgb(31.369019%,59.21936%,84.709167%);fill-opacity:1;" d="M 792.816406 925.761719 C 770.582031 925.761719 752.558594 943.777344 752.558594 965.996094 L 752.558594 718.863281 L 357.292969 718.863281 L 357.292969 1006.226562 L 792.816406 1006.226562 C 815.046875 1006.226562 833.074219 988.214844 833.074219 965.996094 C 833.074219 943.777344 815.046875 925.761719 792.816406 925.761719 "/>
</g>
<g clip-path="url(#clip2)" clip-rule="nonzero">
<path style=" stroke:none;fill-rule:nonzero;fill:rgb(49.01886%,75.289917%,89.019775%);fill-opacity:1;" d="M 752.558594 718.085938 L 752.558594 965.996094 C 752.558594 943.777344 770.582031 925.761719 792.816406 925.761719 L 792.816406 677.851562 C 770.582031 677.851562 752.558594 695.867188 752.558594 718.085938 "/>
</g>
<g clip-path="url(#clip3)" clip-rule="nonzero">
<path style=" stroke:none;fill-rule:nonzero;fill:rgb(24.308777%,49.409485%,75.289917%);fill-opacity:1;" d="M 792.816406 677.851562 L 792.816406 925.761719 C 815.046875 925.761719 833.074219 943.777344 833.074219 965.996094 L 833.074219 718.085938 C 833.074219 695.867188 815.046875 677.851562 792.816406 677.851562 "/>
</g>
<path style=" stroke:none;fill-rule:nonzero;fill:rgb(49.01886%,75.289917%,89.019775%);fill-opacity:1;" d="M 718.019531 981.929688 L 717.964844 967.167969 L 732.738281 967.167969 L 732.789062 981.929688 Z M 717.902344 951.253906 L 732.671875 951.253906 L 732.730469 966.015625 L 717.960938 966.015625 Z M 717.839844 935.34375 L 732.613281 935.34375 L 732.671875 950.105469 L 717.898438 950.105469 Z M 717.78125 919.433594 L 732.550781 919.433594 L 732.609375 934.195312 L 717.835938 934.195312 Z M 717.71875 903.519531 L 732.488281 903.519531 L 732.546875 918.28125 L 717.777344 918.28125 Z M 717.65625 887.609375 L 732.429688 887.609375 L 732.484375 902.371094 L 717.714844 902.371094 Z M 717.597656 871.695312 L 732.367188 871.695312 L 732.425781 886.460938 L 717.652344 886.460938 Z M 717.535156 855.789062 L 732.308594 855.789062 L 732.363281 870.546875 L 717.589844 870.546875 Z M 717.472656 839.875 L 732.246094 839.875 L 732.300781 854.636719 L 717.53125 854.636719 Z M 717.414062 823.964844 L 732.183594 823.964844 L 732.242188 838.726562 L 717.46875 838.726562 Z M 717.351562 808.050781 L 732.125 808.050781 L 732.183594 822.816406 L 717.40625 822.816406 Z M 717.289062 792.140625 L 732.0625 792.140625 L 732.117188 806.902344 L 717.347656 806.902344 Z M 717.230469 776.230469 L 732 776.230469 L 732.058594 790.992188 L 717.289062 790.992188 Z M 717.167969 760.316406 L 731.941406 760.316406 L 731.996094 775.078125 L 717.222656 775.078125 Z M 717.105469 744.40625 L 731.878906 744.40625 L 731.933594 759.167969 L 717.164062 759.167969 Z M 702.101562 981.929688 L 702.042969 967.167969 L 716.816406 967.167969 L 716.871094 981.929688 Z M 701.980469 951.253906 L 716.753906 951.253906 L 716.808594 966.015625 L 702.035156 966.015625 Z M 701.921875 935.34375 L 716.691406 935.34375 L 716.746094 950.105469 L 701.976562 950.105469 Z M 701.859375 919.433594 L 716.628906 919.433594 L 716.6875 934.195312 L 701.914062 934.195312 Z M 701.796875 903.519531 L 716.570312 903.519531 L 716.625 918.28125 L 701.855469 918.28125 Z M 701.738281 887.609375 L 716.507812 887.609375 L 716.566406 902.371094 L 701.792969 902.371094 Z M 701.675781 871.695312 L 716.445312 871.695312 L 716.503906 886.460938 L 701.730469 886.460938 Z M 701.613281 855.789062 L 716.382812 855.789062 L 716.441406 870.546875 L 701.671875 870.546875 Z M 701.550781 839.875 L 716.324219 839.875 L 716.378906 854.636719 L 701.609375 854.636719 Z M 701.492188 823.964844 L 716.261719 823.964844 L 716.320312 838.726562 L 701.546875 838.726562 Z M 701.429688 808.050781 L 716.203125 808.050781 L 716.257812 822.816406 L 701.488281 822.816406 Z M 701.367188 792.140625 L 716.140625 792.140625 L 716.195312 806.902344 L 701.425781 806.902344 Z M 701.308594 776.230469 L 716.078125 776.230469 L 716.136719 790.992188 L 701.363281 790.992188 Z M 701.25 760.316406 L 716.019531 760.316406 L 716.078125 775.078125 L 701.304688 775.078125 Z M 701.183594 744.40625 L 715.953125 744.40625 L 716.011719 759.167969 L 701.242188 759.167969 Z M 686.179688 981.929688 L 686.121094 967.167969 L 700.890625 967.167969 L 700.949219 981.929688 Z M 686.058594 951.253906 L 700.832031 951.253906 L 700.886719 966.015625 L 686.117188 966.015625 Z M 685.996094 935.34375 L 700.769531 935.34375 L 700.824219 950.105469 L 686.054688 950.105469 Z M 685.9375 919.433594 L 700.707031 919.433594 L 700.765625 934.195312 L 685.996094 934.195312 Z M 685.875 903.519531 L 700.648438 903.519531 L 700.703125 918.28125 L 685.933594 918.28125 Z M 685.816406 887.609375 L 700.585938 887.609375 L 700.644531 902.371094 L 685.871094 902.371094 Z M 685.753906 871.695312 L 700.523438 871.695312 L 700.582031 886.460938 L 685.808594 886.460938 Z M 685.695312 855.789062 L 700.464844 855.789062 L 700.519531 870.546875 L 685.75 870.546875 Z M 685.632812 839.875 L 700.402344 839.875 L 700.460938 854.636719 L 685.6875 854.636719 Z M 685.570312 823.964844 L 700.339844 823.964844 L 700.398438 838.726562 L 685.628906 838.726562 Z M 685.507812 808.050781 L 700.277344 808.050781 L 700.335938 822.816406 L 685.566406 822.816406 Z M 685.445312 792.140625 L 700.21875 792.140625 L 700.273438 806.902344 L 685.503906 806.902344 Z M 685.386719 776.230469 L 700.15625 776.230469 L 700.214844 790.992188 L 685.445312 790.992188 Z M 685.324219 760.316406 L 700.097656 760.316406 L 700.152344 775.078125 L 685.382812 775.078125 Z M 685.265625 744.40625 L 700.035156 744.40625 L 700.089844 759.167969 L 685.316406 759.167969 Z M 670.257812 981.929688 L 670.199219 967.167969 L 684.96875 967.167969 L 685.027344 981.929688 Z M 670.140625 951.253906 L 684.910156 951.253906 L 684.964844 966.015625 L 670.195312 966.015625 Z M 670.078125 935.34375 L 684.847656 935.34375 L 684.902344 950.105469 L 670.132812 950.105469 Z M 670.015625 919.433594 L 684.785156 919.433594 L 684.84375 934.195312 L 670.074219 934.195312 Z M 669.953125 903.519531 L 684.726562 903.519531 L 684.785156 918.28125 L 670.011719 918.28125 Z M 669.890625 887.609375 L 684.664062 887.609375 L 684.722656 902.371094 L 669.949219 902.371094 Z M 669.832031 871.695312 L 684.601562 871.695312 L 684.660156 886.460938 L 669.890625 886.460938 Z M 669.769531 855.789062 L 684.542969 855.789062 L 684.597656 870.546875 L 669.828125 870.546875 Z M 669.710938 839.875 L 684.480469 839.875 L 684.539062 854.636719 L 669.765625 854.636719 Z M 669.648438 823.964844 L 684.417969 823.964844 L 684.476562 838.726562 L 669.703125 838.726562 Z M 669.585938 808.050781 L 684.359375 808.050781 L 684.414062 822.816406 L 669.644531 822.816406 Z M 669.523438 792.140625 L 684.296875 792.140625 L 684.355469 806.902344 L 669.582031 806.902344 Z M 669.460938 776.230469 L 684.234375 776.230469 L 684.292969 790.992188 L 669.519531 790.992188 Z M 669.402344 760.316406 L 684.171875 760.316406 L 684.230469 775.078125 L 669.460938 775.078125 Z M 669.339844 744.40625 L 684.113281 744.40625 L 684.167969 759.167969 L 669.394531 759.167969 Z M 654.332031 981.929688 L 654.277344 967.167969 L 669.046875 967.167969 L 669.105469 981.929688 Z M 654.214844 951.253906 L 668.988281 951.253906 L 669.046875 966.015625 L 654.273438 966.015625 Z M 654.152344 935.34375 L 668.925781 935.34375 L 668.980469 950.105469 L 654.210938 950.105469 Z M 654.09375 919.433594 L 668.863281 919.433594 L 668.921875 934.195312 L 654.152344 934.195312 Z M 654.035156 903.519531 L 668.804688 903.519531 L 668.859375 918.28125 L 654.089844 918.28125 Z M 653.96875 887.609375 L 668.742188 887.609375 L 668.796875 902.371094 L 654.027344 902.371094 Z M 653.910156 871.695312 L 668.683594 871.695312 L 668.738281 886.460938 L 653.96875 886.460938 Z M 653.847656 855.789062 L 668.621094 855.789062 L 668.679688 870.546875 L 653.90625 870.546875 Z M 653.785156 839.875 L 668.558594 839.875 L 668.617188 854.636719 L 653.84375 854.636719 Z M 653.722656 823.964844 L 668.496094 823.964844 L 668.554688 838.726562 L 653.78125 838.726562 Z M 653.664062 808.050781 L 668.4375 808.050781 L 668.492188 822.816406 L 653.71875 822.816406 Z M 653.605469 792.140625 L 668.375 792.140625 L 668.433594 806.902344 L 653.660156 806.902344 Z M 653.539062 776.230469 L 668.316406 776.230469 L 668.367188 790.992188 L 653.597656 790.992188 Z M 653.480469 760.316406 L 668.25 760.316406 L 668.308594 775.078125 L 653.539062 775.078125 Z M 653.417969 744.40625 L 668.191406 744.40625 L 668.25 759.167969 L 653.476562 759.167969 Z M 638.410156 981.929688 L 638.351562 967.167969 L 653.128906 967.167969 L 653.179688 981.929688 Z M 638.292969 951.253906 L 653.066406 951.253906 L 653.125 966.015625 L 638.347656 966.015625 Z M 638.230469 935.34375 L 653.007812 935.34375 L 653.0625 950.105469 L 638.285156 950.105469 Z M 638.171875 919.433594 L 652.941406 919.433594 L 653 934.195312 L 638.226562 934.195312 Z M 638.109375 903.519531 L 652.882812 903.519531 L 652.941406 918.28125 L 638.167969 918.28125 Z M 638.046875 887.609375 L 652.820312 887.609375 L 652.878906 902.371094 L 638.105469 902.371094 Z M 637.988281 871.695312 L 652.757812 871.695312 L 652.816406 886.460938 L 638.042969 886.460938 Z M 637.925781 855.789062 L 652.699219 855.789062 L 652.757812 870.546875 L 637.980469 870.546875 Z M 637.863281 839.875 L 652.636719 839.875 L 652.691406 854.636719 L 637.921875 854.636719 Z M 637.804688 823.964844 L 652.578125 823.964844 L 652.632812 838.726562 L 637.859375 838.726562 Z M 637.742188 808.050781 L 652.511719 808.050781 L 652.570312 822.816406 L 637.800781 822.816406 Z M 637.679688 792.140625 L 652.453125 792.140625 L 652.511719 806.902344 L 637.738281 806.902344 Z M 637.617188 776.230469 L 652.390625 776.230469 L 652.449219 790.992188 L 637.675781 790.992188 Z M 637.558594 760.316406 L 652.328125 760.316406 L 652.386719 775.078125 L 637.613281 775.078125 Z M 637.5 744.40625 L 652.269531 744.40625 L 652.328125 759.167969 L 637.554688 759.167969 Z M 622.488281 981.929688 L 622.4375 967.167969 L 637.203125 967.167969 L 637.261719 981.929688 Z M 622.371094 951.253906 L 637.140625 951.253906 L 637.199219 966.015625 L 622.429688 966.015625 Z M 622.3125 935.34375 L 637.085938 935.34375 L 637.140625 950.105469 L 622.371094 950.105469 Z M 622.25 919.433594 L 637.019531 919.433594 L 637.074219 934.195312 L 622.308594 934.195312 Z M 622.1875 903.519531 L 636.960938 903.519531 L 637.019531 918.28125 L 622.246094 918.28125 Z M 622.128906 887.609375 L 636.898438 887.609375 L 636.957031 902.371094 L 622.1875 902.371094 Z M 622.066406 871.695312 L 636.835938 871.695312 L 636.894531 886.460938 L 622.121094 886.460938 Z M 622.007812 855.789062 L 636.773438 855.789062 L 636.832031 870.546875 L 622.0625 870.546875 Z M 621.945312 839.875 L 636.714844 839.875 L 636.769531 854.636719 L 622.003906 854.636719 Z M 621.882812 823.964844 L 636.652344 823.964844 L 636.710938 838.726562 L 621.941406 838.726562 Z M 621.820312 808.050781 L 636.589844 808.050781 L 636.648438 822.816406 L 621.878906 822.816406 Z M 621.761719 792.140625 L 636.53125 792.140625 L 636.585938 806.902344 L 621.816406 806.902344 Z M 621.699219 776.230469 L 636.46875 776.230469 L 636.527344 790.992188 L 621.757812 790.992188 Z M 621.640625 760.316406 L 636.40625 760.316406 L 636.464844 775.078125 L 621.695312 775.078125 Z M 621.578125 744.40625 L 636.347656 744.40625 L 636.40625 759.167969 L 621.632812 759.167969 Z M 606.570312 981.929688 L 606.515625 967.167969 L 621.28125 967.167969 L 621.335938 981.929688 Z M 606.449219 951.253906 L 621.21875 951.253906 L 621.277344 966.015625 L 606.507812 966.015625 Z M 606.390625 935.34375 L 621.160156 935.34375 L 621.21875 950.105469 L 606.449219 950.105469 Z M 606.328125 919.433594 L 621.097656 919.433594 L 621.152344 934.195312 L 606.386719 934.195312 Z M 606.269531 903.519531 L 621.039062 903.519531 L 621.09375 918.28125 L 606.324219 918.28125 Z M 606.207031 887.609375 L 620.976562 887.609375 L 621.03125 902.371094 L 606.265625 902.371094 Z M 606.144531 871.695312 L 620.914062 871.695312 L 620.972656 886.460938 L 606.203125 886.460938 Z M 606.082031 855.789062 L 620.855469 855.789062 L 620.910156 870.546875 L 606.140625 870.546875 Z M 606.023438 839.875 L 620.792969 839.875 L 620.847656 854.636719 L 606.078125 854.636719 Z M 605.960938 823.964844 L 620.730469 823.964844 L 620.789062 838.726562 L 606.019531 838.726562 Z M 605.902344 808.050781 L 620.667969 808.050781 L 620.726562 822.816406 L 605.957031 822.816406 Z M 605.839844 792.140625 L 620.609375 792.140625 L 620.664062 806.902344 L 605.898438 806.902344 Z M 605.777344 776.230469 L 620.546875 776.230469 L 620.605469 790.992188 L 605.835938 790.992188 Z M 605.71875 760.316406 L 620.488281 760.316406 L 620.542969 775.078125 L 605.773438 775.078125 Z M 605.65625 744.40625 L 620.425781 744.40625 L 620.480469 759.167969 L 605.714844 759.167969 Z M 590.648438 981.929688 L 590.59375 967.167969 L 605.363281 967.167969 L 605.417969 981.929688 Z M 590.53125 951.253906 L 605.296875 951.253906 L 605.355469 966.015625 L 590.585938 966.015625 Z M 590.46875 935.34375 L 605.238281 935.34375 L 605.296875 950.105469 L 590.527344 950.105469 Z M 590.410156 919.433594 L 605.175781 919.433594 L 605.234375 934.195312 L 590.464844 934.195312 Z M 590.347656 903.519531 L 605.117188 903.519531 L 605.171875 918.28125 L 590.402344 918.28125 Z M 590.285156 887.609375 L 605.054688 887.609375 L 605.113281 902.371094 L 590.34375 902.371094 Z M 590.226562 871.695312 L 604.992188 871.695312 L 605.050781 886.460938 L 590.28125 886.460938 Z M 590.164062 855.789062 L 604.933594 855.789062 L 604.988281 870.546875 L 590.21875 870.546875 Z M 590.101562 839.875 L 604.871094 839.875 L 604.925781 854.636719 L 590.160156 854.636719 Z M 590.042969 823.964844 L 604.808594 823.964844 L 604.867188 838.726562 L 590.097656 838.726562 Z M 589.980469 808.050781 L 604.75 808.050781 L 604.804688 822.816406 L 590.035156 822.816406 Z M 589.921875 792.140625 L 604.6875 792.140625 L 604.742188 806.902344 L 589.976562 806.902344 Z M 589.855469 776.230469 L 604.625 776.230469 L 604.683594 790.992188 L 589.914062 790.992188 Z M 589.796875 760.316406 L 604.566406 760.316406 L 604.621094 775.078125 L 589.855469 775.078125 Z M 589.734375 744.40625 L 604.503906 744.40625 L 604.558594 759.167969 L 589.792969 759.167969 Z M 574.726562 981.929688 L 574.667969 967.167969 L 589.441406 967.167969 L 589.496094 981.929688 Z M 574.609375 951.253906 L 589.378906 951.253906 L 589.433594 966.015625 L 574.664062 966.015625 Z M 574.546875 935.34375 L 589.316406 935.34375 L 589.375 950.105469 L 574.605469 950.105469 Z M 574.488281 919.433594 L 589.253906 919.433594 L 589.3125 934.195312 L 574.542969 934.195312 Z M 574.425781 903.519531 L 589.195312 903.519531 L 589.25 918.28125 L 574.480469 918.28125 Z M 574.363281 887.609375 L 589.132812 887.609375 L 589.191406 902.371094 L 574.421875 902.371094 Z M 574.304688 871.695312 L 589.074219 871.695312 L 589.128906 886.460938 L 574.359375 886.460938 Z M 574.238281 855.789062 L 589.007812 855.789062 L 589.066406 870.546875 L 574.296875 870.546875 Z M 574.179688 839.875 L 588.949219 839.875 L 589.007812 854.636719 L 574.238281 854.636719 Z M 574.121094 823.964844 L 588.886719 823.964844 L 588.945312 838.726562 L 574.175781 838.726562 Z M 574.058594 808.050781 L 588.828125 808.050781 L 588.882812 822.816406 L 574.113281 822.816406 Z M 573.996094 792.140625 L 588.765625 792.140625 L 588.824219 806.902344 L 574.054688 806.902344 Z M 573.933594 776.230469 L 588.703125 776.230469 L 588.761719 790.992188 L 573.992188 790.992188 Z M 573.875 760.316406 L 588.644531 760.316406 L 588.703125 775.078125 L 573.929688 775.078125 Z M 573.8125 744.40625 L 588.582031 744.40625 L 588.636719 759.167969 L 573.871094 759.167969 Z M 558.804688 981.929688 L 558.746094 967.167969 L 573.515625 967.167969 L 573.574219 981.929688 Z M 558.6875 951.253906 L 573.457031 951.253906 L 573.511719 966.015625 L 558.746094 966.015625 Z M 558.625 935.34375 L 573.394531 935.34375 L 573.449219 950.105469 L 558.683594 950.105469 Z M 558.5625 919.433594 L 573.335938 919.433594 L 573.390625 934.195312 L 558.621094 934.195312 Z M 558.503906 903.519531 L 573.273438 903.519531 L 573.328125 918.28125 L 558.558594 918.28125 Z M 558.441406 887.609375 L 573.210938 887.609375 L 573.269531 902.371094 L 558.496094 902.371094 Z M 558.382812 871.695312 L 573.152344 871.695312 L 573.207031 886.460938 L 558.4375 886.460938 Z M 558.320312 855.789062 L 573.085938 855.789062 L 573.144531 870.546875 L 558.375 870.546875 Z M 558.257812 839.875 L 573.027344 839.875 L 573.085938 854.636719 L 558.316406 854.636719 Z M 558.199219 823.964844 L 572.964844 823.964844 L 573.023438 838.726562 L 558.253906 838.726562 Z M 558.136719 808.050781 L 572.90625 808.050781 L 572.960938 822.816406 L 558.191406 822.816406 Z M 558.074219 792.140625 L 572.84375 792.140625 L 572.902344 806.902344 L 558.132812 806.902344 Z M 558.015625 776.230469 L 572.78125 776.230469 L 572.839844 790.992188 L 558.070312 790.992188 Z M 557.953125 760.316406 L 572.722656 760.316406 L 572.777344 775.078125 L 558.007812 775.078125 Z M 557.890625 744.40625 L 572.660156 744.40625 L 572.71875 759.167969 L 557.949219 759.167969 Z M 542.882812 981.929688 L 542.828125 967.167969 L 557.59375 967.167969 L 557.652344 981.929688 Z M 542.765625 951.253906 L 557.535156 951.253906 L 557.59375 966.015625 L 542.824219 966.015625 Z M 542.703125 935.34375 L 557.472656 935.34375 L 557.527344 950.105469 L 542.757812 950.105469 Z M 542.640625 919.433594 L 557.410156 919.433594 L 557.46875 934.195312 L 542.699219 934.195312 Z M 542.582031 903.519531 L 557.351562 903.519531 L 557.40625 918.28125 L 542.640625 918.28125 Z M 542.519531 887.609375 L 557.289062 887.609375 L 557.347656 902.371094 L 542.578125 902.371094 Z M 542.457031 871.695312 L 557.230469 871.695312 L 557.285156 886.460938 L 542.515625 886.460938 Z M 542.398438 855.789062 L 557.167969 855.789062 L 557.222656 870.546875 L 542.453125 870.546875 Z M 542.335938 839.875 L 557.105469 839.875 L 557.164062 854.636719 L 542.390625 854.636719 Z M 542.277344 823.964844 L 557.046875 823.964844 L 557.101562 838.726562 L 542.332031 838.726562 Z M 542.210938 808.050781 L 556.984375 808.050781 L 557.039062 822.816406 L 542.269531 822.816406 Z M 542.152344 792.140625 L 556.921875 792.140625 L 556.980469 806.902344 L 542.210938 806.902344 Z M 542.089844 776.230469 L 556.863281 776.230469 L 556.917969 790.992188 L 542.148438 790.992188 Z M 542.03125 760.316406 L 556.796875 760.316406 L 556.855469 775.078125 L 542.085938 775.078125 Z M 541.96875 744.40625 L 556.738281 744.40625 L 556.796875 759.167969 L 542.023438 759.167969 Z M 526.960938 981.929688 L 526.902344 967.167969 L 541.671875 967.167969 L 541.730469 981.929688 Z M 526.84375 951.253906 L 541.613281 951.253906 L 541.671875 966.015625 L 526.898438 966.015625 Z M 526.78125 935.34375 L 541.550781 935.34375 L 541.609375 950.105469 L 526.835938 950.105469 Z M 526.71875 919.433594 L 541.492188 919.433594 L 541.546875 934.195312 L 526.777344 934.195312 Z M 526.660156 903.519531 L 541.429688 903.519531 L 541.488281 918.28125 L 526.71875 918.28125 Z M 526.597656 887.609375 L 541.371094 887.609375 L 541.421875 902.371094 L 526.652344 902.371094 Z M 526.535156 871.695312 L 541.304688 871.695312 L 541.363281 886.460938 L 526.59375 886.460938 Z M 526.476562 855.789062 L 541.246094 855.789062 L 541.300781 870.546875 L 526.53125 870.546875 Z M 526.414062 839.875 L 541.183594 839.875 L 541.238281 854.636719 L 526.46875 854.636719 Z M 526.351562 823.964844 L 541.125 823.964844 L 541.179688 838.726562 L 526.410156 838.726562 Z M 526.292969 808.050781 L 541.0625 808.050781 L 541.121094 822.816406 L 526.347656 822.816406 Z M 526.230469 792.140625 L 541 792.140625 L 541.058594 806.902344 L 526.285156 806.902344 Z M 526.171875 776.230469 L 540.941406 776.230469 L 540.996094 790.992188 L 526.226562 790.992188 Z M 526.109375 760.316406 L 540.878906 760.316406 L 540.933594 775.078125 L 526.164062 775.078125 Z M 526.046875 744.40625 L 540.816406 744.40625 L 540.875 759.167969 L 526.105469 759.167969 Z M 511.039062 981.929688 L 510.980469 967.167969 L 525.753906 967.167969 L 525.808594 981.929688 Z M 510.921875 951.253906 L 525.691406 951.253906 L 525.746094 966.015625 L 510.976562 966.015625 Z M 510.859375 935.34375 L 525.632812 935.34375 L 525.6875 950.105469 L 510.917969 950.105469 Z M 510.796875 919.433594 L 525.566406 919.433594 L 525.625 934.195312 L 510.855469 934.195312 Z M 510.738281 903.519531 L 525.507812 903.519531 L 525.5625 918.28125 L 510.792969 918.28125 Z M 510.675781 887.609375 L 525.445312 887.609375 L 525.503906 902.371094 L 510.730469 902.371094 Z M 510.613281 871.695312 L 525.382812 871.695312 L 525.441406 886.460938 L 510.671875 886.460938 Z M 510.554688 855.789062 L 525.324219 855.789062 L 525.382812 870.546875 L 510.609375 870.546875 Z M 510.492188 839.875 L 525.261719 839.875 L 525.316406 854.636719 L 510.546875 854.636719 Z M 510.429688 823.964844 L 525.199219 823.964844 L 525.257812 838.726562 L 510.488281 838.726562 Z M 510.371094 808.050781 L 525.140625 808.050781 L 525.195312 822.816406 L 510.425781 822.816406 Z M 510.308594 792.140625 L 525.078125 792.140625 L 525.132812 806.902344 L 510.363281 806.902344 Z M 510.246094 776.230469 L 525.019531 776.230469 L 525.074219 790.992188 L 510.304688 790.992188 Z M 510.1875 760.316406 L 524.953125 760.316406 L 525.011719 775.078125 L 510.242188 775.078125 Z M 510.125 744.40625 L 524.894531 744.40625 L 524.953125 759.167969 L 510.179688 759.167969 Z M 495.117188 981.929688 L 495.058594 967.167969 L 509.832031 967.167969 L 509.886719 981.929688 Z M 494.996094 951.253906 L 509.765625 951.253906 L 509.824219 966.015625 L 495.054688 966.015625 Z M 494.9375 935.34375 L 509.707031 935.34375 L 509.765625 950.105469 L 494.996094 950.105469 Z M 494.875 919.433594 L 509.644531 919.433594 L 509.703125 934.195312 L 494.933594 934.195312 Z M 494.8125 903.519531 L 509.585938 903.519531 L 509.640625 918.28125 L 494.871094 918.28125 Z M 494.753906 887.609375 L 509.523438 887.609375 L 509.582031 902.371094 L 494.808594 902.371094 Z M 494.691406 871.695312 L 509.460938 871.695312 L 509.519531 886.460938 L 494.746094 886.460938 Z M 494.632812 855.789062 L 509.402344 855.789062 L 509.460938 870.546875 L 494.6875 870.546875 Z M 494.570312 839.875 L 509.339844 839.875 L 509.394531 854.636719 L 494.625 854.636719 Z M 494.507812 823.964844 L 509.277344 823.964844 L 509.335938 838.726562 L 494.566406 838.726562 Z M 494.449219 808.050781 L 509.21875 808.050781 L 509.273438 822.816406 L 494.503906 822.816406 Z M 494.386719 792.140625 L 509.15625 792.140625 L 509.214844 806.902344 L 494.441406 806.902344 Z M 494.324219 776.230469 L 509.09375 776.230469 L 509.152344 790.992188 L 494.382812 790.992188 Z M 494.265625 760.316406 L 509.035156 760.316406 L 509.089844 775.078125 L 494.320312 775.078125 Z M 494.203125 744.40625 L 508.972656 744.40625 L 509.027344 759.167969 L 494.257812 759.167969 Z M 479.195312 981.929688 L 479.140625 967.167969 L 493.910156 967.167969 L 493.964844 981.929688 Z M 479.074219 951.253906 L 493.847656 951.253906 L 493.902344 966.015625 L 479.132812 966.015625 Z M 479.015625 935.34375 L 493.785156 935.34375 L 493.84375 950.105469 L 479.074219 950.105469 Z M 478.953125 919.433594 L 493.726562 919.433594 L 493.78125 934.195312 L 479.011719 934.195312 Z M 478.890625 903.519531 L 493.660156 903.519531 L 493.71875 918.28125 L 478.949219 918.28125 Z M 478.832031 887.609375 L 493.605469 887.609375 L 493.660156 902.371094 L 478.890625 902.371094 Z M 478.769531 871.695312 L 493.539062 871.695312 L 493.59375 886.460938 L 478.828125 886.460938 Z M 478.707031 855.789062 L 493.480469 855.789062 L 493.535156 870.546875 L 478.765625 870.546875 Z M 478.648438 839.875 L 493.417969 839.875 L 493.476562 854.636719 L 478.703125 854.636719 Z M 478.585938 823.964844 L 493.355469 823.964844 L 493.414062 838.726562 L 478.640625 838.726562 Z M 478.527344 808.050781 L 493.296875 808.050781 L 493.355469 822.816406 L 478.582031 822.816406 Z M 478.464844 792.140625 L 493.234375 792.140625 L 493.289062 806.902344 L 478.519531 806.902344 Z M 478.402344 776.230469 L 493.171875 776.230469 L 493.230469 790.992188 L 478.460938 790.992188 Z M 478.34375 760.316406 L 493.113281 760.316406 L 493.167969 775.078125 L 478.398438 775.078125 Z M 478.28125 744.40625 L 493.046875 744.40625 L 493.105469 759.167969 L 478.335938 759.167969 Z M 463.273438 981.929688 L 463.214844 967.167969 L 477.988281 967.167969 L 478.046875 981.929688 Z M 463.15625 951.253906 L 477.925781 951.253906 L 477.984375 966.015625 L 463.210938 966.015625 Z M 463.09375 935.34375 L 477.863281 935.34375 L 477.921875 950.105469 L 463.148438 950.105469 Z M 463.03125 919.433594 L 477.804688 919.433594 L 477.859375 934.195312 L 463.089844 934.195312 Z M 462.96875 903.519531 L 477.742188 903.519531 L 477.800781 918.28125 L 463.027344 918.28125 Z M 462.910156 887.609375 L 477.679688 887.609375 L 477.738281 902.371094 L 462.96875 902.371094 Z M 462.851562 871.695312 L 477.621094 871.695312 L 477.675781 886.460938 L 462.90625 886.460938 Z M 462.785156 855.789062 L 477.558594 855.789062 L 477.613281 870.546875 L 462.84375 870.546875 Z M 462.726562 839.875 L 477.5 839.875 L 477.554688 854.636719 L 462.785156 854.636719 Z M 462.664062 823.964844 L 477.4375 823.964844 L 477.492188 838.726562 L 462.722656 838.726562 Z M 462.601562 808.050781 L 477.375 808.050781 L 477.433594 822.816406 L 462.660156 822.816406 Z M 462.542969 792.140625 L 477.316406 792.140625 L 477.371094 806.902344 L 462.601562 806.902344 Z M 462.480469 776.230469 L 477.253906 776.230469 L 477.308594 790.992188 L 462.535156 790.992188 Z M 462.421875 760.316406 L 477.191406 760.316406 L 477.25 775.078125 L 462.480469 775.078125 Z M 462.359375 744.40625 L 477.132812 744.40625 L 477.1875 759.167969 L 462.414062 759.167969 Z M 447.351562 981.929688 L 447.292969 967.167969 L 462.0625 967.167969 L 462.121094 981.929688 Z M 447.234375 951.253906 L 462.003906 951.253906 L 462.0625 966.015625 L 447.289062 966.015625 Z M 447.171875 935.34375 L 461.945312 935.34375 L 462 950.105469 L 447.226562 950.105469 Z M 447.109375 919.433594 L 461.882812 919.433594 L 461.941406 934.195312 L 447.167969 934.195312 Z M 447.050781 903.519531 L 461.824219 903.519531 L 461.875 918.28125 L 447.105469 918.28125 Z M 446.988281 887.609375 L 461.757812 887.609375 L 461.816406 902.371094 L 447.042969 902.371094 Z M 446.929688 871.695312 L 461.699219 871.695312 L 461.753906 886.460938 L 446.984375 886.460938 Z M 446.863281 855.789062 L 461.636719 855.789062 L 461.695312 870.546875 L 446.921875 870.546875 Z M 446.804688 839.875 L 461.574219 839.875 L 461.632812 854.636719 L 446.863281 854.636719 Z M 446.742188 823.964844 L 461.515625 823.964844 L 461.574219 838.726562 L 446.800781 838.726562 Z M 446.679688 808.050781 L 461.453125 808.050781 L 461.511719 822.816406 L 446.738281 822.816406 Z M 446.621094 792.140625 L 461.394531 792.140625 L 461.449219 806.902344 L 446.679688 806.902344 Z M 446.5625 776.230469 L 461.332031 776.230469 L 461.386719 790.992188 L 446.613281 790.992188 Z M 446.496094 760.316406 L 461.269531 760.316406 L 461.328125 775.078125 L 446.554688 775.078125 Z M 446.4375 744.40625 L 461.210938 744.40625 L 461.265625 759.167969 L 446.496094 759.167969 Z M 431.429688 981.929688 L 431.371094 967.167969 L 446.144531 967.167969 L 446.199219 981.929688 Z M 431.3125 951.253906 L 446.082031 951.253906 L 446.140625 966.015625 L 431.367188 966.015625 Z M 431.25 935.34375 L 446.023438 935.34375 L 446.078125 950.105469 L 431.308594 950.105469 Z M 431.1875 919.433594 L 445.960938 919.433594 L 446.015625 934.195312 L 431.246094 934.195312 Z M 431.128906 903.519531 L 445.902344 903.519531 L 445.957031 918.28125 L 431.1875 918.28125 Z M 431.066406 887.609375 L 445.835938 887.609375 L 445.894531 902.371094 L 431.121094 902.371094 Z M 431.007812 871.695312 L 445.777344 871.695312 L 445.835938 886.460938 L 431.0625 886.460938 Z M 430.945312 855.789062 L 445.714844 855.789062 L 445.773438 870.546875 L 431 870.546875 Z M 430.882812 839.875 L 445.65625 839.875 L 445.710938 854.636719 L 430.941406 854.636719 Z M 430.824219 823.964844 L 445.59375 823.964844 L 445.648438 838.726562 L 430.878906 838.726562 Z M 430.757812 808.050781 L 445.53125 808.050781 L 445.585938 822.816406 L 430.816406 822.816406 Z M 430.699219 792.140625 L 445.46875 792.140625 L 445.527344 806.902344 L 430.757812 806.902344 Z M 430.636719 776.230469 L 445.410156 776.230469 L 445.464844 790.992188 L 430.695312 790.992188 Z M 430.574219 760.316406 L 445.347656 760.316406 L 445.402344 775.078125 L 430.632812 775.078125 Z M 430.515625 744.40625 L 445.289062 744.40625 L 445.34375 759.167969 L 430.570312 759.167969 Z M 415.507812 981.929688 L 415.449219 967.167969 L 430.222656 967.167969 L 430.28125 981.929688 Z M 415.390625 951.253906 L 430.160156 951.253906 L 430.21875 966.015625 L 415.445312 966.015625 Z M 415.328125 935.34375 L 430.097656 935.34375 L 430.15625 950.105469 L 415.386719 950.105469 Z M 415.265625 919.433594 L 430.039062 919.433594 L 430.09375 934.195312 L 415.324219 934.195312 Z M 415.207031 903.519531 L 429.976562 903.519531 L 430.035156 918.28125 L 415.261719 918.28125 Z M 415.144531 887.609375 L 429.917969 887.609375 L 429.972656 902.371094 L 415.199219 902.371094 Z M 415.082031 871.695312 L 429.855469 871.695312 L 429.910156 886.460938 L 415.140625 886.460938 Z M 415.023438 855.789062 L 429.796875 855.789062 L 429.851562 870.546875 L 415.078125 870.546875 Z M 414.960938 839.875 L 429.730469 839.875 L 429.789062 854.636719 L 415.015625 854.636719 Z M 414.902344 823.964844 L 429.671875 823.964844 L 429.726562 838.726562 L 414.957031 838.726562 Z M 414.839844 808.050781 L 429.609375 808.050781 L 429.667969 822.816406 L 414.894531 822.816406 Z M 414.777344 792.140625 L 429.546875 792.140625 L 429.605469 806.902344 L 414.835938 806.902344 Z M 414.71875 776.230469 L 429.488281 776.230469 L 429.546875 790.992188 L 414.773438 790.992188 Z M 414.652344 760.316406 L 429.425781 760.316406 L 429.480469 775.078125 L 414.710938 775.078125 Z M 414.59375 744.40625 L 429.363281 744.40625 L 429.421875 759.167969 L 414.652344 759.167969 Z M 399.582031 981.929688 L 399.527344 967.167969 L 414.300781 967.167969 L 414.355469 981.929688 Z M 399.464844 951.253906 L 414.238281 951.253906 L 414.296875 966.015625 L 399.523438 966.015625 Z M 399.40625 935.34375 L 414.179688 935.34375 L 414.234375 950.105469 L 399.460938 950.105469 Z M 399.34375 919.433594 L 414.117188 919.433594 L 414.171875 934.195312 L 399.402344 934.195312 Z M 399.285156 903.519531 L 414.054688 903.519531 L 414.113281 918.28125 L 399.339844 918.28125 Z M 399.222656 887.609375 L 413.992188 887.609375 L 414.050781 902.371094 L 399.28125 902.371094 Z M 399.160156 871.695312 L 413.933594 871.695312 L 413.988281 886.460938 L 399.21875 886.460938 Z M 399.101562 855.789062 L 413.871094 855.789062 L 413.929688 870.546875 L 399.15625 870.546875 Z M 399.039062 839.875 L 413.8125 839.875 L 413.867188 854.636719 L 399.09375 854.636719 Z M 398.976562 823.964844 L 413.75 823.964844 L 413.804688 838.726562 L 399.035156 838.726562 Z M 398.917969 808.050781 L 413.6875 808.050781 L 413.746094 822.816406 L 398.972656 822.816406 Z M 398.855469 792.140625 L 413.625 792.140625 L 413.683594 806.902344 L 398.910156 806.902344 Z M 398.796875 776.230469 L 413.566406 776.230469 L 413.621094 790.992188 L 398.851562 790.992188 Z M 398.730469 760.316406 L 413.503906 760.316406 L 413.5625 775.078125 L 398.789062 775.078125 Z M 398.671875 744.40625 L 413.441406 744.40625 L 413.5 759.167969 L 398.730469 759.167969 Z M 383.664062 981.929688 L 383.609375 967.167969 L 398.378906 967.167969 L 398.433594 981.929688 Z M 383.542969 951.253906 L 398.316406 951.253906 L 398.375 966.015625 L 383.601562 966.015625 Z M 383.484375 935.34375 L 398.257812 935.34375 L 398.3125 950.105469 L 383.542969 950.105469 Z M 383.421875 919.433594 L 398.195312 919.433594 L 398.253906 934.195312 L 383.480469 934.195312 Z M 383.359375 903.519531 L 398.132812 903.519531 L 398.191406 918.28125 L 383.417969 918.28125 Z M 383.300781 887.609375 L 398.074219 887.609375 L 398.128906 902.371094 L 383.359375 902.371094 Z M 383.238281 871.695312 L 398.011719 871.695312 L 398.066406 886.460938 L 383.296875 886.460938 Z M 383.179688 855.789062 L 397.949219 855.789062 L 398.007812 870.546875 L 383.234375 870.546875 Z M 383.113281 839.875 L 397.890625 839.875 L 397.945312 854.636719 L 383.171875 854.636719 Z M 383.054688 823.964844 L 397.828125 823.964844 L 397.882812 838.726562 L 383.113281 838.726562 Z M 382.996094 808.050781 L 397.765625 808.050781 L 397.824219 822.816406 L 383.050781 822.816406 Z M 382.933594 792.140625 L 397.703125 792.140625 L 397.761719 806.902344 L 382.988281 806.902344 Z M 382.871094 776.230469 L 397.644531 776.230469 L 397.699219 790.992188 L 382.929688 790.992188 Z M 382.8125 760.316406 L 397.582031 760.316406 L 397.640625 775.078125 L 382.867188 775.078125 Z M 382.75 744.40625 L 397.523438 744.40625 L 397.578125 759.167969 L 382.804688 759.167969 Z M 743.324219 983.078125 L 743.324219 981.929688 L 733.941406 981.929688 L 733.886719 967.167969 L 743.324219 967.167969 L 743.324219 966.015625 L 733.882812 966.015625 L 733.824219 951.253906 L 743.324219 951.253906 L 743.324219 950.105469 L 733.824219 950.105469 L 733.765625 935.34375 L 743.324219 935.34375 L 743.324219 934.195312 L 733.757812 934.195312 L 733.703125 919.433594 L 743.324219 919.433594 L 743.324219 918.28125 L 733.695312 918.28125 L 733.640625 903.519531 L 743.324219 903.519531 L 743.324219 902.371094 L 733.636719 902.371094 L 733.582031 887.609375 L 743.324219 887.609375 L 743.324219 886.460938 L 733.574219 886.460938 L 733.519531 871.695312 L 743.324219 871.695312 L 743.324219 870.546875 L 733.515625 870.546875 L 733.457031 855.789062 L 743.324219 855.789062 L 743.324219 854.636719 L 733.453125 854.636719 L 733.394531 839.875 L 743.324219 839.875 L 743.324219 838.726562 L 733.394531 838.726562 L 733.335938 823.964844 L 743.324219 823.964844 L 743.324219 822.816406 L 733.332031 822.816406 L 733.273438 808.050781 L 743.324219 808.050781 L 743.324219 806.902344 L 733.269531 806.902344 L 733.210938 792.140625 L 743.324219 792.140625 L 743.324219 790.992188 L 733.207031 790.992188 L 733.152344 776.230469 L 743.324219 776.230469 L 743.324219 775.078125 L 733.144531 775.078125 L 733.089844 760.316406 L 743.324219 760.316406 L 743.324219 759.167969 L 733.085938 759.167969 L 733.027344 744.40625 L 743.324219 744.40625 L 743.324219 743.257812 L 733.027344 743.257812 L 732.960938 727.164062 L 731.8125 727.164062 L 731.875 743.257812 L 717.101562 743.257812 L 717.039062 727.164062 L 715.890625 727.164062 L 715.953125 743.257812 L 701.183594 743.257812 L 701.117188 727.164062 L 699.96875 727.164062 L 700.03125 743.257812 L 685.257812 743.257812 L 685.199219 727.164062 L 684.046875 727.164062 L 684.105469 743.257812 L 669.335938 743.257812 L 669.273438 727.164062 L 668.125 727.164062 L 668.1875 743.257812 L 653.414062 743.257812 L 653.355469 727.164062 L 652.203125 727.164062 L 652.261719 743.257812 L 637.492188 743.257812 L 637.433594 727.164062 L 636.28125 727.164062 L 636.339844 743.257812 L 621.574219 743.257812 L 621.511719 727.164062 L 620.359375 727.164062 L 620.421875 743.257812 L 605.652344 743.257812 L 605.589844 727.164062 L 604.4375 727.164062 L 604.5 743.257812 L 589.730469 743.257812 L 589.671875 727.164062 L 588.515625 727.164062 L 588.578125 743.257812 L 573.808594 743.257812 L 573.746094 727.164062 L 572.59375 727.164062 L 572.65625 743.257812 L 557.886719 743.257812 L 557.824219 727.164062 L 556.675781 727.164062 L 556.734375 743.257812 L 541.964844 743.257812 L 541.902344 727.164062 L 540.75 727.164062 L 540.8125 743.257812 L 526.042969 743.257812 L 525.980469 727.164062 L 524.828125 727.164062 L 524.890625 743.257812 L 510.121094 743.257812 L 510.058594 727.164062 L 508.90625 727.164062 L 508.96875 743.257812 L 494.199219 743.257812 L 494.136719 727.164062 L 492.984375 727.164062 L 493.046875 743.257812 L 478.277344 743.257812 L 478.214844 727.164062 L 477.066406 727.164062 L 477.125 743.257812 L 462.355469 743.257812 L 462.292969 727.164062 L 461.144531 727.164062 L 461.203125 743.257812 L 446.429688 743.257812 L 446.371094 727.164062 L 445.222656 727.164062 L 445.285156 743.257812 L 430.511719 743.257812 L 430.449219 727.164062 L 429.296875 727.164062 L 429.359375 743.257812 L 414.589844 743.257812 L 414.527344 727.164062 L 413.375 727.164062 L 413.4375 743.257812 L 398.667969 743.257812 L 398.605469 727.164062 L 397.457031 727.164062 L 397.519531 743.257812 L 382.746094 743.257812 L 382.679688 727.164062 L 381.53125 727.164062 L 381.597656 743.257812 L 366.851562 743.257812 L 366.851562 744.40625 L 381.597656 744.40625 L 381.65625 759.167969 L 366.851562 759.167969 L 366.851562 760.316406 L 381.660156 760.316406 L 381.71875 775.078125 L 366.851562 775.078125 L 366.851562 776.230469 L 381.722656 776.230469 L 381.777344 790.992188 L 366.851562 790.992188 L 366.851562 792.140625 L 381.785156 792.140625 L 381.835938 806.902344 L 366.851562 806.902344 L 366.851562 808.050781 L 381.84375 808.050781 L 381.902344 822.816406 L 366.851562 822.816406 L 366.851562 823.964844 L 381.90625 823.964844 L 381.960938 838.726562 L 366.851562 838.726562 L 366.851562 839.875 L 381.96875 839.875 L 382.023438 854.636719 L 366.851562 854.636719 L 366.851562 855.789062 L 382.027344 855.789062 L 382.085938 870.546875 L 366.851562 870.546875 L 366.851562 871.695312 L 382.089844 871.695312 L 382.144531 886.460938 L 366.851562 886.460938 L 366.851562 887.609375 L 382.152344 887.609375 L 382.207031 902.371094 L 366.851562 902.371094 L 366.851562 903.519531 L 382.210938 903.519531 L 382.265625 918.28125 L 366.851562 918.28125 L 366.851562 919.433594 L 382.273438 919.433594 L 382.328125 934.195312 L 366.851562 934.195312 L 366.851562 935.34375 L 382.332031 935.34375 L 382.390625 950.105469 L 366.851562 950.105469 L 366.851562 951.253906 L 382.394531 951.253906 L 382.453125 966.015625 L 366.851562 966.015625 L 366.851562 967.167969 L 382.457031 967.167969 L 382.511719 981.929688 L 366.851562 981.929688 L 366.851562 983.078125 L 382.515625 983.078125 L 382.574219 997.925781 L 383.726562 997.925781 L 383.667969 983.078125 L 398.4375 983.078125 L 398.496094 997.925781 L 399.648438 997.925781 L 399.589844 983.078125 L 414.363281 983.078125 L 414.417969 997.925781 L 415.570312 997.925781 L 415.511719 983.078125 L 430.285156 983.078125 L 430.34375 997.925781 L 431.492188 997.925781 L 431.4375 983.078125 L 446.207031 983.078125 L 446.261719 997.925781 L 447.414062 997.925781 L 447.355469 983.078125 L 462.125 983.078125 L 462.183594 997.925781 L 463.332031 997.925781 L 463.277344 983.078125 L 478.046875 983.078125 L 478.105469 997.925781 L 479.253906 997.925781 L 479.199219 983.078125 L 493.96875 983.078125 L 494.027344 997.925781 L 495.179688 997.925781 L 495.121094 983.078125 L 509.890625 983.078125 L 509.949219 997.925781 L 511.101562 997.925781 L 511.042969 983.078125 L 525.8125 983.078125 L 525.871094 997.925781 L 527.023438 997.925781 L 526.964844 983.078125 L 541.738281 983.078125 L 541.792969 997.925781 L 542.945312 997.925781 L 542.886719 983.078125 L 557.65625 983.078125 L 557.710938 997.925781 L 558.863281 997.925781 L 558.808594 983.078125 L 573.578125 983.078125 L 573.636719 997.925781 L 574.789062 997.925781 L 574.730469 983.078125 L 589.5 983.078125 L 589.554688 997.925781 L 590.710938 997.925781 L 590.65625 983.078125 L 605.421875 983.078125 L 605.480469 997.925781 L 606.632812 997.925781 L 606.574219 983.078125 L 621.34375 983.078125 L 621.402344 997.925781 L 622.554688 997.925781 L 622.496094 983.078125 L 637.265625 983.078125 L 637.324219 997.925781 L 638.472656 997.925781 L 638.417969 983.078125 L 653.191406 983.078125 L 653.246094 997.925781 L 654.394531 997.925781 L 654.339844 983.078125 L 669.109375 983.078125 L 669.167969 997.925781 L 670.316406 997.925781 L 670.257812 983.078125 L 685.03125 983.078125 L 685.089844 997.925781 L 686.238281 997.925781 L 686.183594 983.078125 L 700.953125 983.078125 L 701.007812 997.925781 L 702.160156 997.925781 L 702.101562 983.078125 L 716.875 983.078125 L 716.929688 997.925781 L 718.082031 997.925781 L 718.027344 983.078125 L 732.796875 983.078125 L 732.855469 997.925781 L 734.003906 997.925781 L 733.949219 983.078125 L 743.324219 983.078125 "/>
<path style=" stroke:none;fill-rule:nonzero;fill:rgb(93.328857%,94.119263%,94.509888%);fill-opacity:1;" d="M 383.144531 981.535156 L 731.25 981.535156 L 731.25 745.953125 L 383.144531 745.953125 Z M 732.796875 984.625 L 381.597656 984.625 C 380.746094 984.625 380.050781 983.933594 380.050781 983.078125 L 380.050781 744.40625 C 380.050781 743.550781 380.746094 742.859375 381.597656 742.859375 L 732.796875 742.859375 C 733.648438 742.859375 734.34375 743.550781 734.34375 744.40625 L 734.34375 983.078125 C 734.34375 983.933594 733.648438 984.625 732.796875 984.625 "/>
<path style=" stroke:none;fill-rule:nonzero;fill:rgb(100%,100%,100%);fill-opacity:1;" d="M 530.652344 780.304688 L 690.089844 780.304688 L 690.089844 761.753906 L 530.652344 761.753906 Z M 691.121094 782.367188 L 529.617188 782.367188 C 529.046875 782.367188 528.589844 781.90625 528.589844 781.339844 L 528.589844 760.722656 C 528.589844 760.152344 529.046875 759.691406 529.617188 759.691406 L 691.121094 759.691406 C 691.691406 759.691406 692.152344 760.152344 692.152344 760.722656 L 692.152344 781.339844 C 692.152344 781.90625 691.691406 782.367188 691.121094 782.367188 "/>
<path style=" stroke:none;fill-rule:nonzero;fill:rgb(100%,100%,100%);fill-opacity:1;" d="M 508.21875 780.304688 L 528.589844 780.304688 L 528.589844 761.753906 L 508.21875 761.753906 Z M 529.617188 782.367188 L 507.1875 782.367188 C 506.617188 782.367188 506.15625 781.90625 506.15625 781.339844 L 506.15625 760.722656 C 506.15625 760.152344 506.617188 759.691406 507.1875 759.691406 L 529.617188 759.691406 C 530.191406 759.691406 530.652344 760.152344 530.652344 760.722656 L 530.652344 781.339844 C 530.652344 781.90625 530.191406 782.367188 529.617188 782.367188 "/>
<path style=" stroke:none;fill-rule:nonzero;fill:rgb(100%,100%,100%);fill-opacity:1;" d="M 519.496094 767.804688 C 518.921875 767.804688 518.386719 768.023438 517.980469 768.429688 C 517.578125 768.832031 517.355469 769.367188 517.355469 769.9375 C 517.355469 770.511719 517.578125 771.046875 517.980469 771.449219 C 518.789062 772.253906 520.199219 772.253906 521.007812 771.449219 C 521.410156 771.046875 521.632812 770.511719 521.632812 769.9375 C 521.632812 769.367188 521.410156 768.832031 521.007812 768.425781 C 520.601562 768.023438 520.066406 767.804688 519.496094 767.804688 Z M 519.496094 773.105469 C 518.644531 773.105469 517.851562 772.777344 517.25 772.179688 C 516.65625 771.582031 516.324219 770.785156 516.324219 769.9375 C 516.324219 769.09375 516.65625 768.296875 517.25 767.699219 C 518.449219 766.503906 520.542969 766.503906 521.734375 767.699219 C 522.332031 768.296875 522.664062 769.089844 522.664062 769.9375 C 522.664062 770.785156 522.332031 771.582031 521.734375 772.179688 C 521.140625 772.777344 520.34375 773.105469 519.496094 773.105469 Z M 519.496094 766.035156 C 518.449219 766.035156 517.46875 766.441406 516.730469 767.175781 C 515.421875 768.484375 515.214844 770.550781 516.234375 772.089844 C 516.371094 772.296875 516.34375 772.570312 516.167969 772.742188 L 513.511719 775.394531 C 513.371094 775.539062 513.371094 775.769531 513.511719 775.917969 C 513.652344 776.054688 513.894531 776.054688 514.035156 775.914062 L 516.691406 773.265625 C 516.863281 773.089844 517.136719 773.0625 517.339844 773.199219 C 517.976562 773.621094 518.722656 773.84375 519.496094 773.84375 C 520.542969 773.84375 521.519531 773.4375 522.257812 772.703125 C 522.996094 771.964844 523.402344 770.980469 523.402344 769.9375 C 523.402344 768.894531 522.996094 767.914062 522.257812 767.175781 C 521.519531 766.441406 520.539062 766.035156 519.496094 766.035156 Z M 513.777344 777.054688 C 513.402344 777.054688 513.050781 776.910156 512.785156 776.644531 C 512.238281 776.097656 512.238281 775.210938 512.785156 774.664062 L 515.15625 772.296875 C 514.121094 770.394531 514.449219 768 516 766.449219 C 516.933594 765.515625 518.171875 765.003906 519.496094 765.003906 C 520.816406 765.003906 522.054688 765.515625 522.988281 766.449219 C 523.917969 767.378906 524.429688 768.617188 524.429688 769.9375 C 524.429688 771.257812 523.917969 772.496094 522.988281 773.429688 C 522.054688 774.359375 520.816406 774.871094 519.496094 774.871094 C 518.664062 774.871094 517.855469 774.667969 517.136719 774.277344 L 514.765625 776.644531 C 514.5 776.910156 514.148438 777.054688 513.777344 777.054688 "/>
<path style=" stroke:none;fill-rule:nonzero;fill:rgb(100%,100%,100%);fill-opacity:1;" d="M 393.363281 779.414062 L 410.144531 779.414062 L 410.144531 762.644531 L 393.363281 762.644531 Z M 411.179688 781.476562 L 392.332031 781.476562 C 391.761719 781.476562 391.300781 781.015625 391.300781 780.445312 L 391.300781 761.613281 C 391.300781 761.042969 391.761719 760.582031 392.332031 760.582031 L 411.179688 760.582031 C 411.746094 760.582031 412.207031 761.042969 412.207031 761.613281 L 412.207031 780.445312 C 412.207031 781.015625 411.746094 781.476562 411.179688 781.476562 "/>
<path style=" stroke:none;fill-rule:nonzero;fill:rgb(100%,100%,100%);fill-opacity:1;" d="M 396.371094 775.101562 C 396.058594 775.101562 395.808594 775.355469 395.808594 775.664062 C 395.808594 775.972656 396.058594 776.226562 396.371094 776.226562 L 407.140625 776.226562 C 407.449219 776.226562 407.699219 775.972656 407.699219 775.664062 C 407.699219 775.355469 407.449219 775.101562 407.140625 775.101562 Z M 407.140625 777.253906 L 396.371094 777.253906 C 395.492188 777.253906 394.777344 776.539062 394.777344 775.664062 C 394.777344 774.785156 395.492188 774.074219 396.371094 774.074219 L 407.140625 774.074219 C 408.019531 774.074219 408.734375 774.785156 408.734375 775.664062 C 408.734375 776.539062 408.019531 777.253906 407.140625 777.253906 "/>
<path style=" stroke:none;fill-rule:nonzero;fill:rgb(100%,100%,100%);fill-opacity:1;" d="M 412.207031 779.414062 L 428.992188 779.414062 L 428.992188 762.644531 L 412.207031 762.644531 Z M 430.023438 781.476562 L 411.179688 781.476562 C 410.605469 781.476562 410.144531 781.015625 410.144531 780.445312 L 410.144531 761.613281 C 410.144531 761.042969 410.605469 760.582031 411.179688 760.582031 L 430.023438 760.582031 C 430.589844 760.582031 431.054688 761.042969 431.054688 761.613281 L 431.054688 780.445312 C 431.054688 781.015625 430.589844 781.476562 430.023438 781.476562 "/>
<path style=" stroke:none;fill-rule:nonzero;fill:rgb(100%,100%,100%);fill-opacity:1;" d="M 416.808594 774.820312 L 424.390625 774.820312 L 424.390625 769.085938 L 416.808594 769.085938 Z M 424.90625 775.847656 L 416.292969 775.847656 C 416.007812 775.847656 415.777344 775.617188 415.777344 775.332031 L 415.777344 768.570312 C 415.777344 768.285156 416.007812 768.054688 416.292969 768.054688 L 424.90625 768.054688 C 425.195312 768.054688 425.421875 768.285156 425.421875 768.570312 L 425.421875 775.332031 C 425.421875 775.617188 425.195312 775.847656 424.90625 775.847656 Z M 415.214844 765.085938 C 414.90625 765.085938 414.652344 765.339844 414.652344 765.644531 L 414.652344 776.410156 C 414.652344 776.71875 414.90625 776.96875 415.214844 776.96875 L 425.984375 776.96875 C 426.292969 776.96875 426.546875 776.71875 426.546875 776.410156 L 426.546875 765.644531 C 426.546875 765.339844 426.292969 765.085938 425.984375 765.085938 Z M 425.984375 778.003906 L 415.214844 778.003906 C 414.335938 778.003906 413.625 777.285156 413.625 776.410156 L 413.625 765.644531 C 413.625 764.769531 414.335938 764.058594 415.214844 764.058594 L 425.984375 764.058594 C 426.863281 764.058594 427.574219 764.769531 427.574219 765.644531 L 427.574219 776.410156 C 427.574219 777.285156 426.863281 778.003906 425.984375 778.003906 "/>
<path style=" stroke:none;fill-rule:nonzero;fill:rgb(100%,100%,100%);fill-opacity:1;" d="M 431.054688 779.414062 L 447.835938 779.414062 L 447.835938 762.644531 L 431.054688 762.644531 Z M 448.867188 781.476562 L 430.023438 781.476562 C 429.453125 781.476562 428.992188 781.015625 428.992188 780.445312 L 428.992188 761.613281 C 428.992188 761.042969 429.453125 760.582031 430.023438 760.582031 L 448.867188 760.582031 C 449.4375 760.582031 449.898438 761.042969 449.898438 761.613281 L 449.898438 780.445312 C 449.898438 781.015625 449.4375 781.476562 448.867188 781.476562 "/>
<path style=" stroke:none;fill-rule:nonzero;fill:rgb(100%,100%,100%);fill-opacity:1;" d="M 439.128906 772.035156 C 439.265625 772.035156 439.398438 772.089844 439.492188 772.1875 L 444.117188 776.804688 C 444.328125 777.019531 444.699219 777.019531 444.910156 776.804688 C 445.128906 776.589844 445.128906 776.234375 444.910156 776.011719 L 440.289062 771.394531 C 440.191406 771.296875 440.136719 771.164062 440.136719 771.03125 C 440.136719 770.890625 440.191406 770.761719 440.289062 770.667969 L 444.910156 766.042969 C 445.128906 765.828125 445.128906 765.46875 444.910156 765.25 C 444.695312 765.039062 444.328125 765.039062 444.117188 765.25 L 439.492188 769.871094 C 439.300781 770.0625 438.957031 770.0625 438.765625 769.871094 L 434.140625 765.25 C 433.929688 765.039062 433.558594 765.039062 433.347656 765.25 C 433.128906 765.46875 433.128906 765.828125 433.347656 766.042969 L 437.96875 770.667969 C 438.171875 770.867188 438.171875 771.191406 437.96875 771.394531 L 433.347656 776.011719 C 433.242188 776.117188 433.183594 776.257812 433.183594 776.410156 C 433.183594 776.558594 433.242188 776.699219 433.347656 776.804688 C 433.558594 777.019531 433.925781 777.019531 434.140625 776.804688 L 438.765625 772.1875 C 438.863281 772.089844 438.992188 772.035156 439.128906 772.035156 Z M 444.511719 778.003906 C 444.085938 778.003906 443.6875 777.835938 443.390625 777.535156 L 439.128906 773.28125 L 434.871094 777.535156 C 434.265625 778.136719 433.21875 778.136719 432.617188 777.535156 C 432.316406 777.234375 432.152344 776.835938 432.152344 776.410156 C 432.152344 775.984375 432.316406 775.585938 432.617188 775.28125 L 436.875 771.03125 L 432.617188 766.773438 C 431.996094 766.152344 431.996094 765.140625 432.617188 764.523438 C 433.21875 763.921875 434.269531 763.921875 434.871094 764.523438 L 439.128906 768.777344 L 443.386719 764.523438 C 443.984375 763.921875 445.039062 763.921875 445.636719 764.519531 C 446.257812 765.140625 446.257812 766.152344 445.640625 766.773438 L 441.382812 771.03125 L 445.636719 775.28125 C 446.257812 775.902344 446.257812 776.914062 445.636719 777.535156 C 445.335938 777.835938 444.941406 778.003906 444.511719 778.003906 "/>
<path style=" stroke:none;fill-rule:nonzero;fill:rgb(100%,100%,100%);fill-opacity:1;" d="M 702.46875 780.304688 L 721.03125 780.304688 L 721.03125 761.753906 L 702.46875 761.753906 Z M 722.0625 782.367188 L 701.433594 782.367188 C 700.867188 782.367188 700.402344 781.90625 700.402344 781.339844 L 700.402344 760.722656 C 700.402344 760.152344 700.867188 759.691406 701.433594 759.691406 L 722.0625 759.691406 C 722.632812 759.691406 723.09375 760.152344 723.09375 760.722656 L 723.09375 781.339844 C 723.09375 781.90625 722.632812 782.367188 722.0625 782.367188 "/>
<path style=" stroke:none;fill-rule:nonzero;fill:rgb(100%,100%,100%);fill-opacity:1;" d="M 710.863281 765.363281 C 710.757812 765.363281 710.65625 765.410156 710.601562 765.484375 C 710.550781 765.554688 710.523438 765.636719 710.535156 765.722656 C 710.550781 765.808594 710.589844 765.886719 710.660156 765.9375 L 711.128906 766.296875 C 711.289062 766.421875 711.359375 766.628906 711.316406 766.824219 C 711.269531 767.019531 711.113281 767.171875 710.914062 767.210938 C 709.074219 767.566406 707.605469 768.964844 707.160156 770.769531 C 706.859375 772.011719 707.058594 773.296875 707.722656 774.390625 C 708.378906 775.480469 709.429688 776.25 710.671875 776.558594 C 711.046875 776.648438 711.425781 776.695312 711.8125 776.695312 C 714.023438 776.695312 715.9375 775.195312 716.464844 773.050781 C 716.484375 772.960938 716.472656 772.875 716.425781 772.800781 C 716.378906 772.726562 716.3125 772.675781 716.226562 772.65625 C 716.011719 772.652344 715.867188 772.753906 715.832031 772.894531 C 715.378906 774.75 713.722656 776.046875 711.8125 776.046875 C 711.484375 776.046875 711.152344 776.003906 710.828125 775.925781 C 709.753906 775.664062 708.847656 775 708.273438 774.054688 C 707.699219 773.105469 707.53125 771.996094 707.792969 770.921875 C 708.105469 769.644531 709.03125 768.582031 710.261719 768.078125 C 710.5 767.980469 710.773438 768.074219 710.902344 768.296875 C 711.03125 768.519531 710.976562 768.800781 710.777344 768.960938 L 710.695312 769.027344 C 710.632812 769.074219 710.589844 769.152344 710.582031 769.242188 C 710.574219 769.328125 710.597656 769.410156 710.652344 769.476562 C 710.746094 769.597656 710.988281 769.621094 711.109375 769.527344 L 713.367188 767.699219 C 713.375 767.679688 713.425781 767.628906 713.4375 767.613281 L 713.972656 767.648438 L 713.476562 767.507812 C 713.472656 767.480469 713.476562 767.382812 713.476562 767.355469 C 713.464844 767.339844 713.433594 767.28125 713.410156 767.246094 C 713.410156 767.242188 713.410156 767.242188 713.40625 767.238281 C 713.375 767.214844 713.316406 767.15625 713.292969 767.125 L 711.054688 765.421875 C 711.003906 765.386719 710.9375 765.363281 710.863281 765.363281 Z M 711.8125 777.722656 C 711.34375 777.722656 710.878906 777.667969 710.425781 777.558594 C 708.917969 777.1875 707.640625 776.25 706.835938 774.921875 C 706.03125 773.597656 705.792969 772.035156 706.160156 770.527344 C 706.621094 768.65625 707.984375 767.144531 709.757812 766.472656 C 709.628906 766.292969 709.542969 766.085938 709.511719 765.859375 C 709.464844 765.5 709.5625 765.144531 709.785156 764.855469 C 710.210938 764.296875 711.128906 764.179688 711.683594 764.605469 L 713.988281 766.375 C 714.003906 766.386719 714.023438 766.40625 714.042969 766.421875 C 714.066406 766.441406 714.089844 766.464844 714.097656 766.472656 C 714.125 766.5 714.148438 766.523438 714.167969 766.546875 C 714.179688 766.558594 714.191406 766.574219 714.203125 766.582031 C 714.222656 766.605469 714.277344 766.6875 714.296875 766.714844 C 714.300781 766.714844 714.328125 766.753906 714.347656 766.796875 C 714.355469 766.804688 714.386719 766.878906 714.394531 766.890625 C 714.4375 766.996094 714.453125 767.03125 714.460938 767.070312 C 714.464844 767.085938 714.484375 767.171875 714.484375 767.183594 C 714.496094 767.222656 714.511719 767.28125 714.511719 767.355469 C 714.515625 767.472656 714.515625 767.515625 714.511719 767.558594 C 714.511719 767.574219 714.496094 767.660156 714.496094 767.671875 C 714.476562 767.761719 714.46875 767.796875 714.457031 767.835938 C 714.40625 767.980469 714.390625 768.015625 714.375 768.046875 C 714.363281 768.074219 714.304688 768.167969 714.289062 768.191406 C 714.292969 768.195312 714.257812 768.242188 714.21875 768.292969 C 714.144531 768.382812 714.082031 768.441406 714.015625 768.5 L 711.757812 770.328125 C 711.21875 770.765625 710.292969 770.667969 709.851562 770.128906 C 709.75 770.003906 709.671875 769.863281 709.621094 769.714844 C 709.222656 770.113281 708.933594 770.613281 708.792969 771.171875 C 708.597656 771.972656 708.726562 772.808594 709.15625 773.519531 C 709.585938 774.230469 710.265625 774.730469 711.070312 774.925781 C 712.753906 775.339844 714.429688 774.28125 714.832031 772.648438 C 715.003906 771.949219 715.761719 771.480469 716.472656 771.65625 C 716.824219 771.742188 717.121094 771.957031 717.304688 772.265625 C 717.496094 772.578125 717.546875 772.941406 717.464844 773.289062 C 716.824219 775.902344 714.503906 777.722656 711.8125 777.722656 "/>
<path style=" stroke:none;fill-rule:nonzero;fill:rgb(100%,100%,100%);fill-opacity:1;" d="M 479.058594 779.414062 L 495.839844 779.414062 L 495.839844 762.644531 L 479.058594 762.644531 Z M 496.871094 781.476562 L 478.027344 781.476562 C 477.457031 781.476562 476.996094 781.015625 476.996094 780.445312 L 476.996094 761.613281 C 476.996094 761.042969 477.457031 760.582031 478.027344 760.582031 L 496.871094 760.582031 C 497.441406 760.582031 497.90625 761.042969 497.90625 761.613281 L 497.90625 780.445312 C 497.90625 781.015625 497.441406 781.476562 496.871094 781.476562 "/>
<path style=" stroke:none;fill-rule:nonzero;fill:rgb(100%,100%,100%);fill-opacity:1;" d="M 484.757812 765.085938 C 484.609375 765.085938 484.46875 765.144531 484.363281 765.25 C 484.253906 765.355469 484.195312 765.496094 484.195312 765.644531 C 484.195312 765.796875 484.253906 765.9375 484.363281 766.042969 L 488.984375 770.667969 C 489.078125 770.761719 489.136719 770.890625 489.136719 771.03125 C 489.136719 771.164062 489.078125 771.296875 488.984375 771.394531 L 484.363281 776.011719 C 484.253906 776.117188 484.195312 776.257812 484.195312 776.410156 C 484.195312 776.558594 484.253906 776.699219 484.363281 776.804688 C 484.574219 777.019531 484.941406 777.019531 485.15625 776.804688 L 490.539062 771.425781 C 490.644531 771.320312 490.703125 771.179688 490.703125 771.03125 C 490.703125 770.878906 490.644531 770.738281 490.539062 770.632812 L 485.15625 765.25 C 485.050781 765.144531 484.910156 765.085938 484.757812 765.085938 Z M 484.757812 778.003906 C 484.332031 778.003906 483.929688 777.835938 483.632812 777.535156 C 483.332031 777.234375 483.167969 776.835938 483.167969 776.410156 C 483.167969 775.984375 483.332031 775.585938 483.632812 775.28125 L 487.890625 771.03125 L 483.632812 766.773438 C 483.332031 766.472656 483.167969 766.074219 483.167969 765.644531 C 483.167969 765.222656 483.332031 764.824219 483.632812 764.523438 C 484.230469 763.925781 485.28125 763.917969 485.882812 764.519531 L 491.265625 769.90625 C 491.570312 770.203125 491.738281 770.605469 491.738281 771.03125 C 491.738281 771.453125 491.570312 771.855469 491.265625 772.15625 L 485.882812 777.535156 C 485.582031 777.835938 485.183594 778.003906 484.757812 778.003906 "/>
<path style=" stroke:none;fill-rule:nonzero;fill:rgb(100%,100%,100%);fill-opacity:1;" d="M 460.214844 779.414062 L 476.996094 779.414062 L 476.996094 762.644531 L 460.214844 762.644531 Z M 478.027344 781.476562 L 459.179688 781.476562 C 458.613281 781.476562 458.152344 781.015625 458.152344 780.445312 L 458.152344 761.613281 C 458.152344 761.042969 458.613281 760.582031 459.179688 760.582031 L 478.027344 760.582031 C 478.597656 760.582031 479.058594 761.042969 479.058594 761.613281 L 479.058594 780.445312 C 479.058594 781.015625 478.597656 781.476562 478.027344 781.476562 "/>
<path style=" stroke:none;fill-rule:nonzero;fill:rgb(100%,100%,100%);fill-opacity:1;" d="M 471.445312 764.726562 C 471.28125 764.726562 471.125 764.792969 471.007812 764.910156 L 465.324219 770.589844 C 465.207031 770.707031 465.144531 770.863281 465.144531 771.03125 C 465.144531 771.195312 465.207031 771.351562 465.324219 771.46875 L 471.007812 777.148438 C 471.238281 777.382812 471.652344 777.382812 471.886719 777.144531 C 472.128906 776.90625 472.128906 776.511719 471.886719 776.269531 L 467.003906 771.394531 C 466.910156 771.296875 466.855469 771.164062 466.855469 771.03125 C 466.855469 770.890625 466.910156 770.761719 467.003906 770.667969 L 471.886719 765.789062 C 472.128906 765.546875 472.128906 765.152344 471.886719 764.910156 C 471.769531 764.792969 471.613281 764.726562 471.445312 764.726562 Z M 471.445312 778.359375 C 471.003906 778.359375 470.589844 778.1875 470.277344 777.875 L 464.59375 772.199219 C 464.28125 771.882812 464.113281 771.46875 464.113281 771.03125 C 464.113281 770.585938 464.28125 770.171875 464.59375 769.859375 L 470.277344 764.183594 C 470.902344 763.558594 471.992188 763.558594 472.617188 764.183594 C 473.257812 764.828125 473.257812 765.871094 472.617188 766.515625 L 468.097656 771.03125 L 472.617188 775.539062 C 473.257812 776.183594 473.257812 777.234375 472.617188 777.875 C 472.300781 778.1875 471.886719 778.359375 471.445312 778.359375 "/>
<path style=" stroke:none;fill-rule:nonzero;fill:rgb(100%,100%,100%);fill-opacity:1;" d="M 393.363281 831.6875 L 477.589844 831.6875 L 477.589844 809.082031 L 393.363281 809.082031 Z M 478.621094 833.746094 L 392.332031 833.746094 C 391.761719 833.746094 391.300781 833.285156 391.300781 832.714844 L 391.300781 808.050781 C 391.300781 807.484375 391.761719 807.023438 392.332031 807.023438 L 478.621094 807.023438 C 479.1875 807.023438 479.652344 807.484375 479.652344 808.050781 L 479.652344 832.714844 C 479.652344 833.285156 479.1875 833.746094 478.621094 833.746094 "/>
<path style=" stroke:none;fill-rule:nonzero;fill:rgb(100%,100%,100%);fill-opacity:1;" d="M 393.363281 856.351562 L 477.589844 856.351562 L 477.589844 833.746094 L 393.363281 833.746094 Z M 478.621094 858.410156 L 392.332031 858.410156 C 391.761719 858.410156 391.300781 857.949219 391.300781 857.378906 L 391.300781 832.714844 C 391.300781 832.144531 391.761719 831.683594 392.332031 831.683594 L 478.621094 831.683594 C 479.1875 831.683594 479.652344 832.144531 479.652344 832.714844 L 479.652344 857.378906 C 479.652344 857.949219 479.1875 858.410156 478.621094 858.410156 "/>
<path style=" stroke:none;fill-rule:nonzero;fill:rgb(100%,100%,100%);fill-opacity:1;" d="M 393.363281 881.011719 L 477.589844 881.011719 L 477.589844 858.410156 L 393.363281 858.410156 Z M 478.621094 883.074219 L 392.332031 883.074219 C 391.761719 883.074219 391.300781 882.613281 391.300781 882.042969 L 391.300781 857.378906 C 391.300781 856.808594 391.761719 856.347656 392.332031 856.347656 L 478.621094 856.347656 C 479.1875 856.347656 479.652344 856.808594 479.652344 857.378906 L 479.652344 882.042969 C 479.652344 882.613281 479.1875 883.074219 478.621094 883.074219 "/>
<path style=" stroke:none;fill-rule:nonzero;fill:rgb(100%,100%,100%);fill-opacity:1;" d="M 393.363281 905.675781 L 477.589844 905.675781 L 477.589844 883.070312 L 393.363281 883.070312 Z M 478.621094 907.738281 L 392.332031 907.738281 C 391.761719 907.738281 391.300781 907.273438 391.300781 906.707031 L 391.300781 882.042969 C 391.300781 881.472656 391.761719 881.011719 392.332031 881.011719 L 478.621094 881.011719 C 479.1875 881.011719 479.652344 881.472656 479.652344 882.042969 L 479.652344 906.707031 C 479.652344 907.273438 479.1875 907.738281 478.621094 907.738281 "/>
<path style=" stroke:none;fill-rule:nonzero;fill:rgb(100%,100%,100%);fill-opacity:1;" d="M 393.363281 930.339844 L 477.589844 930.339844 L 477.589844 907.738281 L 393.363281 907.738281 Z M 478.621094 932.398438 L 392.332031 932.398438 C 391.761719 932.398438 391.300781 931.941406 391.300781 931.371094 L 391.300781 906.703125 C 391.300781 906.136719 391.761719 905.675781 392.332031 905.675781 L 478.621094 905.675781 C 479.1875 905.675781 479.652344 906.136719 479.652344 906.703125 L 479.652344 931.371094 C 479.652344 931.941406 479.1875 932.398438 478.621094 932.398438 "/>
<path style=" stroke:none;fill-rule:nonzero;fill:rgb(100%,100%,100%);fill-opacity:1;" d="M 393.363281 955.003906 L 477.589844 955.003906 L 477.589844 932.398438 L 393.363281 932.398438 Z M 478.621094 957.0625 L 392.332031 957.0625 C 391.761719 957.0625 391.300781 956.601562 391.300781 956.03125 L 391.300781 931.371094 C 391.300781 930.800781 391.761719 930.335938 392.332031 930.335938 L 478.621094 930.335938 C 479.1875 930.335938 479.652344 930.800781 479.652344 931.371094 L 479.652344 956.03125 C 479.652344 956.601562 479.1875 957.0625 478.621094 957.0625 "/>
<path style=" stroke:none;fill-rule:nonzero;fill:rgb(100%,100%,100%);fill-opacity:1;" d="M 414.136719 957.0625 C 413.570312 957.0625 413.105469 956.601562 413.105469 956.03125 L 413.105469 808.265625 C 413.105469 807.695312 413.570312 807.234375 414.136719 807.234375 C 414.710938 807.234375 415.171875 807.695312 415.171875 808.265625 L 415.171875 956.03125 C 415.171875 956.601562 414.710938 957.0625 414.136719 957.0625 "/>
<path style=" stroke:none;fill-rule:nonzero;fill:rgb(100%,100%,100%);fill-opacity:1;" d="M 495.480469 822.933594 L 715.230469 822.933594 L 715.230469 809.082031 L 495.480469 809.082031 Z M 716.261719 824.992188 L 494.449219 824.992188 C 493.878906 824.992188 493.417969 824.535156 493.417969 823.964844 L 493.417969 808.050781 C 493.417969 807.484375 493.878906 807.023438 494.449219 807.023438 L 716.261719 807.023438 C 716.832031 807.023438 717.296875 807.484375 717.296875 808.050781 L 717.296875 823.964844 C 717.296875 824.535156 716.832031 824.992188 716.261719 824.992188 "/>
<path style=" stroke:none;fill-rule:nonzero;fill:rgb(100%,100%,100%);fill-opacity:1;" d="M 495.480469 855.9375 L 715.230469 855.9375 L 715.230469 842.089844 L 495.480469 842.089844 Z M 716.261719 858 L 494.449219 858 C 493.878906 858 493.417969 857.539062 493.417969 856.96875 L 493.417969 841.058594 C 493.417969 840.488281 493.878906 840.03125 494.449219 840.03125 L 716.261719 840.03125 C 716.832031 840.03125 717.296875 840.488281 717.296875 841.058594 L 717.296875 856.96875 C 717.296875 857.539062 716.832031 858 716.261719 858 "/>
<path style=" stroke:none;fill-rule:nonzero;fill:rgb(100%,100%,100%);fill-opacity:1;" d="M 495.480469 885 L 621.09375 885 L 621.09375 871.152344 L 495.480469 871.152344 Z M 622.128906 887.0625 L 494.449219 887.0625 C 493.878906 887.0625 493.417969 886.601562 493.417969 886.03125 L 493.417969 870.125 C 493.417969 869.554688 493.878906 869.089844 494.449219 869.089844 L 622.128906 869.089844 C 622.695312 869.089844 623.160156 869.554688 623.160156 870.125 L 623.160156 886.03125 C 623.160156 886.601562 622.695312 887.0625 622.128906 887.0625 "/>
<path style=" stroke:none;fill-rule:nonzero;fill:rgb(100%,100%,100%);fill-opacity:1;" d="M 495.480469 917.699219 L 621.09375 917.699219 L 621.09375 903.851562 L 495.480469 903.851562 Z M 622.128906 919.761719 L 494.449219 919.761719 C 493.878906 919.761719 493.417969 919.300781 493.417969 918.730469 L 493.417969 902.820312 C 493.417969 902.253906 493.878906 901.789062 494.449219 901.789062 L 622.128906 901.789062 C 622.695312 901.789062 623.160156 902.253906 623.160156 902.820312 L 623.160156 918.730469 C 623.160156 919.300781 622.695312 919.761719 622.128906 919.761719 "/>
<path style=" stroke:none;fill-rule:nonzero;fill:rgb(100%,100%,100%);fill-opacity:1;" d="M 495.933594 950.625 L 620.640625 950.625 L 620.640625 936.777344 L 495.933594 936.777344 Z M 621.671875 952.6875 L 494.90625 952.6875 C 494.332031 952.6875 493.871094 952.226562 493.871094 951.652344 L 493.871094 935.746094 C 493.871094 935.175781 494.332031 934.714844 494.90625 934.714844 L 621.671875 934.714844 C 622.242188 934.714844 622.703125 935.175781 622.703125 935.746094 L 622.703125 951.652344 C 622.703125 952.226562 622.242188 952.6875 621.671875 952.6875 "/>
</g>
</svg>
