<?xml version="1.0" encoding="UTF-8"?>
<svg xmlns="http://www.w3.org/2000/svg" xmlns:xlink="http://www.w3.org/1999/xlink" width="1190.25pt" height="1683.749945pt" viewBox="0 0 1190.25 1683.749945" version="1.2">
<defs>
<clipPath id="clip1">
  <path d="M 547 604.058594 L 643 604.058594 L 643 700 L 547 700 Z M 547 604.058594 "/>
</clipPath>
<clipPath id="clip2">
  <path d="M 547 984 L 643 984 L 643 1080.207031 L 547 1080.207031 Z M 547 984 "/>
</clipPath>
<clipPath id="clip3">
  <path d="M 357.089844 794 L 453 794 L 453 890 L 357.089844 890 Z M 357.089844 794 "/>
</clipPath>
<clipPath id="clip4">
  <path d="M 738 794 L 833.238281 794 L 833.238281 890 L 738 890 Z M 738 794 "/>
</clipPath>
</defs>
<g id="surface1">
<path style=" stroke:none;fill-rule:nonzero;fill:rgb(32.159424%,34.509277%,57.649231%);fill-opacity:1;" d="M 563.421875 810.390625 L 626.90625 810.390625 L 626.90625 842.132812 L 563.421875 842.132812 Z M 555.484375 858.003906 L 587.230469 858.003906 L 587.230469 873.875 L 571.355469 873.875 L 571.355469 889.746094 L 618.972656 889.746094 L 618.972656 873.875 L 603.101562 873.875 L 603.101562 858.003906 L 634.84375 858.003906 C 639.214844 858.003906 642.78125 854.4375 642.78125 850.066406 L 642.78125 802.453125 C 642.78125 798.082031 639.214844 794.515625 634.84375 794.515625 L 555.484375 794.515625 C 551.113281 794.515625 547.550781 798.082031 547.550781 802.453125 L 547.550781 850.066406 C 547.550781 854.4375 551.113281 858.003906 555.484375 858.003906 "/>
<g clip-path="url(#clip1)" clip-rule="nonzero">
<path style=" stroke:none;fill-rule:nonzero;fill:rgb(32.159424%,34.509277%,57.649231%);fill-opacity:1;" d="M 563.421875 619.929688 L 626.90625 619.929688 L 626.90625 651.671875 L 563.421875 651.671875 Z M 555.484375 667.542969 L 587.230469 667.542969 L 587.230469 683.414062 L 571.355469 683.414062 L 571.355469 699.289062 L 618.972656 699.289062 L 618.972656 683.414062 L 603.101562 683.414062 L 603.101562 667.542969 L 634.84375 667.542969 C 639.214844 667.542969 642.78125 663.980469 642.78125 659.609375 L 642.78125 611.992188 C 642.78125 607.621094 639.214844 604.058594 634.84375 604.058594 L 555.484375 604.058594 C 551.113281 604.058594 547.550781 607.621094 547.550781 611.992188 L 547.550781 659.609375 C 547.550781 663.980469 551.113281 667.542969 555.484375 667.542969 "/>
</g>
<g clip-path="url(#clip2)" clip-rule="nonzero">
<path style=" stroke:none;fill-rule:nonzero;fill:rgb(32.159424%,34.509277%,57.649231%);fill-opacity:1;" d="M 563.421875 1000.847656 L 626.90625 1000.847656 L 626.90625 1032.59375 L 563.421875 1032.59375 Z M 634.84375 1048.464844 C 639.214844 1048.464844 642.78125 1044.898438 642.78125 1040.527344 L 642.78125 992.914062 C 642.78125 988.542969 639.214844 984.976562 634.84375 984.976562 L 555.484375 984.976562 C 551.113281 984.976562 547.550781 988.542969 547.550781 992.914062 L 547.550781 1040.527344 C 547.550781 1044.898438 551.113281 1048.464844 555.484375 1048.464844 L 587.230469 1048.464844 L 587.230469 1064.335938 L 571.355469 1064.335938 L 571.355469 1080.207031 L 618.972656 1080.207031 L 618.972656 1064.335938 L 603.101562 1064.335938 L 603.101562 1048.464844 L 634.84375 1048.464844 "/>
</g>
<g clip-path="url(#clip3)" clip-rule="nonzero">
<path style=" stroke:none;fill-rule:nonzero;fill:rgb(32.159424%,34.509277%,57.649231%);fill-opacity:1;" d="M 372.960938 810.390625 L 436.449219 810.390625 L 436.449219 842.132812 L 372.960938 842.132812 Z M 365.027344 858.003906 L 396.769531 858.003906 L 396.769531 873.875 L 380.898438 873.875 L 380.898438 889.746094 L 428.511719 889.746094 L 428.511719 873.875 L 412.640625 873.875 L 412.640625 858.003906 L 444.382812 858.003906 C 448.753906 858.003906 452.320312 854.4375 452.320312 850.066406 L 452.320312 802.453125 C 452.320312 798.082031 448.753906 794.515625 444.382812 794.515625 L 365.027344 794.515625 C 360.65625 794.515625 357.089844 798.082031 357.089844 802.453125 L 357.089844 850.066406 C 357.089844 854.4375 360.65625 858.003906 365.027344 858.003906 "/>
</g>
<g clip-path="url(#clip4)" clip-rule="nonzero">
<path style=" stroke:none;fill-rule:nonzero;fill:rgb(32.159424%,34.509277%,57.649231%);fill-opacity:1;" d="M 817.367188 842.132812 L 753.882812 842.132812 L 753.882812 810.390625 L 817.367188 810.390625 Z M 825.304688 794.515625 L 745.945312 794.515625 C 741.574219 794.515625 738.007812 798.082031 738.007812 802.453125 L 738.007812 850.066406 C 738.007812 854.4375 741.574219 858.003906 745.945312 858.003906 L 777.6875 858.003906 L 777.6875 873.875 L 761.816406 873.875 L 761.816406 889.746094 L 809.433594 889.746094 L 809.433594 873.875 L 793.558594 873.875 L 793.558594 858.003906 L 825.304688 858.003906 C 829.675781 858.003906 833.238281 854.4375 833.238281 850.066406 L 833.238281 802.453125 C 833.238281 798.082031 829.675781 794.515625 825.304688 794.515625 "/>
</g>
<path style=" stroke:none;fill-rule:nonzero;fill:rgb(32.159424%,34.509277%,57.649231%);fill-opacity:1;" d="M 420.578125 667.542969 L 484.0625 667.542969 L 484.0625 699.289062 L 420.578125 699.289062 Z M 412.640625 715.160156 L 444.382812 715.160156 L 444.382812 731.03125 L 428.511719 731.03125 L 428.511719 746.902344 L 476.128906 746.902344 L 476.128906 731.03125 L 460.253906 731.03125 L 460.253906 715.160156 L 492 715.160156 C 496.371094 715.160156 499.933594 711.59375 499.933594 707.222656 L 499.933594 659.609375 C 499.933594 655.238281 496.371094 651.671875 492 651.671875 L 412.640625 651.671875 C 408.269531 651.671875 404.703125 655.238281 404.703125 659.609375 L 404.703125 707.222656 C 404.703125 711.59375 408.269531 715.160156 412.640625 715.160156 "/>
<path style=" stroke:none;fill-rule:nonzero;fill:rgb(32.159424%,34.509277%,57.649231%);fill-opacity:1;" d="M 706.265625 667.542969 L 769.753906 667.542969 L 769.753906 699.289062 L 706.265625 699.289062 Z M 698.332031 715.160156 L 730.074219 715.160156 L 730.074219 731.03125 L 714.203125 731.03125 L 714.203125 746.902344 L 761.816406 746.902344 L 761.816406 731.03125 L 745.945312 731.03125 L 745.945312 715.160156 L 777.6875 715.160156 C 782.058594 715.160156 785.625 711.59375 785.625 707.222656 L 785.625 659.609375 C 785.625 655.238281 782.058594 651.671875 777.6875 651.671875 L 698.332031 651.671875 C 693.960938 651.671875 690.394531 655.238281 690.394531 659.609375 L 690.394531 707.222656 C 690.394531 711.59375 693.960938 715.160156 698.332031 715.160156 "/>
<path style=" stroke:none;fill-rule:nonzero;fill:rgb(32.159424%,34.509277%,57.649231%);fill-opacity:1;" d="M 420.578125 953.234375 L 484.0625 953.234375 L 484.0625 984.976562 L 420.578125 984.976562 Z M 492 1000.847656 C 496.371094 1000.847656 499.933594 997.285156 499.933594 992.914062 L 499.933594 945.296875 C 499.933594 940.925781 496.371094 937.363281 492 937.363281 L 412.640625 937.363281 C 408.269531 937.363281 404.703125 940.925781 404.703125 945.296875 L 404.703125 992.914062 C 404.703125 997.285156 408.269531 1000.847656 412.640625 1000.847656 L 444.382812 1000.847656 L 444.382812 1016.71875 L 428.511719 1016.71875 L 428.511719 1032.59375 L 476.128906 1032.59375 L 476.128906 1016.71875 L 460.253906 1016.71875 L 460.253906 1000.847656 L 492 1000.847656 "/>
<path style=" stroke:none;fill-rule:nonzero;fill:rgb(32.159424%,34.509277%,57.649231%);fill-opacity:1;" d="M 706.265625 953.234375 L 769.753906 953.234375 L 769.753906 984.976562 L 706.265625 984.976562 Z M 777.6875 1000.847656 C 782.058594 1000.847656 785.625 997.285156 785.625 992.914062 L 785.625 945.296875 C 785.625 940.925781 782.058594 937.363281 777.6875 937.363281 L 698.332031 937.363281 C 693.960938 937.363281 690.394531 940.925781 690.394531 945.296875 L 690.394531 992.914062 C 690.394531 997.285156 693.960938 1000.847656 698.332031 1000.847656 L 730.074219 1000.847656 L 730.074219 1016.71875 L 714.203125 1016.71875 L 714.203125 1032.59375 L 761.816406 1032.59375 L 761.816406 1016.71875 L 745.945312 1016.71875 L 745.945312 1000.847656 L 777.6875 1000.847656 "/>
<path style=" stroke:none;fill-rule:nonzero;fill:rgb(32.159424%,34.509277%,57.649231%);fill-opacity:1;" d="M 603.101562 778.644531 L 603.101562 715.160156 L 587.230469 715.160156 L 587.230469 778.644531 L 603.101562 778.644531 "/>
<path style=" stroke:none;fill-rule:nonzero;fill:rgb(32.159424%,34.509277%,57.649231%);fill-opacity:1;" d="M 587.230469 905.617188 L 587.230469 969.105469 L 603.101562 969.105469 L 603.101562 905.617188 L 587.230469 905.617188 "/>
<path style=" stroke:none;fill-rule:nonzero;fill:rgb(32.159424%,34.509277%,57.649231%);fill-opacity:1;" d="M 531.679688 834.195312 L 468.191406 834.195312 L 468.191406 850.066406 L 531.679688 850.066406 L 531.679688 834.195312 "/>
<path style=" stroke:none;fill-rule:nonzero;fill:rgb(32.159424%,34.509277%,57.649231%);fill-opacity:1;" d="M 534.003906 792.191406 L 545.226562 780.96875 L 505.546875 741.292969 L 494.324219 752.511719 L 534.003906 792.191406 "/>
<path style=" stroke:none;fill-rule:nonzero;fill:rgb(32.159424%,34.509277%,57.649231%);fill-opacity:1;" d="M 553.160156 895.359375 L 541.9375 884.136719 L 502.261719 923.816406 L 513.480469 935.039062 L 553.160156 895.359375 "/>
<path style=" stroke:none;fill-rule:nonzero;fill:rgb(32.159424%,34.509277%,57.649231%);fill-opacity:1;" d="M 658.652344 850.066406 L 722.136719 850.066406 L 722.136719 834.195312 L 658.652344 834.195312 L 658.652344 850.066406 "/>
<path style=" stroke:none;fill-rule:nonzero;fill:rgb(32.159424%,34.509277%,57.649231%);fill-opacity:1;" d="M 696.003906 752.511719 L 684.785156 741.292969 L 645.105469 780.96875 L 656.328125 792.191406 L 696.003906 752.511719 "/>
<path style=" stroke:none;fill-rule:nonzero;fill:rgb(32.159424%,34.509277%,57.649231%);fill-opacity:1;" d="M 688.070312 923.816406 L 648.390625 884.136719 L 637.167969 895.359375 L 676.847656 935.039062 L 688.070312 923.816406 "/>
</g>
</svg>
