<?xml version="1.0" encoding="UTF-8"?>
<svg xmlns="http://www.w3.org/2000/svg" xmlns:xlink="http://www.w3.org/1999/xlink" width="1190.25pt" height="1683.749945pt" viewBox="0 0 1190.25 1683.749945" version="1.2">
<defs>
<clipPath id="clip1">
  <path d="M 357.089844 607.925781 L 833.238281 607.925781 L 833.238281 1076.578125 L 357.089844 1076.578125 Z M 357.089844 607.925781 "/>
</clipPath>
</defs>
<g id="surface1">
<g clip-path="url(#clip1)" clip-rule="nonzero">
<path style=" stroke:none;fill-rule:nonzero;fill:rgb(32.159424%,34.509277%,57.649231%);fill-opacity:1;" d="M 781.789062 607.925781 L 408.542969 607.925781 C 380.289062 607.925781 357.238281 630.988281 357.238281 659.253906 L 357.238281 697.9375 C 357.238281 726.203125 380.289062 749.265625 408.542969 749.265625 L 587.730469 749.265625 L 587.730469 771.582031 L 408.542969 771.582031 C 380.289062 771.582031 357.238281 794.640625 357.238281 822.910156 L 357.238281 861.59375 C 357.238281 889.859375 380.289062 912.921875 408.542969 912.921875 L 587.730469 912.921875 L 587.730469 935.238281 L 408.542969 935.238281 C 380.289062 935.238281 357.238281 958.296875 357.238281 986.566406 L 357.238281 1025.25 C 357.238281 1053.515625 380.289062 1076.578125 408.542969 1076.578125 L 781.789062 1076.578125 C 810.042969 1076.578125 833.089844 1053.515625 833.089844 1025.25 L 833.089844 986.566406 C 833.089844 958.296875 810.042969 935.238281 781.789062 935.238281 L 602.601562 935.238281 L 602.601562 912.921875 L 781.789062 912.921875 C 810.042969 912.921875 833.089844 889.859375 833.089844 861.59375 L 833.089844 822.910156 C 833.089844 794.640625 810.042969 771.582031 781.789062 771.582031 L 602.601562 771.582031 L 602.601562 749.265625 L 781.789062 749.265625 C 810.042969 749.265625 833.089844 726.203125 833.089844 697.9375 L 833.089844 659.253906 C 833.089844 630.988281 810.042969 607.925781 781.789062 607.925781 Z M 818.21875 986.566406 L 818.21875 1025.25 C 818.21875 1045.332031 801.863281 1061.699219 781.789062 1061.699219 L 408.542969 1061.699219 C 388.46875 1061.699219 372.109375 1045.332031 372.109375 1025.25 L 372.109375 986.566406 C 372.109375 966.480469 388.46875 950.117188 408.542969 950.117188 L 781.789062 950.117188 C 801.863281 950.117188 818.21875 966.480469 818.21875 986.566406 Z M 818.21875 822.910156 L 818.21875 861.59375 C 818.21875 881.679688 801.863281 898.042969 781.789062 898.042969 L 408.542969 898.042969 C 388.46875 898.042969 372.109375 881.679688 372.109375 861.59375 L 372.109375 822.910156 C 372.109375 802.824219 388.46875 786.460938 408.542969 786.460938 L 781.789062 786.460938 C 801.863281 786.460938 818.21875 802.824219 818.21875 822.910156 Z M 818.21875 697.9375 C 818.21875 718.023438 801.863281 734.386719 781.789062 734.386719 L 408.542969 734.386719 C 388.46875 734.386719 372.109375 718.023438 372.109375 697.9375 L 372.109375 659.253906 C 372.109375 639.167969 388.46875 622.804688 408.542969 622.804688 L 781.789062 622.804688 C 801.863281 622.804688 818.21875 639.167969 818.21875 659.253906 Z M 818.21875 697.9375 "/>
</g>
<path style=" stroke:none;fill-rule:nonzero;fill:rgb(32.159424%,34.509277%,57.649231%);fill-opacity:1;" d="M 550.554688 652.558594 L 424.15625 652.558594 C 411.515625 652.558594 401.851562 662.230469 401.851562 674.875 L 401.851562 682.316406 C 401.851562 694.21875 411.515625 704.632812 424.15625 704.632812 L 550.554688 704.632812 C 562.449219 704.632812 572.859375 694.960938 572.859375 682.316406 L 572.859375 674.875 C 572.859375 662.230469 563.195312 652.558594 550.554688 652.558594 Z M 557.988281 682.316406 C 557.988281 686.035156 555.015625 689.753906 550.554688 689.753906 L 424.15625 689.753906 C 420.4375 689.753906 416.71875 686.777344 416.71875 682.316406 L 416.71875 674.875 C 416.71875 671.15625 419.695312 667.4375 424.15625 667.4375 L 550.554688 667.4375 C 554.269531 667.4375 557.988281 670.414062 557.988281 674.875 Z M 557.988281 682.316406 "/>
<path style=" stroke:none;fill-rule:nonzero;fill:rgb(32.159424%,34.509277%,57.649231%);fill-opacity:1;" d="M 755.765625 652.558594 C 741.636719 652.558594 729.742188 664.460938 729.742188 678.59375 C 729.742188 692.730469 741.636719 704.632812 755.765625 704.632812 C 769.890625 704.632812 781.789062 692.730469 781.789062 678.59375 C 781.789062 664.460938 769.890625 652.558594 755.765625 652.558594 Z M 755.765625 689.753906 C 749.816406 689.753906 744.613281 684.546875 744.613281 678.59375 C 744.613281 672.644531 749.816406 667.4375 755.765625 667.4375 C 761.710938 667.4375 766.917969 672.644531 766.917969 678.59375 C 766.917969 684.546875 761.710938 689.753906 755.765625 689.753906 Z M 755.765625 689.753906 "/>
<path style=" stroke:none;fill-rule:nonzero;fill:rgb(32.159424%,34.509277%,57.649231%);fill-opacity:1;" d="M 644.238281 659.253906 C 633.828125 659.253906 624.90625 667.4375 624.90625 678.59375 C 624.90625 689.753906 633.085938 697.9375 644.238281 697.9375 C 654.644531 697.9375 663.570312 689.753906 663.570312 678.59375 C 663.570312 667.4375 654.644531 659.253906 644.238281 659.253906 Z M 644.238281 682.316406 C 642.007812 682.316406 639.777344 680.828125 639.777344 678.59375 C 639.777344 676.363281 641.261719 674.132812 644.238281 674.132812 C 646.46875 674.132812 648.699219 675.621094 648.699219 678.59375 C 648.699219 681.570312 646.46875 682.316406 644.238281 682.316406 Z M 644.238281 682.316406 "/>
<path style=" stroke:none;fill-rule:nonzero;fill:rgb(32.159424%,34.509277%,57.649231%);fill-opacity:1;" d="M 696.285156 659.253906 C 685.875 659.253906 676.953125 667.4375 676.953125 678.59375 C 676.953125 689.753906 685.128906 697.9375 696.285156 697.9375 C 706.691406 697.9375 715.613281 689.753906 715.613281 678.59375 C 715.613281 667.4375 706.691406 659.253906 696.285156 659.253906 Z M 696.285156 682.316406 C 694.050781 682.316406 691.820312 680.828125 691.820312 677.851562 C 691.820312 674.875 693.308594 673.386719 696.285156 673.386719 C 698.515625 673.386719 700.746094 674.875 700.746094 677.851562 C 700.746094 680.828125 698.515625 682.316406 696.285156 682.316406 Z M 696.285156 682.316406 "/>
<path style=" stroke:none;fill-rule:nonzero;fill:rgb(32.159424%,34.509277%,57.649231%);fill-opacity:1;" d="M 550.554688 816.214844 L 424.15625 816.214844 C 412.257812 816.214844 401.851562 825.886719 401.851562 838.53125 L 401.851562 845.972656 C 401.851562 857.875 411.515625 868.289062 424.15625 868.289062 L 550.554688 868.289062 C 562.449219 868.289062 572.859375 858.617188 572.859375 845.972656 L 572.859375 838.53125 C 572.859375 825.886719 563.195312 816.214844 550.554688 816.214844 Z M 557.988281 845.972656 C 557.988281 849.691406 555.015625 853.410156 550.554688 853.410156 L 424.15625 853.410156 C 420.4375 853.410156 416.71875 850.433594 416.71875 845.972656 L 416.71875 838.53125 C 416.71875 834.8125 419.695312 831.09375 424.15625 831.09375 L 550.554688 831.09375 C 554.269531 831.09375 557.988281 834.070312 557.988281 838.53125 Z M 557.988281 845.972656 "/>
<path style=" stroke:none;fill-rule:nonzero;fill:rgb(32.159424%,34.509277%,57.649231%);fill-opacity:1;" d="M 755.765625 867.542969 C 769.890625 867.542969 781.789062 855.640625 781.789062 841.507812 C 781.789062 827.375 769.890625 815.472656 755.765625 815.472656 C 741.636719 815.472656 729.742188 827.375 729.742188 841.507812 C 729.742188 855.640625 741.636719 867.542969 755.765625 867.542969 Z M 755.765625 830.347656 C 761.710938 830.347656 766.917969 835.554688 766.917969 841.507812 C 766.917969 847.457031 761.710938 852.664062 755.765625 852.664062 C 749.816406 852.664062 744.613281 847.457031 744.613281 841.507812 C 744.613281 835.554688 749.816406 830.347656 755.765625 830.347656 Z M 755.765625 830.347656 "/>
<path style=" stroke:none;fill-rule:nonzero;fill:rgb(32.159424%,34.509277%,57.649231%);fill-opacity:1;" d="M 644.238281 860.847656 C 654.644531 860.847656 663.570312 852.664062 663.570312 841.507812 C 663.570312 831.09375 655.390625 822.167969 644.238281 822.167969 C 633.828125 822.167969 624.90625 830.347656 624.90625 841.507812 C 624.90625 852.664062 633.828125 860.847656 644.238281 860.847656 Z M 644.238281 837.789062 C 646.46875 837.789062 648.699219 839.277344 648.699219 842.25 C 648.699219 844.484375 647.210938 846.714844 644.238281 846.714844 C 642.007812 846.714844 639.777344 845.226562 639.777344 842.25 C 639.777344 839.277344 642.007812 837.789062 644.238281 837.789062 Z M 644.238281 837.789062 "/>
<path style=" stroke:none;fill-rule:nonzero;fill:rgb(32.159424%,34.509277%,57.649231%);fill-opacity:1;" d="M 696.285156 860.847656 C 706.691406 860.847656 715.613281 852.664062 715.613281 841.507812 C 715.613281 831.09375 707.4375 822.167969 696.285156 822.167969 C 685.875 822.167969 676.953125 830.347656 676.953125 841.507812 C 677.695312 852.664062 685.875 860.847656 696.285156 860.847656 Z M 696.285156 837.789062 C 698.515625 837.789062 700.746094 839.277344 700.746094 842.25 C 700.746094 844.484375 699.257812 846.714844 696.285156 846.714844 C 694.050781 846.714844 691.820312 845.226562 691.820312 842.25 C 692.566406 839.277344 694.050781 837.789062 696.285156 837.789062 Z M 696.285156 837.789062 "/>
<path style=" stroke:none;fill-rule:nonzero;fill:rgb(32.159424%,34.509277%,57.649231%);fill-opacity:1;" d="M 550.554688 979.871094 L 424.15625 979.871094 C 412.257812 979.871094 401.851562 989.542969 401.851562 1002.1875 L 401.851562 1009.625 C 401.851562 1021.527344 411.515625 1031.945312 424.15625 1031.945312 L 550.554688 1031.945312 C 562.449219 1031.945312 572.859375 1022.273438 572.859375 1009.625 L 572.859375 1002.1875 C 572.859375 989.542969 563.195312 979.871094 550.554688 979.871094 Z M 557.988281 1009.625 C 557.988281 1013.347656 555.015625 1017.066406 550.554688 1017.066406 L 424.15625 1017.066406 C 420.4375 1017.066406 416.71875 1014.089844 416.71875 1009.625 L 416.71875 1002.1875 C 416.71875 998.46875 419.695312 994.75 424.15625 994.75 L 550.554688 994.75 C 554.269531 994.75 557.988281 997.726562 557.988281 1002.1875 Z M 557.988281 1009.625 "/>
<path style=" stroke:none;fill-rule:nonzero;fill:rgb(32.159424%,34.509277%,57.649231%);fill-opacity:1;" d="M 755.765625 1031.945312 C 769.890625 1031.945312 781.789062 1020.042969 781.789062 1005.90625 C 781.789062 991.773438 769.890625 979.871094 755.765625 979.871094 C 741.636719 979.871094 729.742188 991.773438 729.742188 1005.90625 C 729.742188 1020.042969 741.636719 1031.945312 755.765625 1031.945312 Z M 755.765625 994.75 C 761.710938 994.75 766.917969 999.957031 766.917969 1005.90625 C 766.917969 1011.859375 761.710938 1017.066406 755.765625 1017.066406 C 749.816406 1017.066406 744.613281 1011.859375 744.613281 1005.90625 C 744.613281 999.957031 749.816406 994.75 755.765625 994.75 Z M 755.765625 994.75 "/>
<path style=" stroke:none;fill-rule:nonzero;fill:rgb(32.159424%,34.509277%,57.649231%);fill-opacity:1;" d="M 644.238281 1025.25 C 654.644531 1025.25 663.570312 1017.066406 663.570312 1005.90625 C 663.570312 994.75 654.644531 987.308594 644.238281 987.308594 C 633.828125 987.308594 624.90625 995.492188 624.90625 1006.652344 C 624.90625 1017.808594 633.828125 1025.25 644.238281 1025.25 Z M 644.238281 1002.1875 C 646.46875 1002.1875 648.699219 1003.675781 648.699219 1006.652344 C 648.699219 1009.625 647.210938 1011.113281 644.238281 1011.113281 C 642.007812 1011.113281 639.777344 1009.625 639.777344 1006.652344 C 639.777344 1003.675781 642.007812 1002.1875 644.238281 1002.1875 Z M 644.238281 1002.1875 "/>
<path style=" stroke:none;fill-rule:nonzero;fill:rgb(32.159424%,34.509277%,57.649231%);fill-opacity:1;" d="M 696.285156 1025.25 C 706.691406 1025.25 715.613281 1017.066406 715.613281 1005.90625 C 715.613281 994.75 706.691406 987.308594 696.285156 987.308594 C 685.875 987.308594 676.953125 995.492188 676.953125 1006.652344 C 676.953125 1017.808594 685.875 1025.25 696.285156 1025.25 Z M 696.285156 1002.1875 C 698.515625 1002.1875 700.746094 1003.675781 700.746094 1006.652344 C 700.746094 1009.625 699.257812 1011.113281 696.285156 1011.113281 C 694.050781 1011.113281 691.820312 1009.625 691.820312 1006.652344 C 691.820312 1003.675781 694.050781 1002.1875 696.285156 1002.1875 Z M 696.285156 1002.1875 "/>
</g>
</svg>
