<?xml version="1.0" encoding="UTF-8"?>
<svg xmlns="http://www.w3.org/2000/svg" xmlns:xlink="http://www.w3.org/1999/xlink" width="1190.25pt" height="1683.749945pt" viewBox="0 0 1190.25 1683.749945" version="1.2">
<defs>
<clipPath id="clip1">
  <path d="M 445.96875 711.585938 L 744.40625 711.585938 L 744.40625 972.414062 L 445.96875 972.414062 Z M 445.96875 711.585938 "/>
</clipPath>
</defs>
<g id="surface1">
<g clip-path="url(#clip1)" clip-rule="nonzero">
<path style=" stroke:none;fill-rule:nonzero;fill:rgb(0%,0%,0%);fill-opacity:1;" d="M 595.230469 711.585938 C 512.929688 711.585938 445.96875 765.910156 445.96875 832.683594 C 445.96875 866.796875 463.359375 898.785156 493.957031 921.664062 C 484.777344 935.167969 471.15625 949.570312 453.058594 954.0625 C 448.730469 955.140625 445.765625 959.109375 445.988281 963.5625 C 446.210938 968.015625 449.535156 971.683594 453.957031 972.320312 C 454.628906 972.410156 460.167969 973.175781 469.273438 973.175781 C 488.210938 973.175781 522.523438 969.859375 560.210938 950.371094 C 571.386719 952.625 583.140625 953.78125 595.230469 953.78125 C 677.527344 953.78125 744.488281 899.457031 744.488281 832.683594 C 744.488281 765.910156 677.527344 711.585938 595.230469 711.585938 Z M 520.601562 860.628906 C 510.300781 860.628906 501.941406 852.28125 501.941406 842 C 501.941406 831.714844 510.300781 823.367188 520.601562 823.367188 C 530.898438 823.367188 539.257812 831.714844 539.257812 842 C 539.257812 852.28125 530.898438 860.628906 520.601562 860.628906 Z M 595.230469 860.628906 C 584.929688 860.628906 576.570312 852.28125 576.570312 842 C 576.570312 831.714844 584.929688 823.367188 595.230469 823.367188 C 605.527344 823.367188 613.886719 831.714844 613.886719 842 C 613.886719 852.28125 605.527344 860.628906 595.230469 860.628906 Z M 669.859375 860.628906 C 659.558594 860.628906 651.203125 852.28125 651.203125 842 C 651.203125 831.714844 659.558594 823.367188 669.859375 823.367188 C 680.160156 823.367188 688.515625 831.714844 688.515625 842 C 688.515625 852.28125 680.160156 860.628906 669.859375 860.628906 Z M 669.859375 860.628906 "/>
</g>
</g>
</svg>
