<?xml version="1.0" encoding="UTF-8"?>
<svg xmlns="http://www.w3.org/2000/svg" xmlns:xlink="http://www.w3.org/1999/xlink" width="1190.25pt" height="1683.749945pt" viewBox="0 0 1190.25 1683.749945" version="1.2">
<defs>
<clipPath id="clip1">
  <path d="M 357.089844 604.058594 L 833 604.058594 L 833 1080 L 357.089844 1080 Z M 357.089844 604.058594 "/>
</clipPath>
</defs>
<g id="surface1">
<g clip-path="url(#clip1)" clip-rule="nonzero">
<path style=" stroke:none;fill-rule:nonzero;fill:rgb(32.159424%,34.509277%,57.649231%);fill-opacity:1;" d="M 804.1875 974.484375 L 784.011719 974.484375 L 784.011719 841.324219 C 784.011719 834.640625 778.589844 829.21875 771.90625 829.21875 L 606.464844 829.21875 L 606.464844 740.445312 L 658.921875 740.445312 C 674.492188 740.445312 687.167969 727.773438 687.167969 712.199219 L 687.167969 631.496094 C 687.167969 615.921875 674.492188 603.25 658.921875 603.25 L 529.796875 603.25 C 514.222656 603.25 501.550781 615.921875 501.550781 631.496094 L 501.550781 712.199219 C 501.550781 727.773438 514.222656 740.445312 529.796875 740.445312 L 582.253906 740.445312 L 582.253906 829.21875 L 416.808594 829.21875 C 410.128906 829.21875 404.703125 834.640625 404.703125 841.324219 L 404.703125 974.484375 L 384.527344 974.484375 C 368.957031 974.484375 356.28125 987.160156 356.28125 1002.730469 L 356.28125 1051.152344 C 356.28125 1066.726562 368.957031 1079.398438 384.527344 1079.398438 L 449.09375 1079.398438 C 464.664062 1079.398438 477.339844 1066.726562 477.339844 1051.152344 L 477.339844 1002.730469 C 477.339844 987.160156 464.664062 974.484375 449.09375 974.484375 L 428.917969 974.484375 L 428.917969 853.429688 L 582.253906 853.429688 L 582.253906 974.484375 L 562.078125 974.484375 C 546.503906 974.484375 533.832031 987.160156 533.832031 1002.730469 L 533.832031 1051.152344 C 533.832031 1066.726562 546.503906 1079.398438 562.078125 1079.398438 L 626.640625 1079.398438 C 642.210938 1079.398438 654.886719 1066.726562 654.886719 1051.152344 L 654.886719 1002.730469 C 654.886719 987.160156 642.210938 974.484375 626.640625 974.484375 L 606.464844 974.484375 L 606.464844 853.429688 L 759.800781 853.429688 L 759.800781 974.484375 L 739.625 974.484375 C 724.050781 974.484375 711.378906 987.160156 711.378906 1002.730469 L 711.378906 1051.152344 C 711.378906 1066.726562 724.050781 1079.398438 739.625 1079.398438 L 804.1875 1079.398438 C 819.757812 1079.398438 832.433594 1066.726562 832.433594 1051.152344 L 832.433594 1002.730469 C 832.433594 987.160156 819.757812 974.484375 804.1875 974.484375 Z M 525.761719 712.199219 L 525.761719 631.496094 C 525.761719 629.273438 527.574219 627.460938 529.796875 627.460938 L 658.921875 627.460938 C 661.144531 627.460938 662.957031 629.273438 662.957031 631.496094 L 662.957031 712.199219 C 662.957031 714.421875 661.144531 716.234375 658.921875 716.234375 L 529.796875 716.234375 C 527.574219 716.234375 525.761719 714.421875 525.761719 712.199219 Z M 453.128906 1002.730469 L 453.128906 1051.152344 C 453.128906 1053.375 451.3125 1055.1875 449.09375 1055.1875 L 384.527344 1055.1875 C 382.304688 1055.1875 380.492188 1053.375 380.492188 1051.152344 L 380.492188 1002.730469 C 380.492188 1000.507812 382.304688 998.695312 384.527344 998.695312 L 449.09375 998.695312 C 451.3125 998.695312 453.128906 1000.507812 453.128906 1002.730469 Z M 630.675781 1002.730469 L 630.675781 1051.152344 C 630.675781 1053.375 628.863281 1055.1875 626.640625 1055.1875 L 562.078125 1055.1875 C 559.855469 1055.1875 558.042969 1053.375 558.042969 1051.152344 L 558.042969 1002.730469 C 558.042969 1000.507812 559.855469 998.695312 562.078125 998.695312 L 626.640625 998.695312 C 628.863281 998.695312 630.675781 1000.507812 630.675781 1002.730469 Z M 808.222656 1051.152344 C 808.222656 1053.375 806.410156 1055.1875 804.1875 1055.1875 L 739.625 1055.1875 C 737.402344 1055.1875 735.589844 1053.375 735.589844 1051.152344 L 735.589844 1002.730469 C 735.589844 1000.507812 737.402344 998.695312 739.625 998.695312 L 804.1875 998.695312 C 806.410156 998.695312 808.222656 1000.507812 808.222656 1002.730469 Z M 808.222656 1051.152344 "/>
</g>
</g>
</svg>
