<?xml version="1.0" encoding="iso-8859-1" standalone="no"?> 
<?xml-stylesheet href="main.css" type="text/css"?> 
<svg xmlns="http://www.w3.org/2000/svg" xmlns:xlink="http://www.w3.org/1999/xlink" width="236.79828pt" height="127.95685pt" viewBox="-118.39914 -113.89073 236.79828 127.95685 "> 
<g transform="translate(0, 14.06612 ) scale(1,-1) translate(0,113.89073 )"> 
                                                    <g stroke="#000" fill="#000">
 <g stroke-width="0.4">
 <path d=" M -113.99957 -9.66656 h 227.99915 v 19.33313 h -227.99915 Z  " fill="none"/>
 <g transform="translate(-110.0,-2.769)">
 <g fill="#000">
 <text style="stroke:none" transform="scale(1,-1) translate(110.0,0)" text-anchor="middle"  font-size="12"> 
<g fill="#000">
 <g stroke="none"> Presentation Layer                      192.168.0.20</g> </g>
 </text> 
</g>
 </g>
 <path d=" M -113.99957 -38.11931 h 227.99915 v 19.33313 h -227.99915 Z  " fill="none"/>
 <g transform="translate(-110.0,-31.22174)">
 <g fill="#000">
 <text style="stroke:none" transform="scale(1,-1) translate(110.0,0)" text-anchor="middle"  font-size="12"> 
<g fill="#000">
 <g stroke="none"> Business Layer 192.168.0.20</g> </g>
 </text> 
</g>
 </g>
 <path d=" M -113.99957 -80.79842 h 227.99915 v 19.33313 h -227.99915 Z  " fill="none"/>
 <g transform="translate(-110.0,-73.90085)">
 <g fill="#000">
 <text style="stroke:none" transform="scale(1,-1) translate(110.0,0)" text-anchor="middle"  font-size="12"> 
<g fill="#000">
 <g stroke="none"> Persistence Layer 192.168.0.40</g> </g>
 </text> 
</g>
 </g>
 <path d=" M -113.99957 -109.49117 h 227.99915 v 19.81314 h -227.99915 Z  " fill="none"/>
 <g transform="translate(-110.0,-102.5936)">
 <g fill="#000">
 <text style="stroke:none" transform="scale(1,-1) translate(110.0,0)" text-anchor="middle"  font-size="12"> 
<g fill="#000">
 <g stroke="none"> Database Layer 192.168.0.40</g> </g>
 </text> 
</g>
 </g>
 <path d=" M -118.19914 -42.31888 h 236.39828 v 56.185 h -236.39828 Z  " fill="none"/>
 <g transform="translate(-114.19957,-14.22638)">
 <g fill="#000">
 <text style="stroke:none" transform="scale(1,-1) translate(114.19957,0)" text-anchor="middle"  font-size="12"> 
<g fill="#000">
 <g stroke="none">    </g> </g>
 </text> 
</g>
 </g>
 <path d=" M -118.19914 -113.69073 h 236.39828 v 56.42502 h -236.39828 Z  " fill="none"/>
 <g transform="translate(-114.19957,-85.47823)">
 <g fill="#000">
 <text style="stroke:none" transform="scale(1,-1) translate(114.19957,0)" text-anchor="middle"  font-size="12"> 
<g fill="#000">
 <g stroke="none"> </g> </g>
 </text> 
</g>
 </g>
 <path d=" M 0.0 -42.51888 L 0.0 -57.06572  " fill="none"/>
 </g>
 </g>
 
                                                                                        </g> 
</svg> 
