<?xml version="1.0" encoding="iso-8859-1" standalone="no"?> 
<?xml-stylesheet href="main.css" type="text/css"?> 
<svg xmlns="http://www.w3.org/2000/svg" xmlns:xlink="http://www.w3.org/1999/xlink" width="136.46112pt" height="112.41675pt" viewBox="-68.23056 -98.8875 136.46112 112.41675 "> 
<g transform="translate(0, 13.52925 ) scale(1,-1) translate(0,98.8875 )"> 
                     <g stroke="#000" fill="#000">
 <g stroke-width="0.4">
 <path d=" M -63.91528 -9.21399 h 127.83057 v 18.42798 h -127.83057 Z  " fill="none"/>
 <g transform="translate(-60.0,-2.96594)">
 <g fill="#000">
 <text style="stroke:none" transform="scale(1,-1) translate(60.0,0)" text-anchor="middle"  font-size="12"> 
<g fill="#000">
 <g stroke="none"> Presentation Layer      </g> </g>
 </text> 
</g>
 </g>
 <path d=" M -63.91528 -37.66673 h 127.83057 v 18.42798 h -127.83057 Z  " fill="none"/>
 <g transform="translate(-60.0,-31.41869)">
 <g fill="#000">
 <text style="stroke:none" transform="scale(1,-1) translate(60.0,0)" text-anchor="middle"  font-size="12"> 
<g fill="#000">
 <g stroke="none"> Business Layer</g> </g>
 </text> 
</g>
 </g>
 <path d=" M -63.91528 -66.11948 h 127.83057 v 18.42798 h -127.83057 Z  " fill="none"/>
 <g transform="translate(-60.0,-59.87143)">
 <g fill="#000">
 <text style="stroke:none" transform="scale(1,-1) translate(60.0,0)" text-anchor="middle"  font-size="12"> 
<g fill="#000">
 <g stroke="none"> Persistence Layer</g> </g>
 </text> 
</g>
 </g>
 <path d=" M -63.91528 -94.57222 h 127.83057 v 18.42798 h -127.83057 Z  " fill="none"/>
 <g transform="translate(-60.0,-88.32417)">
 <g fill="#000">
 <text style="stroke:none" transform="scale(1,-1) translate(60.0,0)" text-anchor="middle"  font-size="12"> 
<g fill="#000">
 <g stroke="none"> Database Layer</g> </g>
 </text> 
</g>
 </g>
 <path d=" M -68.03056 -98.6875 h 136.06113 v 112.01675 h -136.06113 Z  " fill="none"/>
 <g transform="translate(-64.11528,-42.67911)">
 <g fill="#000">
 <text style="stroke:none" transform="scale(1,-1) translate(64.11528,0)" text-anchor="middle"  font-size="12"> 
<g fill="#000">
 <g stroke="none">   </g> </g>
 </text> 
</g>
 </g>
 </g>
 </g>
 
                                   </g> 
</svg> 
