<?xml version="1.0" encoding="iso-8859-1" standalone="no"?> 
<?xml-stylesheet href="main.css" type="text/css"?> 
<svg xmlns="http://www.w3.org/2000/svg" xmlns:xlink="http://www.w3.org/1999/xlink" width="136.46112pt" height="140.8695pt" viewBox="-68.23056 -127.34024 136.46112 140.8695 "> 
<g transform="translate(0, 13.52927 ) scale(1,-1) translate(0,127.34024 )"> 
                     <g stroke="#000" fill="#000">
 <g stroke-width="0.4">
 <path d=" M -63.91528 -9.21399 h 127.83057 v 18.42798 h -127.83057 Z  " fill="none"/>
 <g transform="translate(-60.0,-2.96594)">
 <g fill="#000">
 <text style="stroke:none" transform="scale(1,-1) translate(60.0,0)" text-anchor="middle"  font-size="12"> 
<g fill="#000">
 <g stroke="none"> Presentation Layer      </g> </g>
 </text> 
</g>
 </g>
 <path d=" M -63.91528 -51.8931 h 127.83057 v 18.42798 h -127.83057 Z  " fill="none"/>
 <g transform="translate(-60.0,-45.64505)">
 <g fill="#000">
 <text style="stroke:none" transform="scale(1,-1) translate(60.0,0)" text-anchor="middle"  font-size="12"> 
<g fill="#000">
 <g stroke="none"> Business Layer</g> </g>
 </text> 
</g>
 </g>
 <path d=" M -63.91528 -80.34584 h 127.83057 v 18.42798 h -127.83057 Z  " fill="none"/>
 <g transform="translate(-60.0,-74.0978)">
 <g fill="#000">
 <text style="stroke:none" transform="scale(1,-1) translate(60.0,0)" text-anchor="middle"  font-size="12"> 
<g fill="#000">
 <g stroke="none"> Persistence Layer</g> </g>
 </text> 
</g>
 </g>
 <path d=" M -63.91528 -123.02496 h 127.83057 v 18.42798 h -127.83057 Z  " fill="none"/>
 <g transform="translate(-60.0,-116.77692)">
 <g fill="#000">
 <text style="stroke:none" transform="scale(1,-1) translate(60.0,0)" text-anchor="middle"  font-size="12"> 
<g fill="#000">
 <g stroke="none"> Database Layer</g> </g>
 </text> 
</g>
 </g>
 <path d=" M -68.03056 -13.32927 h 136.06113 v 26.65854 h -136.06113 Z  " fill="none"/>
 <g transform="translate(-64.11528,0.0)">
 <g fill="#000">
 <text style="stroke:none" transform="scale(1,-1) translate(64.11528,0)" text-anchor="middle"  font-size="12"> 
<g fill="#000">
 <g stroke="none">   </g> </g>
 </text> 
</g>
 </g>
 <path d=" M -68.03056 -84.46112 h 136.06113 v 55.11127 h -136.06113 Z  " fill="none"/>
 <g transform="translate(-64.11528,-56.90549)">
 <g fill="#000">
 <text style="stroke:none" transform="scale(1,-1) translate(64.11528,0)" text-anchor="middle"  font-size="12"> 
<g fill="#000">
 <g stroke="none"> </g> </g>
 </text> 
</g>
 </g>
 <path d=" M -68.03056 -127.14024 h 136.06113 v 26.65854 h -136.06113 Z  " fill="none"/>
 <g transform="translate(-64.11528,-113.81097)">
 <g fill="#000">
 <text style="stroke:none" transform="scale(1,-1) translate(64.11528,0)" text-anchor="middle"  font-size="12"> 
<g fill="#000">
 <g stroke="none"> </g> </g>
 </text> 
</g>
 </g>
 <path d=" M 0.0 -13.52927 L 0.0 -29.14986  " fill="none"/>
 <path d=" M 0.0 -84.66112 L 0.0 -100.28171  " fill="none"/>
 </g>
 </g>
 
                                   </g> 
</svg> 
