<?xml version="1.0" encoding="iso-8859-1" standalone="no"?> 
<?xml-stylesheet href="main.css" type="text/css"?> 
<svg xmlns="http://www.w3.org/2000/svg" xmlns:xlink="http://www.w3.org/1999/xlink" width="136.79828pt" height="113.7305pt" viewBox="-68.39914 -99.66437 136.79828 113.7305 "> 
<g transform="translate(0, 14.06613 ) scale(1,-1) translate(0,99.66437 )"> 
                             <g stroke="#000" fill="#000">
 <g stroke-width="0.4">
 <path d=" M -63.99957 -9.66656 h 127.99915 v 19.33313 h -127.99915 Z  " fill="none"/>
 <g transform="translate(-60.0,-2.769)">
 <g fill="#000">
 <text style="stroke:none" transform="scale(1,-1) translate(60.0,0)" text-anchor="middle"  font-size="12"> 
<g fill="#000">
 <g stroke="none"> Presentation Layer         </g> </g>
 </text> 
</g>
 </g>
 <path d=" M -63.99957 -38.11931 h 127.99915 v 19.33313 h -127.99915 Z  " fill="none"/>
 <g transform="translate(-60.0,-31.22174)">
 <g fill="#000">
 <text style="stroke:none" transform="scale(1,-1) translate(60.0,0)" text-anchor="middle"  font-size="12"> 
<g fill="#000">
 <g stroke="none"> Business Layer</g> </g>
 </text> 
</g>
 </g>
 <path d=" M -63.99957 -66.57205 h 127.99915 v 19.33313 h -127.99915 Z  " fill="none"/>
 <g transform="translate(-60.0,-59.67448)">
 <g fill="#000">
 <text style="stroke:none" transform="scale(1,-1) translate(60.0,0)" text-anchor="middle"  font-size="12"> 
<g fill="#000">
 <g stroke="none"> Persistence Layer</g> </g>
 </text> 
</g>
 </g>
 <path d=" M -63.99957 -95.2648 h 127.99915 v 19.81314 h -127.99915 Z  " fill="none"/>
 <g transform="translate(-60.0,-88.36723)">
 <g fill="#000">
 <text style="stroke:none" transform="scale(1,-1) translate(60.0,0)" text-anchor="middle"  font-size="12"> 
<g fill="#000">
 <g stroke="none"> Database Layer</g> </g>
 </text> 
</g>
 </g>
 <path d=" M -68.19914 -99.46437 h 136.39828 v 113.3305 h -136.39828 Z  " fill="none"/>
 <g transform="translate(-64.19957,-42.79912)">
 <g fill="#000">
 <text style="stroke:none" transform="scale(1,-1) translate(64.19957,0)" text-anchor="middle"  font-size="12"> 
<g fill="#000">
 <g stroke="none">    </g> </g>
 </text> 
</g>
 </g>
 </g>
 </g>
 
                                                   </g> 
</svg> 
