<?xml version="1.0" encoding="iso-8859-1" standalone="no"?> 
<?xml-stylesheet href="main.css" type="text/css"?> 
<svg xmlns="http://www.w3.org/2000/svg" xmlns:xlink="http://www.w3.org/1999/xlink" width="236.79828pt" height="113.97049pt" viewBox="-118.39914 -99.66437 236.79828 113.97049 "> 
<g transform="translate(0, 14.30612 ) scale(1,-1) translate(0,99.66437 )"> 
                                                <g stroke="#000" fill="#000">
 <g stroke-width="0.4">
 <path d=" M -113.99957 -9.90657 h 227.99915 v 19.81314 h -227.99915 Z  " fill="none"/>
 <g transform="translate(-110.0,-3.009)">
 <g fill="#000">
 <text style="stroke:none" transform="scale(1,-1) translate(110.0,0)" text-anchor="middle"  font-size="12"> 
<g fill="#000">
 <g stroke="none"> Presentation Layer                                 Closed</g> </g>
 </text> 
</g>
 </g>
 <path d=" M -113.99957 -38.11931 h 227.99915 v 19.33313 h -227.99915 Z  " fill="none"/>
 <g transform="translate(-110.0,-31.22174)">
 <g fill="#000">
 <text style="stroke:none" transform="scale(1,-1) translate(110.0,0)" text-anchor="middle"  font-size="12"> 
<g fill="#000">
 <g stroke="none"> Business Layer Open</g> </g>
 </text> 
</g>
 </g>
 <path d=" M -113.99957 -66.57205 h 227.99915 v 19.33313 h -227.99915 Z  " fill="none"/>
 <g transform="translate(-110.0,-59.67448)">
 <g fill="#000">
 <text style="stroke:none" transform="scale(1,-1) translate(110.0,0)" text-anchor="middle"  font-size="12"> 
<g fill="#000">
 <g stroke="none"> Persistence Layer Open</g> </g>
 </text> 
</g>
 </g>
 <path d=" M -113.99957 -95.2648 h 227.99915 v 19.81314 h -227.99915 Z  " fill="none"/>
 <g transform="translate(-110.0,-88.36723)">
 <g fill="#000">
 <text style="stroke:none" transform="scale(1,-1) translate(110.0,0)" text-anchor="middle"  font-size="12"> 
<g fill="#000">
 <g stroke="none"> Database Layer Closed</g> </g>
 </text> 
</g>
 </g>
 <path d=" M -118.19914 -99.46437 h 236.39828 v 113.5705 h -236.39828 Z  " fill="none"/>
 <g transform="translate(-114.19957,-42.67912)">
 <g fill="#000">
 <text style="stroke:none" transform="scale(1,-1) translate(114.19957,0)" text-anchor="middle"  font-size="12"> 
<g fill="#000">
 <g stroke="none">    </g> </g>
 </text> 
</g>
 </g>
 <path d=" M 0.0 -10.10657 L 0.0 -13.9862  " fill="none"/>
 <g transform="matrix(0.0,-1.0,1.0,0.0,0.0,-13.9862)">
 <g stroke-dasharray="none" stroke-dashoffset="0.0">
 <g stroke-linejoin="miter">
 <path d=" M 3.77538 0.0 C 3.31174 0.11313 1.27376 0.75418 0.0 1.4518 L 0.0 -1.4518 C 1.27376 -0.75418 3.31174 -0.11313 3.77538 0.0 Z  " />
 </g>
 </g>
  </g>
 <path d=" M 0.0 -38.3193 L 0.0 -42.43895  " fill="none"/>
 <g transform="matrix(0.0,-1.0,1.0,0.0,0.0,-42.43895)">
 <g stroke-dasharray="none" stroke-dashoffset="0.0">
 <g stroke-linejoin="miter">
 <path d=" M 3.77538 0.0 C 3.31174 0.11313 1.27376 0.75418 0.0 1.4518 L 0.0 -1.4518 C 1.27376 -0.75418 3.31174 -0.11313 3.77538 0.0 Z  " />
 </g>
 </g>
  </g>
 <path d=" M 0.0 -66.77205 L 0.0 -70.65169  " fill="none"/>
 <g transform="matrix(0.0,-1.0,1.0,0.0,0.0,-70.65169)">
 <g stroke-dasharray="none" stroke-dashoffset="0.0">
 <g stroke-linejoin="miter">
 <path d=" M 3.77538 0.0 C 3.31174 0.11313 1.27376 0.75418 0.0 1.4518 L 0.0 -1.4518 C 1.27376 -0.75418 3.31174 -0.11313 3.77538 0.0 Z  " />
 </g>
 </g>
  </g>
 <path d=" M 10.0 -10.10657 L 10.0 -42.43895  " fill="none"/>
 <g transform="matrix(0.0,-1.0,1.0,0.0,10.0,-42.43895)">
 <g stroke-dasharray="none" stroke-dashoffset="0.0">
 <g stroke-linejoin="miter">
 <path d=" M 3.77538 0.0 C 3.31174 0.11313 1.27376 0.75418 0.0 1.4518 L 0.0 -1.4518 C 1.27376 -0.75418 3.31174 -0.11313 3.77538 0.0 Z  " />
 </g>
 </g>
  </g>
 <path d=" M 30.0 -10.10657 L 30.0 -70.65169  " fill="none"/>
 <g transform="matrix(0.0,-1.0,1.0,0.0,30.0,-70.65169)">
 <g stroke-dasharray="none" stroke-dashoffset="0.0">
 <g stroke-linejoin="miter">
 <path d=" M 3.77538 0.0 C 3.31174 0.11313 1.27376 0.75418 0.0 1.4518 L 0.0 -1.4518 C 1.27376 -0.75418 3.31174 -0.11313 3.77538 0.0 Z  " />
 </g>
 </g>
  </g>
 <path d=" M 20.0 -38.3193 L 20.0 -70.65169  " fill="none"/>
 <g transform="matrix(0.0,-1.0,1.0,0.0,20.0,-70.65169)">
 <g stroke-dasharray="none" stroke-dashoffset="0.0">
 <g stroke-linejoin="miter">
 <path d=" M 3.77538 0.0 C 3.31174 0.11313 1.27376 0.75418 0.0 1.4518 L 0.0 -1.4518 C 1.27376 -0.75418 3.31174 -0.11313 3.77538 0.0 Z  " />
 </g>
 </g>
  </g>
 </g>
 </g>
 
                                                                                        </g> 
</svg> 
