<?xml version="1.0" encoding="iso-8859-1" standalone="no"?> 
<?xml-stylesheet href="main.css" type="text/css"?> 
<svg xmlns="http://www.w3.org/2000/svg" xmlns:xlink="http://www.w3.org/1999/xlink" width="136.46112pt" height="126.64313pt" viewBox="-68.23056 -113.11386 136.46112 126.64313 "> 
<g transform="translate(0, 13.52927 ) scale(1,-1) translate(0,113.11386 )"> 
                     <g stroke="#000" fill="#000">
 <g stroke-width="0.4">
 <path d=" M -63.91528 -9.21399 h 127.83057 v 18.42798 h -127.83057 Z  " fill="none"/>
 <g transform="translate(-60.0,-2.96594)">
 <g fill="#000">
 <text style="stroke:none" transform="scale(1,-1) translate(60.0,0)" text-anchor="middle"  font-size="12"> 
<g fill="#000">
 <g stroke="none"> Presentation Layer      </g> </g>
 </text> 
</g>
 </g>
 <path d=" M -63.91528 -51.8931 h 127.83057 v 18.42798 h -127.83057 Z  " fill="none"/>
 <g transform="translate(-60.0,-45.64505)">
 <g fill="#000">
 <text style="stroke:none" transform="scale(1,-1) translate(60.0,0)" text-anchor="middle"  font-size="12"> 
<g fill="#000">
 <g stroke="none"> Business Layer</g> </g>
 </text> 
</g>
 </g>
 <path d=" M -63.91528 -80.34584 h 127.83057 v 18.42798 h -127.83057 Z  " fill="none"/>
 <g transform="translate(-60.0,-74.0978)">
 <g fill="#000">
 <text style="stroke:none" transform="scale(1,-1) translate(60.0,0)" text-anchor="middle"  font-size="12"> 
<g fill="#000">
 <g stroke="none"> Persistence Layer</g> </g>
 </text> 
</g>
 </g>
 <path d=" M -63.91528 -108.79858 h 127.83057 v 18.42798 h -127.83057 Z  " fill="none"/>
 <g transform="translate(-60.0,-102.55054)">
 <g fill="#000">
 <text style="stroke:none" transform="scale(1,-1) translate(60.0,0)" text-anchor="middle"  font-size="12"> 
<g fill="#000">
 <g stroke="none"> Database Layer</g> </g>
 </text> 
</g>
 </g>
 <path d=" M -68.03056 -13.32927 h 136.06113 v 26.65854 h -136.06113 Z  " fill="none"/>
 <g transform="translate(-64.11528,0.0)">
 <g fill="#000">
 <text style="stroke:none" transform="scale(1,-1) translate(64.11528,0)" text-anchor="middle"  font-size="12"> 
<g fill="#000">
 <g stroke="none">   </g> </g>
 </text> 
</g>
 </g>
 <path d=" M -68.03056 -112.91386 h 136.06113 v 83.56403 h -136.06113 Z  " fill="none"/>
 <g transform="translate(-64.11528,-71.13185)">
 <g fill="#000">
 <text style="stroke:none" transform="scale(1,-1) translate(64.11528,0)" text-anchor="middle"  font-size="12"> 
<g fill="#000">
 <g stroke="none"> </g> </g>
 </text> 
</g>
 </g>
 <path d=" M 0.0 -13.52927 L 0.0 -29.14984  " fill="none"/>
 </g>
 </g>
 
                                   </g> 
</svg> 
