<?xml version="1.0" encoding="iso-8859-1" standalone="no"?> 
<?xml-stylesheet href="main.css" type="text/css"?> 
<svg xmlns="http://www.w3.org/2000/svg" xmlns:xlink="http://www.w3.org/1999/xlink" width="236.46112pt" height="112.41675pt" viewBox="-118.23056 -98.8875 236.46112 112.41675 "> 
<g transform="translate(0, 13.52925 ) scale(1,-1) translate(0,98.8875 )"> 
                                  <g stroke="#000" fill="#000">
 <g stroke-width="0.4">
 <path d=" M -113.91528 -9.21399 h 227.83057 v 18.42798 h -227.83057 Z  " fill="none"/>
 <g transform="translate(-110.0,-2.96594)">
 <g fill="#000">
 <text style="stroke:none" transform="scale(1,-1) translate(110.0,0)" text-anchor="middle"  font-size="12"> 
<g fill="#000">
 <g stroke="none"> Presentation Layer                       Closed</g> </g>
 </text> 
</g>
 </g>
 <path d=" M -113.91528 -37.66673 h 227.83057 v 18.42798 h -227.83057 Z  " fill="none"/>
 <g transform="translate(-110.0,-31.41869)">
 <g fill="#000">
 <text style="stroke:none" transform="scale(1,-1) translate(110.0,0)" text-anchor="middle"  font-size="12"> 
<g fill="#000">
 <g stroke="none"> Business Layer Open</g> </g>
 </text> 
</g>
 </g>
 <path d=" M -113.91528 -66.11948 h 227.83057 v 18.42798 h -227.83057 Z  " fill="none"/>
 <g transform="translate(-110.0,-59.87143)">
 <g fill="#000">
 <text style="stroke:none" transform="scale(1,-1) translate(110.0,0)" text-anchor="middle"  font-size="12"> 
<g fill="#000">
 <g stroke="none"> Persistence Layer Open</g> </g>
 </text> 
</g>
 </g>
 <path d=" M -113.91528 -94.57222 h 227.83057 v 18.42798 h -227.83057 Z  " fill="none"/>
 <g transform="translate(-110.0,-88.32417)">
 <g fill="#000">
 <text style="stroke:none" transform="scale(1,-1) translate(110.0,0)" text-anchor="middle"  font-size="12"> 
<g fill="#000">
 <g stroke="none"> Database Layer Closed</g> </g>
 </text> 
</g>
 </g>
 <path d=" M -118.03056 -98.6875 h 236.06113 v 112.01675 h -236.06113 Z  " fill="none"/>
 <g transform="translate(-114.11528,-42.67911)">
 <g fill="#000">
 <text style="stroke:none" transform="scale(1,-1) translate(114.11528,0)" text-anchor="middle"  font-size="12"> 
<g fill="#000">
 <g stroke="none">   </g> </g>
 </text> 
</g>
 </g>
 <path d=" M 0.0 -9.41399 L 0.0 -14.43878  " fill="none"/>
 <g transform="matrix(0.0,-1.0,1.0,0.0,0.0,-14.43878)">
 <g stroke-dasharray="none" stroke-dashoffset="0.0">
 <g stroke-linejoin="miter">
 <path d=" M 3.77538 0.0 C 3.31174 0.11313 1.27376 0.75418 0.0 1.4518 L 0.0 -1.4518 C 1.27376 -0.75418 3.31174 -0.11313 3.77538 0.0 Z  " />
 </g>
 </g>
  </g>
 <path d=" M 0.0 -37.86673 L 0.0 -42.89153  " fill="none"/>
 <g transform="matrix(0.0,-1.0,1.0,0.0,0.0,-42.89153)">
 <g stroke-dasharray="none" stroke-dashoffset="0.0">
 <g stroke-linejoin="miter">
 <path d=" M 3.77538 0.0 C 3.31174 0.11313 1.27376 0.75418 0.0 1.4518 L 0.0 -1.4518 C 1.27376 -0.75418 3.31174 -0.11313 3.77538 0.0 Z  " />
 </g>
 </g>
  </g>
 <path d=" M 0.0 -66.31947 L 0.0 -71.34427  " fill="none"/>
 <g transform="matrix(0.0,-1.0,1.0,0.0,0.0,-71.34427)">
 <g stroke-dasharray="none" stroke-dashoffset="0.0">
 <g stroke-linejoin="miter">
 <path d=" M 3.77538 0.0 C 3.31174 0.11313 1.27376 0.75418 0.0 1.4518 L 0.0 -1.4518 C 1.27376 -0.75418 3.31174 -0.11313 3.77538 0.0 Z  " />
 </g>
 </g>
  </g>
 <path d=" M 10.0 -9.41399 L 10.0 -42.89153  " fill="none"/>
 <g transform="matrix(0.0,-1.0,1.0,0.0,10.0,-42.89153)">
 <g stroke-dasharray="none" stroke-dashoffset="0.0">
 <g stroke-linejoin="miter">
 <path d=" M 3.77538 0.0 C 3.31174 0.11313 1.27376 0.75418 0.0 1.4518 L 0.0 -1.4518 C 1.27376 -0.75418 3.31174 -0.11313 3.77538 0.0 Z  " />
 </g>
 </g>
  </g>
 <path d=" M 30.0 -9.41399 L 30.0 -71.34427  " fill="none"/>
 <g transform="matrix(0.0,-1.0,1.0,0.0,30.0,-71.34427)">
 <g stroke-dasharray="none" stroke-dashoffset="0.0">
 <g stroke-linejoin="miter">
 <path d=" M 3.77538 0.0 C 3.31174 0.11313 1.27376 0.75418 0.0 1.4518 L 0.0 -1.4518 C 1.27376 -0.75418 3.31174 -0.11313 3.77538 0.0 Z  " />
 </g>
 </g>
  </g>
 <path d=" M 20.0 -37.86673 L 20.0 -71.34427  " fill="none"/>
 <g transform="matrix(0.0,-1.0,1.0,0.0,20.0,-71.34427)">
 <g stroke-dasharray="none" stroke-dashoffset="0.0">
 <g stroke-linejoin="miter">
 <path d=" M 3.77538 0.0 C 3.31174 0.11313 1.27376 0.75418 0.0 1.4518 L 0.0 -1.4518 C 1.27376 -0.75418 3.31174 -0.11313 3.77538 0.0 Z  " />
 </g>
 </g>
  </g>
 </g>
 </g>
 
                                                            </g> 
</svg> 
