<?xml version="1.0" encoding="iso-8859-1" standalone="no"?> 
<?xml-stylesheet href="main.css" type="text/css"?> 
<svg xmlns="http://www.w3.org/2000/svg" xmlns:xlink="http://www.w3.org/1999/xlink" width="236.46112pt" height="126.64311pt" viewBox="-118.23056 -113.11386 236.46112 126.64311 "> 
<g transform="translate(0, 13.52925 ) scale(1,-1) translate(0,113.11386 )"> 
                                     <g stroke="#000" fill="#000">
 <g stroke-width="0.4">
 <path d=" M -113.91528 -9.21399 h 227.83057 v 18.42798 h -227.83057 Z  " fill="none"/>
 <g transform="translate(-110.0,-2.96594)">
 <g fill="#000">
 <text style="stroke:none" transform="scale(1,-1) translate(110.0,0)" text-anchor="middle"  font-size="12"> 
<g fill="#000">
 <g stroke="none"> Presentation Layer               192.168.0.20</g> </g>
 </text> 
</g>
 </g>
 <path d=" M -113.91528 -37.66673 h 227.83057 v 18.42798 h -227.83057 Z  " fill="none"/>
 <g transform="translate(-110.0,-31.41869)">
 <g fill="#000">
 <text style="stroke:none" transform="scale(1,-1) translate(110.0,0)" text-anchor="middle"  font-size="12"> 
<g fill="#000">
 <g stroke="none"> Business Layer 192.168.0.20</g> </g>
 </text> 
</g>
 </g>
 <path d=" M -113.91528 -80.34584 h 227.83057 v 18.42798 h -227.83057 Z  " fill="none"/>
 <g transform="translate(-110.0,-74.0978)">
 <g fill="#000">
 <text style="stroke:none" transform="scale(1,-1) translate(110.0,0)" text-anchor="middle"  font-size="12"> 
<g fill="#000">
 <g stroke="none"> Persistence Layer 192.168.0.40</g> </g>
 </text> 
</g>
 </g>
 <path d=" M -113.91528 -108.79858 h 227.83057 v 18.42798 h -227.83057 Z  " fill="none"/>
 <g transform="translate(-110.0,-102.55054)">
 <g fill="#000">
 <text style="stroke:none" transform="scale(1,-1) translate(110.0,0)" text-anchor="middle"  font-size="12"> 
<g fill="#000">
 <g stroke="none"> Database Layer 192.168.0.40</g> </g>
 </text> 
</g>
 </g>
 <path d=" M -118.03056 -41.78201 h 236.06113 v 55.11127 h -236.06113 Z  " fill="none"/>
 <g transform="translate(-114.11528,-14.22638)">
 <g fill="#000">
 <text style="stroke:none" transform="scale(1,-1) translate(114.11528,0)" text-anchor="middle"  font-size="12"> 
<g fill="#000">
 <g stroke="none">   </g> </g>
 </text> 
</g>
 </g>
 <path d=" M -118.03056 -112.91386 h 236.06113 v 55.11127 h -236.06113 Z  " fill="none"/>
 <g transform="translate(-114.11528,-85.35823)">
 <g fill="#000">
 <text style="stroke:none" transform="scale(1,-1) translate(114.11528,0)" text-anchor="middle"  font-size="12"> 
<g fill="#000">
 <g stroke="none"> </g> </g>
 </text> 
</g>
 </g>
 <path d=" M 0.0 -41.98201 L 0.0 -57.6026  " fill="none"/>
 </g>
 </g>
 
                                                            </g> 
</svg> 
