<?xml version="1.0" encoding="iso-8859-1" standalone="no"?> 
<?xml-stylesheet href="main.css" type="text/css"?> 
<svg xmlns="http://www.w3.org/2000/svg" xmlns:xlink="http://www.w3.org/1999/xlink" width="136.79828pt" height="127.95686pt" viewBox="-68.39914 -113.89073 136.79828 127.95686 "> 
<g transform="translate(0, 14.06613 ) scale(1,-1) translate(0,113.89073 )"> 
                             <g stroke="#000" fill="#000">
 <g stroke-width="0.4">
 <path d=" M -63.99957 -9.66656 h 127.99915 v 19.33313 h -127.99915 Z  " fill="none"/>
 <g transform="translate(-60.0,-2.769)">
 <g fill="#000">
 <text style="stroke:none" transform="scale(1,-1) translate(60.0,0)" text-anchor="middle"  font-size="12"> 
<g fill="#000">
 <g stroke="none"> Presentation Layer         </g> </g>
 </text> 
</g>
 </g>
 <path d=" M -63.99957 -52.34567 h 127.99915 v 19.33313 h -127.99915 Z  " fill="none"/>
 <g transform="translate(-60.0,-45.4481)">
 <g fill="#000">
 <text style="stroke:none" transform="scale(1,-1) translate(60.0,0)" text-anchor="middle"  font-size="12"> 
<g fill="#000">
 <g stroke="none"> Business Layer</g> </g>
 </text> 
</g>
 </g>
 <path d=" M -63.99957 -80.79842 h 127.99915 v 19.33313 h -127.99915 Z  " fill="none"/>
 <g transform="translate(-60.0,-73.90085)">
 <g fill="#000">
 <text style="stroke:none" transform="scale(1,-1) translate(60.0,0)" text-anchor="middle"  font-size="12"> 
<g fill="#000">
 <g stroke="none"> Persistence Layer</g> </g>
 </text> 
</g>
 </g>
 <path d=" M -63.99957 -109.49117 h 127.99915 v 19.81314 h -127.99915 Z  " fill="none"/>
 <g transform="translate(-60.0,-102.5936)">
 <g fill="#000">
 <text style="stroke:none" transform="scale(1,-1) translate(60.0,0)" text-anchor="middle"  font-size="12"> 
<g fill="#000">
 <g stroke="none"> Database Layer</g> </g>
 </text> 
</g>
 </g>
 <path d=" M -68.19914 -13.86613 h 136.39828 v 27.73227 h -136.39828 Z  " fill="none"/>
 <g transform="translate(-64.19957,0.0)">
 <g fill="#000">
 <text style="stroke:none" transform="scale(1,-1) translate(64.19957,0)" text-anchor="middle"  font-size="12"> 
<g fill="#000">
 <g stroke="none">    </g> </g>
 </text> 
</g>
 </g>
 <path d=" M -68.19914 -113.69073 h 136.39828 v 84.87775 h -136.39828 Z  " fill="none"/>
 <g transform="translate(-64.19957,-71.25186)">
 <g fill="#000">
 <text style="stroke:none" transform="scale(1,-1) translate(64.19957,0)" text-anchor="middle"  font-size="12"> 
<g fill="#000">
 <g stroke="none"> </g> </g>
 </text> 
</g>
 </g>
 <path d=" M 0.0 -14.06613 L 0.0 -28.61299  " fill="none"/>
 </g>
 </g>
 
                                                   </g> 
</svg> 
