<?xml version="1.0" encoding="iso-8859-1" standalone="no"?> 
<?xml-stylesheet href="main.css" type="text/css"?> 
<svg xmlns="http://www.w3.org/2000/svg" xmlns:xlink="http://www.w3.org/1999/xlink" width="285.72745pt" height="33.95949pt" viewBox="-28.65274 -14.42636 285.72745 33.95949 "> 
<g transform="translate(0, 19.53313 ) scale(1,-1) translate(0,14.42636 )"> 
               <g stroke="#000" fill="#000">
 <g stroke-width="0.4">
 <path d=" M -28.45274 -14.22636 h 56.90549 v 28.45273 h -56.90549 Z  " fill="none"/>
 <g transform="translate(-12.71997,-4.386)">
 <g fill="#000">
 <text style="stroke:none" transform="scale(1,-1) translate(12.71997,0)" text-anchor="middle"  font-size="12"> 
<g fill="#000">
 <g stroke="none"> Filter</g> </g>
 </text> 
</g>
 </g>
 <path d=" M 85.75824 -14.22636 h 56.90549 v 28.45273 h -56.90549 Z  " fill="none"/>
 <g transform="translate(101.49101,-4.386)">
 <g fill="#000">
 <text style="stroke:none" transform="scale(1,-1) translate(12.71997,0)" text-anchor="middle"  font-size="12"> 
<g fill="#000">
 <g stroke="none"> Filter</g> </g>
 </text> 
</g>
 </g>
 <path d=" M 199.96922 -14.22636 h 56.90549 v 28.45273 h -56.90549 Z  " fill="none"/>
 <g transform="translate(215.702,-4.386)">
 <g fill="#000">
 <text style="stroke:none" transform="scale(1,-1) translate(12.71997,0)" text-anchor="middle"  font-size="12"> 
<g fill="#000">
 <g stroke="none"> Filter</g> </g>
 </text> 
</g>
 </g>
 <path d="  " fill="none"/>
 <path d=" M 28.65274 0.0 L 83.15828 0.0  " fill="none"/>
 <g transform="translate(83.15828,0.0)">
 <path d=" M 2.39996 0.0 C 1.39998 0.2 -0.4 0.59999 -1.59998 1.49997 C -0.59999 0.4 -0.59999 -0.4 -1.59998 -1.49997 C -0.4 -0.59999 1.39998 -0.2 2.39996 0.0 Z  " stroke="none"/>
  </g>
 <g transform="translate(46.02351,7.09756)">
 <g fill="#000">
 <text style="stroke:none" transform="scale(1,-1) translate(11.08197,0)" text-anchor="middle"  font-size="12"> 
<g fill="#000">
 <g stroke="none"> Pipe </g> </g>
 </text> 
</g>
 </g>
 <path d=" M 142.86372 0.0 L 197.36926 0.0  " fill="none"/>
 <g transform="translate(197.36926,0.0)">
 <path d=" M 2.39996 0.0 C 1.39998 0.2 -0.4 0.59999 -1.59998 1.49997 C -0.59999 0.4 -0.59999 -0.4 -1.59998 -1.49997 C -0.4 -0.59999 1.39998 -0.2 2.39996 0.0 Z  " stroke="none"/>
  </g>
 <g transform="translate(160.2345,7.09756)">
 <g fill="#000">
 <text style="stroke:none" transform="scale(1,-1) translate(11.08197,0)" text-anchor="middle"  font-size="12"> 
<g fill="#000">
 <g stroke="none"> Pipe </g> </g>
 </text> 
</g>
 </g>
 </g>
 </g>
 
                                                                                                          </g> 
</svg> 
