<?xml version="1.0" encoding="iso-8859-1" standalone="no"?> 
<?xml-stylesheet href="main.css" type="text/css"?> 
<svg xmlns="http://www.w3.org/2000/svg" xmlns:xlink="http://www.w3.org/1999/xlink" width="459.70308pt" height="46.11186pt" viewBox="-49.7935 -14.42636 459.70308 46.11186 "> 
<g transform="translate(0, 31.6855 ) scale(1,-1) translate(0,14.42636 )"> 
                      <g stroke="#000" fill="#000">
 <g stroke-width="0.4">
 <path d=" M -49.5935 -14.22636 h 99.18701 v 28.45273 h -99.18701 Z  " fill="none"/>
 <g transform="translate(-45.59393,-2.71799)">
 <g fill="#000">
 <text style="stroke:none" transform="scale(1,-1) translate(45.59393,0)" text-anchor="middle"  font-size="12"> 
<g fill="#000">
 <g stroke="none"> cat assignment.py</g> </g>
 </text> 
</g>
 </g>
 <g transform="translate(-22.62596,18.76993)">
 <g fill="#000">
 <text style="stroke:none" transform="scale(1,-1) translate(22.62596,0)" text-anchor="middle"  font-size="12"> 
<g fill="#000">
 <g stroke="none"> Producer </g> </g>
 </text> 
</g>
 </g>
 <path d=" M 106.899 -14.22636 h 60.21106 v 28.45273 h -60.21106 Z  " fill="none"/>
 <g transform="translate(110.89857,-2.958)">
 <g fill="#000">
 <text style="stroke:none" transform="scale(1,-1) translate(26.10596,0)" text-anchor="middle"  font-size="12"> 
<g fill="#000">
 <g stroke="none"> grep "f***" </g> </g>
 </text> 
</g>
 </g>
 <g transform="translate(121.75856,18.76993)">
 <g fill="#000">
 <text style="stroke:none" transform="scale(1,-1) translate(15.24597,0)" text-anchor="middle"  font-size="12"> 
<g fill="#000">
 <g stroke="none"> Tester </g> </g>
 </text> 
</g>
 </g>
 <path d=" M 224.41556 -14.22636 h 56.90549 v 28.45273 h -56.90549 Z  " fill="none"/>
 <g transform="translate(240.51431,-4.386)">
 <g fill="#000">
 <text style="stroke:none" transform="scale(1,-1) translate(12.35399,0)" text-anchor="middle"  font-size="12"> 
<g fill="#000">
 <g stroke="none"> wc -l </g> </g>
 </text> 
</g>
 </g>
 <g transform="translate(222.27435,18.76993)">
 <g fill="#000">
 <text style="stroke:none" transform="scale(1,-1) translate(30.59395,0)" text-anchor="middle"  font-size="12"> 
<g fill="#000">
 <g stroke="none"> Transformer </g> </g>
 </text> 
</g>
 </g>
 <path d=" M 338.62654 -14.22636 h 71.08304 v 28.45273 h -71.08304 Z  " fill="none"/>
 <g transform="translate(342.62611,-2.21999)">
 <g fill="#000">
 <text style="stroke:none" transform="scale(1,-1) translate(31.54195,0)" text-anchor="middle"  font-size="12"> 
<g fill="#000">
 <g stroke="none"> tee anger.txt </g> </g>
 </text> 
</g>
 </g>
 <g transform="translate(348.0441,18.76993)">
 <g fill="#000">
 <text style="stroke:none" transform="scale(1,-1) translate(26.12396,0)" text-anchor="middle"  font-size="12"> 
<g fill="#000">
 <g stroke="none"> Consumer </g> </g>
 </text> 
</g>
 </g>
 <path d="  " fill="none"/>
 <path d=" M 49.7935 0.0 L 104.29904 0.0  " fill="none"/>
 <g transform="translate(104.29904,0.0)">
 <path d=" M 2.39996 0.0 C 1.39998 0.2 -0.4 0.59999 -1.59998 1.49997 C -0.59999 0.4 -0.59999 -0.4 -1.59998 -1.49997 C -0.4 -0.59999 1.39998 -0.2 2.39996 0.0 Z  " stroke="none"/>
  </g>
 <path d=" M 167.31006 0.0 L 221.8156 0.0  " fill="none"/>
 <g transform="translate(221.8156,0.0)">
 <path d=" M 2.39996 0.0 C 1.39998 0.2 -0.4 0.59999 -1.59998 1.49997 C -0.59999 0.4 -0.59999 -0.4 -1.59998 -1.49997 C -0.4 -0.59999 1.39998 -0.2 2.39996 0.0 Z  " stroke="none"/>
  </g>
 <path d=" M 281.52104 0.0 L 336.02658 0.0  " fill="none"/>
 <g transform="translate(336.02658,0.0)">
 <path d=" M 2.39996 0.0 C 1.39998 0.2 -0.4 0.59999 -1.59998 1.49997 C -0.59999 0.4 -0.59999 -0.4 -1.59998 -1.49997 C -0.4 -0.59999 1.39998 -0.2 2.39996 0.0 Z  " stroke="none"/>
  </g>
 </g>
 </g>
 
                                                                                                                                                                          </g> 
</svg> 
