<?xml version="1.0" encoding="iso-8859-1" standalone="no"?> 
<?xml-stylesheet href="main.css" type="text/css"?> 
<svg xmlns="http://www.w3.org/2000/svg" xmlns:xlink="http://www.w3.org/1999/xlink" width="469.18715pt" height="28.85272pt" viewBox="-50.02695 -14.42636 469.18715 28.85272 "> 
<g transform="translate(0, 14.42636 ) scale(1,-1) translate(0,14.42636 )"> 
                 <g stroke="#000" fill="#000">
 <g stroke-width="0.4">
 <path d=" M -49.82695 -14.22636 h 99.6539 v 28.45273 h -99.6539 Z  " fill="none"/>
 <g transform="translate(-45.91167,-2.81479)">
 <g fill="#000">
 <text style="stroke:none" transform="scale(1,-1) translate(45.91167,0)" text-anchor="middle"  font-size="12"> 
<g fill="#000">
 <g stroke="none"> cat assignment.py</g> </g>
 </text> 
</g>
 </g>
 <path d=" M 107.13245 -14.22636 h 66.89255 v 28.45273 h -66.89255 Z  " fill="none"/>
 <g transform="translate(111.04773,-3.33252)">
 <g fill="#000">
 <text style="stroke:none" transform="scale(1,-1) translate(29.53099,0)" text-anchor="middle"  font-size="12"> 
<g fill="#000">
 <g stroke="none"> grep "f***" </g> </g>
 </text> 
</g>
 </g>
 <path d=" M 231.33049 -14.22636 h 56.90549 v 28.45273 h -56.90549 Z  " fill="none"/>
 <g transform="translate(247.54666,-4.13232)">
 <g fill="#000">
 <text style="stroke:none" transform="scale(1,-1) translate(12.23657,0)" text-anchor="middle"  font-size="12"> 
<g fill="#000">
 <g stroke="none"> wc -l </g> </g>
 </text> 
</g>
 </g>
 <path d=" M 345.54147 -14.22636 h 73.41873 v 28.45273 h -73.41873 Z  " fill="none"/>
 <g transform="translate(349.45676,-2.5232)">
 <g fill="#000">
 <text style="stroke:none" transform="scale(1,-1) translate(32.79408,0)" text-anchor="middle"  font-size="12"> 
<g fill="#000">
 <g stroke="none"> tee anger.txt </g> </g>
 </text> 
</g>
 </g>
 <path d="  " fill="none"/>
 <path d=" M 50.02695 0.0 L 104.53249 0.0  " fill="none"/>
 <g transform="translate(104.53249,0.0)">
 <path d=" M 2.39996 0.0 C 1.39998 0.2 -0.4 0.59999 -1.59998 1.49997 C -0.59999 0.4 -0.59999 -0.4 -1.59998 -1.49997 C -0.4 -0.59999 1.39998 -0.2 2.39996 0.0 Z  " stroke="none"/>
  </g>
 <path d=" M 174.22499 0.0 L 228.73053 0.0  " fill="none"/>
 <g transform="translate(228.73053,0.0)">
 <path d=" M 2.39996 0.0 C 1.39998 0.2 -0.4 0.59999 -1.59998 1.49997 C -0.59999 0.4 -0.59999 -0.4 -1.59998 -1.49997 C -0.4 -0.59999 1.39998 -0.2 2.39996 0.0 Z  " stroke="none"/>
  </g>
 <path d=" M 288.43597 0.0 L 342.94151 0.0  " fill="none"/>
 <g transform="translate(342.94151,0.0)">
 <path d=" M 2.39996 0.0 C 1.39998 0.2 -0.4 0.59999 -1.59998 1.49997 C -0.59999 0.4 -0.59999 -0.4 -1.59998 -1.49997 C -0.4 -0.59999 1.39998 -0.2 2.39996 0.0 Z  " stroke="none"/>
  </g>
 </g>
 </g>
 
                                                                                                                        </g> 
</svg> 
